<svg width="469" height="310" viewBox="0 0 469 310" fill="none" xmlns="http://www.w3.org/2000/svg">
<rect y="107" width="96" height="96" rx="20" fill="#BBE1CE"/>
<g filter="url(#filter0_d_1_1681)">
<path opacity="0.5" d="M39.695 139.142H56.305C58.2483 139.142 60.54 140.553 61.4017 142.295L65.8017 151.132C66.865 153.258 66.2783 156.283 64.5367 157.878L51.8317 169.41C49.7233 171.317 46.295 171.317 44.1867 169.41L31.4817 157.878C29.7217 156.283 29.1533 153.258 30.2167 151.132L34.6167 142.295C35.46 140.553 37.7517 139.142 39.695 139.142Z" fill="#0F7C46"/>
<path d="M55.3333 147.208H40.6667C39.915 147.208 39.2917 147.832 39.2917 148.583C39.2917 149.335 39.915 149.958 40.6667 149.958H46.625V159.583C46.625 160.335 47.2483 160.958 48 160.958C48.7517 160.958 49.375 160.335 49.375 159.583V149.958H55.3333C56.085 149.958 56.7083 149.335 56.7083 148.583C56.7083 147.832 56.085 147.208 55.3333 147.208Z" fill="#0F7C46"/>
</g>
<g filter="url(#filter1_b_1_1681)">
<rect y="235.97" width="96" height="96" rx="20" fill="#E5F3FF" fill-opacity="0.1"/>
</g>
<g filter="url(#filter2_b_1_1681)">
<rect x="261" y="48" width="96" height="96" rx="20" fill="#E5F3FF" fill-opacity="0.1"/>
</g>
<rect x="261" y="172" width="96" height="96" rx="20" fill="#D5CAEC"/>
<g filter="url(#filter3_d_1_1681)">
<path d="M326.197 218.992L317.947 214.225C317.525 213.987 316.993 213.987 316.572 214.225L308.322 218.992C308.322 218.992 308.322 219.01 308.303 219.01L300.75 223.373L293.875 219.395V211.438L300.75 207.46L307.625 211.438V213.528C307.625 214.28 308.248 214.903 309 214.903C309.752 214.903 310.375 214.28 310.375 213.528V210.65C310.375 210.155 310.118 209.697 309.678 209.458L301.428 204.692C301.007 204.453 300.475 204.453 300.053 204.692L291.803 209.458C291.382 209.697 291.107 210.155 291.107 210.65V220.183C291.107 220.678 291.363 221.137 291.803 221.375L300.053 226.142C300.273 226.27 300.512 226.325 300.75 226.325C300.988 226.325 301.227 226.27 301.447 226.142L309.697 221.375C309.697 221.375 309.697 221.357 309.715 221.357L317.268 216.993L324.143 220.972V228.91L317.268 232.888L310.393 228.91V226.673C310.393 225.922 309.77 225.298 309.018 225.298C308.267 225.298 307.643 225.922 307.643 226.673V229.698C307.643 230.193 307.9 230.652 308.34 230.89L316.59 235.657C316.81 235.785 317.048 235.84 317.287 235.84C317.525 235.84 317.763 235.785 317.983 235.657L326.233 230.89C326.655 230.652 326.93 230.193 326.93 229.698V220.165C326.875 219.688 326.618 219.23 326.197 218.992Z" fill="#4211AD"/>
<path opacity="0.4" d="M295.25 213.308V217.543C295.25 218.203 295.598 218.808 296.167 219.138L299.833 221.247C300.402 221.577 301.098 221.577 301.667 221.247L305.333 219.138C305.902 218.808 306.25 218.203 306.25 217.543V213.308C306.25 212.648 305.902 212.043 305.333 211.713L301.667 209.605C301.098 209.275 300.402 209.275 299.833 209.605L296.167 211.713C295.598 212.043 295.25 212.648 295.25 213.308Z" fill="#4211AD"/>
<path opacity="0.4" d="M311.75 222.842V227.077C311.75 227.737 312.098 228.342 312.667 228.672L316.333 230.78C316.902 231.11 317.598 231.11 318.167 230.78L321.833 228.672C322.402 228.342 322.75 227.737 322.75 227.077V222.842C322.75 222.182 322.402 221.577 321.833 221.247L318.167 219.138C317.598 218.808 316.902 218.808 316.333 219.138L312.667 221.247C312.098 221.577 311.75 222.182 311.75 222.842Z" fill="#4211AD"/>
</g>
<g filter="url(#filter4_b_1_1681)">
<rect x="261" y="296" width="96" height="96" rx="20" fill="#E5F3FF" fill-opacity="0.1"/>
</g>
<rect x="391" width="96" height="96" rx="20" fill="#C5D6EB"/>
<g filter="url(#filter5_d_1_1681)">
<path opacity="0.4" d="M446.627 44.3334C446.627 44.3334 446.352 46.1667 440.668 53.5C435.333 60.4117 443.052 65.6734 443.968 66.2784C444.023 66.315 444.078 66.315 444.152 66.2784C445.398 65.5084 459.277 56.58 446.627 44.3334Z" fill="#0C58B0"/>
<path d="M442.227 40.2817C442.227 36.065 440.577 32.215 438.927 30.015C438.377 29.465 437.46 29.6483 437.277 30.3817C436.543 33.1317 434.343 38.9983 429.027 45.965C422.243 54.765 428.477 64.2983 434.893 66.1317C438.377 67.0483 433.977 64.2983 433.427 58.615C432.877 51.465 442.227 46.1483 442.227 40.2817Z" fill="#0C58B0"/>
</g>
<g filter="url(#filter6_b_1_1681)">
<rect x="391" y="124" width="96" height="96" rx="20" fill="#E5F3FF" fill-opacity="0.1"/>
</g>
<g filter="url(#filter7_b_1_1681)">
<rect x="391" y="248" width="96" height="96" rx="20" fill="#E5F3FF" fill-opacity="0.1"/>
</g>
<rect x="131" y="17" width="96" height="96" rx="20" fill="#EEE3CE"/>
<g filter="url(#filter8_d_1_1681)">
<path opacity="0.4" d="M179 83.3333C189.125 83.3333 197.333 75.1252 197.333 65C197.333 54.8747 189.125 46.6666 179 46.6666C168.875 46.6666 160.667 54.8747 160.667 65C160.667 75.1252 168.875 83.3333 179 83.3333Z" fill="#8D5D00"/>
<path d="M187.232 64.285C187.928 63.3867 188.368 62.25 188.368 61.0217C188.368 58.18 185.875 55.6684 183.015 55.6684H181.402V53.0834C181.402 52.3317 180.778 51.7084 180.027 51.7084C179.275 51.7084 178.652 52.3317 178.652 53.0834V55.6867H176.855H176.433V53.0834C176.433 52.3317 175.81 51.7084 175.058 51.7084C174.307 51.7084 173.72 52.3317 173.72 53.0834V55.6867H173.097H169.925C169.173 55.6867 168.55 56.31 168.55 57.0617C168.55 57.8134 169.173 58.4367 169.925 58.4367H171.722V65V71.5634H169.925C169.173 71.5634 168.55 72.1867 168.55 72.9384C168.55 73.69 169.173 74.3134 169.925 74.3134H173.097H173.702V76.9167C173.702 77.6684 174.325 78.2917 175.077 78.2917C175.828 78.2917 176.452 77.6684 176.452 76.9167V74.3134H176.873H178.67V76.9167C178.67 77.6684 179.293 78.2917 180.045 78.2917C180.797 78.2917 181.42 77.6684 181.42 76.9167V74.3134H184.445C187.708 74.3134 190.367 71.9117 190.367 68.96C190.367 66.9434 189.083 65.1834 187.232 64.285ZM176.873 58.4367H183.033C184.5 58.4367 185.637 59.83 185.637 61.04C185.637 62.47 184.463 63.6434 183.033 63.6434H174.472V58.4367H176.873ZM184.445 71.5634H176.873H174.472V66.375H183.033H184.445C186.187 66.375 187.617 67.5484 187.617 68.9784C187.617 70.4084 186.187 71.5634 184.445 71.5634Z" fill="#8D5D00"/>
</g>
<g filter="url(#filter9_b_1_1681)">
<rect x="131" y="141" width="96" height="96" rx="20" fill="#E5F3FF" fill-opacity="0.1"/>
</g>
<g filter="url(#filter10_b_1_1681)">
<rect x="131" y="265" width="96" height="96" rx="20" fill="#E5F3FF" fill-opacity="0.1"/>
</g>
<defs>
<filter id="filter0_d_1_1681" x="2" y="117" width="92" height="92" filterUnits="userSpaceOnUse" color-interpolation-filters="sRGB">
<feFlood flood-opacity="0" result="BackgroundImageFix"/>
<feColorMatrix in="SourceAlpha" type="matrix" values="0 0 0 0 0 0 0 0 0 0 0 0 0 0 0 0 0 0 127 0" result="hardAlpha"/>
<feOffset dy="8"/>
<feGaussianBlur stdDeviation="12"/>
<feColorMatrix type="matrix" values="0 0 0 0 0.0588235 0 0 0 0 0.486275 0 0 0 0 0.27451 0 0 0 0.7 0"/>
<feBlend mode="normal" in2="BackgroundImageFix" result="effect1_dropShadow_1_1681"/>
<feBlend mode="normal" in="SourceGraphic" in2="effect1_dropShadow_1_1681" result="shape"/>
</filter>
<filter id="filter1_b_1_1681" x="-1" y="234.97" width="98" height="98" filterUnits="userSpaceOnUse" color-interpolation-filters="sRGB">
<feFlood flood-opacity="0" result="BackgroundImageFix"/>
<feGaussianBlur in="BackgroundImageFix" stdDeviation="0.5"/>
<feComposite in2="SourceAlpha" operator="in" result="effect1_backgroundBlur_1_1681"/>
<feBlend mode="normal" in="SourceGraphic" in2="effect1_backgroundBlur_1_1681" result="shape"/>
</filter>
<filter id="filter2_b_1_1681" x="260" y="47" width="98" height="98" filterUnits="userSpaceOnUse" color-interpolation-filters="sRGB">
<feFlood flood-opacity="0" result="BackgroundImageFix"/>
<feGaussianBlur in="BackgroundImageFix" stdDeviation="0.5"/>
<feComposite in2="SourceAlpha" operator="in" result="effect1_backgroundBlur_1_1681"/>
<feBlend mode="normal" in="SourceGraphic" in2="effect1_backgroundBlur_1_1681" result="shape"/>
</filter>
<filter id="filter3_d_1_1681" x="263" y="182" width="92" height="92" filterUnits="userSpaceOnUse" color-interpolation-filters="sRGB">
<feFlood flood-opacity="0" result="BackgroundImageFix"/>
<feColorMatrix in="SourceAlpha" type="matrix" values="0 0 0 0 0 0 0 0 0 0 0 0 0 0 0 0 0 0 127 0" result="hardAlpha"/>
<feOffset dy="8"/>
<feGaussianBlur stdDeviation="12"/>
<feColorMatrix type="matrix" values="0 0 0 0 0.258824 0 0 0 0 0.0666667 0 0 0 0 0.678431 0 0 0 0.7 0"/>
<feBlend mode="normal" in2="BackgroundImageFix" result="effect1_dropShadow_1_1681"/>
<feBlend mode="normal" in="SourceGraphic" in2="effect1_dropShadow_1_1681" result="shape"/>
</filter>
<filter id="filter4_b_1_1681" x="260" y="295" width="98" height="98" filterUnits="userSpaceOnUse" color-interpolation-filters="sRGB">
<feFlood flood-opacity="0" result="BackgroundImageFix"/>
<feGaussianBlur in="BackgroundImageFix" stdDeviation="0.5"/>
<feComposite in2="SourceAlpha" operator="in" result="effect1_backgroundBlur_1_1681"/>
<feBlend mode="normal" in="SourceGraphic" in2="effect1_backgroundBlur_1_1681" result="shape"/>
</filter>
<filter id="filter5_d_1_1681" x="393" y="10" width="92" height="92" filterUnits="userSpaceOnUse" color-interpolation-filters="sRGB">
<feFlood flood-opacity="0" result="BackgroundImageFix"/>
<feColorMatrix in="SourceAlpha" type="matrix" values="0 0 0 0 0 0 0 0 0 0 0 0 0 0 0 0 0 0 127 0" result="hardAlpha"/>
<feOffset dy="8"/>
<feGaussianBlur stdDeviation="12"/>
<feColorMatrix type="matrix" values="0 0 0 0 0.0470588 0 0 0 0 0.345098 0 0 0 0 0.690196 0 0 0 0.7 0"/>
<feBlend mode="normal" in2="BackgroundImageFix" result="effect1_dropShadow_1_1681"/>
<feBlend mode="normal" in="SourceGraphic" in2="effect1_dropShadow_1_1681" result="shape"/>
</filter>
<filter id="filter6_b_1_1681" x="390" y="123" width="98" height="98" filterUnits="userSpaceOnUse" color-interpolation-filters="sRGB">
<feFlood flood-opacity="0" result="BackgroundImageFix"/>
<feGaussianBlur in="BackgroundImageFix" stdDeviation="0.5"/>
<feComposite in2="SourceAlpha" operator="in" result="effect1_backgroundBlur_1_1681"/>
<feBlend mode="normal" in="SourceGraphic" in2="effect1_backgroundBlur_1_1681" result="shape"/>
</filter>
<filter id="filter7_b_1_1681" x="390" y="247" width="98" height="98" filterUnits="userSpaceOnUse" color-interpolation-filters="sRGB">
<feFlood flood-opacity="0" result="BackgroundImageFix"/>
<feGaussianBlur in="BackgroundImageFix" stdDeviation="0.5"/>
<feComposite in2="SourceAlpha" operator="in" result="effect1_backgroundBlur_1_1681"/>
<feBlend mode="normal" in="SourceGraphic" in2="effect1_backgroundBlur_1_1681" result="shape"/>
</filter>
<filter id="filter8_d_1_1681" x="133" y="27" width="92" height="92" filterUnits="userSpaceOnUse" color-interpolation-filters="sRGB">
<feFlood flood-opacity="0" result="BackgroundImageFix"/>
<feColorMatrix in="SourceAlpha" type="matrix" values="0 0 0 0 0 0 0 0 0 0 0 0 0 0 0 0 0 0 127 0" result="hardAlpha"/>
<feOffset dy="8"/>
<feGaussianBlur stdDeviation="12"/>
<feColorMatrix type="matrix" values="0 0 0 0 0.552941 0 0 0 0 0.364706 0 0 0 0 0 0 0 0 0.7 0"/>
<feBlend mode="normal" in2="BackgroundImageFix" result="effect1_dropShadow_1_1681"/>
<feBlend mode="normal" in="SourceGraphic" in2="effect1_dropShadow_1_1681" result="shape"/>
</filter>
<filter id="filter9_b_1_1681" x="130" y="140" width="98" height="98" filterUnits="userSpaceOnUse" color-interpolation-filters="sRGB">
<feFlood flood-opacity="0" result="BackgroundImageFix"/>
<feGaussianBlur in="BackgroundImageFix" stdDeviation="0.5"/>
<feComposite in2="SourceAlpha" operator="in" result="effect1_backgroundBlur_1_1681"/>
<feBlend mode="normal" in="SourceGraphic" in2="effect1_backgroundBlur_1_1681" result="shape"/>
</filter>
<filter id="filter10_b_1_1681" x="130" y="264" width="98" height="98" filterUnits="userSpaceOnUse" color-interpolation-filters="sRGB">
<feFlood flood-opacity="0" result="BackgroundImageFix"/>
<feGaussianBlur in="BackgroundImageFix" stdDeviation="0.5"/>
<feComposite in2="SourceAlpha" operator="in" result="effect1_backgroundBlur_1_1681"/>
<feBlend mode="normal" in="SourceGraphic" in2="effect1_backgroundBlur_1_1681" result="shape"/>
</filter>
</defs>
</svg>
