<svg width="58" height="58" viewBox="0 0 58 58" fill="none" xmlns="http://www.w3.org/2000/svg">
  <g clip-path="url(#clip0_73_616)">
    <g filter="url(#filter0_d_73_616)">
      <mask id="path-2-inside-1_73_616" fill="white">
        <path
          d="M50 29C50 40.598 40.598 50 29 50C17.402 50 8 40.598 8 29C8 17.402 17.402 8 29 8C40.598 8 50 17.402 50 29ZM11.36 29C11.36 38.7423 19.2577 46.64 29 46.64C38.7423 46.64 46.64 38.7423 46.64 29C46.64 19.2577 38.7423 11.36 29 11.36C19.2577 11.36 11.36 19.2577 11.36 29Z" />
      </mask>
      <path
        d="M50 29C50 40.598 40.598 50 29 50C17.402 50 8 40.598 8 29C8 17.402 17.402 8 29 8C40.598 8 50 17.402 50 29ZM11.36 29C11.36 38.7423 19.2577 46.64 29 46.64C38.7423 46.64 46.64 38.7423 46.64 29C46.64 19.2577 38.7423 11.36 29 11.36C19.2577 11.36 11.36 19.2577 11.36 29Z"
        stroke="#C5BF7C" stroke-opacity="0.25" stroke-width="15" mask="url(#path-2-inside-1_73_616)" />
    </g>
    <mask id="path-3-inside-2_73_616" fill="white">
      <path
        d="M50 29C50 40.598 40.598 50 29 50C17.402 50 8 40.598 8 29C8 17.402 17.402 8 29 8C40.598 8 50 17.402 50 29ZM11.36 29C11.36 38.7423 19.2577 46.64 29 46.64C38.7423 46.64 46.64 38.7423 46.64 29C46.64 19.2577 38.7423 11.36 29 11.36C19.2577 11.36 11.36 19.2577 11.36 29Z" />
    </mask>
    <path
      d="M50 29C50 40.598 40.598 50 29 50C17.402 50 8 40.598 8 29C8 17.402 17.402 8 29 8C40.598 8 50 17.402 50 29ZM11.36 29C11.36 38.7423 19.2577 46.64 29 46.64C38.7423 46.64 46.64 38.7423 46.64 29C46.64 19.2577 38.7423 11.36 29 11.36C19.2577 11.36 11.36 19.2577 11.36 29Z"
      stroke="#C5BF7C" stroke-width="16" mask="url(#path-3-inside-2_73_616)" />
    <path
      d="M14.5119 31.52L15.7619 30.56L16.5419 29.92C16.8085 29.6933 17.0385 29.48 17.2319 29.28C17.5852 28.9267 17.7619 28.58 17.7619 28.24C17.7619 28.04 17.6952 27.8867 17.5619 27.78C17.4352 27.6733 17.2752 27.62 17.0819 27.62C16.8952 27.62 16.7319 27.6433 16.5919 27.69C16.4585 27.73 16.3319 27.7867 16.2119 27.86C15.9585 28.0267 15.7719 28.2367 15.6519 28.49C15.4852 28.4833 15.3452 28.41 15.2319 28.27C15.1252 28.13 15.0719 27.96 15.0719 27.76C15.0719 27.5533 15.1352 27.3567 15.2619 27.17C15.3885 26.9767 15.5652 26.8067 15.7919 26.66C16.2852 26.3533 16.8685 26.2 17.5419 26.2C18.2219 26.2 18.7519 26.3467 19.1319 26.64C19.5119 26.9333 19.7019 27.33 19.7019 27.83C19.7019 28.2033 19.6085 28.56 19.4219 28.9C19.2419 29.24 18.9085 29.5833 18.4219 29.93L17.3419 30.69L16.6919 31.12L15.8619 31.63L16.2119 31.67C16.3719 31.69 16.5919 31.7 16.8719 31.7C17.1519 31.7 17.4085 31.6867 17.6419 31.66C17.8752 31.6267 18.0919 31.58 18.2919 31.52C18.7319 31.4 19.0219 31.2567 19.1619 31.09C19.2352 31.1433 19.2985 31.24 19.3519 31.38C19.4119 31.5133 19.4419 31.6633 19.4419 31.83C19.4419 32.33 19.2519 32.6833 18.8719 32.89C18.4919 33.0967 17.9119 33.2 17.1319 33.2C16.7252 33.2 16.2519 33.14 15.7119 33.02C15.1719 32.9067 14.7919 32.8167 14.5719 32.75L14.5119 31.52ZM25.2073 30.37C25.2807 30.51 25.3173 30.7167 25.3173 30.99C25.3173 31.2633 25.214 31.4967 25.0073 31.69C24.8073 31.8767 24.484 31.97 24.0373 31.97H23.9773L23.8173 33C23.6373 33.1333 23.3873 33.2 23.0673 33.2C22.654 33.2 22.3807 33.0733 22.2473 32.82C22.194 32.7267 22.1673 32.64 22.1673 32.56C22.1673 32.4667 22.174 32.3667 22.1873 32.26L22.2573 31.88L19.9573 31.64V30.38L23.6973 26.19V26.2L23.7073 26.19L25.0973 26.34C24.784 27.62 24.494 28.9967 24.2273 30.47H24.4573C24.8373 30.47 25.0873 30.4367 25.2073 30.37ZM21.0273 30.4L22.5373 30.45C22.7573 29.47 22.9773 28.61 23.1973 27.87L21.0273 30.4ZM30.8328 31.89C30.8328 32.1833 30.9828 32.3733 31.2828 32.46C31.2095 32.7067 31.0295 32.8967 30.7428 33.03C30.5028 33.1433 30.2495 33.2 29.9828 33.2C29.7228 33.2 29.5228 33.1633 29.3828 33.09C29.2495 33.0233 29.1461 32.9333 29.0728 32.82C28.9528 32.6467 28.8928 32.3967 28.8928 32.07C28.8928 31.8767 28.9461 31.5133 29.0528 30.98L29.1928 30.22C29.3061 29.64 29.3628 29.2433 29.3628 29.03C29.3628 28.6567 29.2595 28.47 29.0528 28.47C28.7928 28.47 28.5795 28.66 28.4128 29.04C28.3461 29.1867 28.2895 29.37 28.2428 29.59L27.5628 33L25.5528 33.2L26.9628 26L28.9728 25.8L28.8928 26.2C28.7061 27.2267 28.5328 27.9133 28.3728 28.26C28.7461 27.8867 29.2761 27.7 29.9628 27.7C30.6895 27.7 31.1195 27.94 31.2528 28.42C31.2995 28.5733 31.3228 28.7167 31.3228 28.85C31.3228 28.9833 31.3161 29.1033 31.3028 29.21C31.2961 29.31 31.2761 29.4533 31.2428 29.64L31.1128 30.36L30.8828 31.49C30.8495 31.6433 30.8328 31.7767 30.8328 31.89ZM35.2219 30.19C35.4619 29.7633 35.5819 29.3333 35.5819 28.9C35.5819 28.6133 35.4785 28.47 35.2719 28.47C35.1119 28.47 34.9485 28.6067 34.7819 28.88C34.6085 29.1533 34.4952 29.4667 34.4419 29.82L33.9219 33L31.8519 33.2L32.8719 27.9L34.5219 27.7L34.3419 28.71C34.6685 28.0367 35.1985 27.7 35.9319 27.7C36.3185 27.7 36.6152 27.8 36.8219 28C37.0352 28.2 37.1419 28.5067 37.1419 28.92C37.1419 29.3267 37.0052 29.66 36.7319 29.92C36.4652 30.18 36.1019 30.31 35.6419 30.31C35.4419 30.31 35.3019 30.27 35.2219 30.19ZM40.2967 29.49C40.3901 29.2433 40.4367 29.0133 40.4367 28.8C40.4367 28.4067 40.2767 28.21 39.9567 28.21C39.7901 28.21 39.6367 28.2867 39.4967 28.44C39.3634 28.5867 39.2967 28.7533 39.2967 28.94C39.2967 29.0733 39.3501 29.1933 39.4567 29.3C39.6101 29.4467 39.8834 29.64 40.2767 29.88C40.6701 30.12 40.9401 30.34 41.0867 30.54C41.2401 30.7333 41.3167 30.9667 41.3167 31.24C41.3167 31.5067 41.2501 31.7633 41.1167 32.01C40.9901 32.2567 40.8101 32.4667 40.5767 32.64C40.0767 33.0133 39.4267 33.2 38.6267 33.2C38.1934 33.2 37.8101 33.0867 37.4767 32.86C37.1434 32.64 36.9767 32.4 36.9767 32.14C36.9767 31.88 37.0701 31.6733 37.2567 31.52C37.4501 31.3667 37.6867 31.29 37.9667 31.29C38.2467 31.29 38.4734 31.3433 38.6467 31.45C38.5601 31.67 38.5167 31.8533 38.5167 32C38.5167 32.44 38.7034 32.66 39.0767 32.66C39.2367 32.66 39.3701 32.61 39.4767 32.51C39.5834 32.41 39.6367 32.2733 39.6367 32.1C39.6367 31.76 39.3501 31.41 38.7767 31.05C38.3101 30.7433 38.0234 30.53 37.9167 30.41C37.7367 30.1967 37.6467 29.9567 37.6467 29.69C37.6467 29.4233 37.7101 29.1633 37.8367 28.91C37.9634 28.6567 38.1434 28.44 38.3767 28.26C38.8634 27.8867 39.5301 27.7 40.3767 27.7C40.8101 27.7 41.1534 27.7867 41.4067 27.96C41.6667 28.1333 41.7967 28.3667 41.7967 28.66C41.7967 28.9533 41.7067 29.1833 41.5267 29.35C41.3534 29.5167 41.1067 29.6 40.7867 29.6C40.5667 29.6 40.4034 29.5633 40.2967 29.49Z"
      fill="#C5BF7C" />
  </g>
  <defs>
    <filter id="filter0_d_73_616" x="-9" y="-5" width="76" height="76" filterUnits="userSpaceOnUse"
      color-interpolation-filters="sRGB">
      <feFlood flood-opacity="0" result="BackgroundImageFix" />
      <feColorMatrix in="SourceAlpha" type="matrix"
        values="0 0 0 0 0 0 0 0 0 0 0 0 0 0 0 0 0 0 127 0" result="hardAlpha" />
      <feOffset dy="4" />
      <feGaussianBlur stdDeviation="8.5" />
      <feColorMatrix type="matrix"
        values="0 0 0 0 0.772549 0 0 0 0 0.74902 0 0 0 0 0.486275 0 0 0 0.24 0" />
      <feBlend mode="normal" in2="BackgroundImageFix" result="effect1_dropShadow_73_616" />
      <feBlend mode="normal" in="SourceGraphic" in2="effect1_dropShadow_73_616" result="shape" />
    </filter>
    <clipPath id="clip0_73_616">
      <rect width="58" height="58" rx="20" fill="white" />
    </clipPath>
  </defs>
</svg>