<svg xmlns="http://www.w3.org/2000/svg" width="16" height="15" viewBox="0 0 16 15" fill="none">
  <path
    d="M12.3125 5.75C11.8125 6.3125 10.875 6.875 9.875 6.875C8.9375 6.875 8.375 6.5625 7.875 6.3125C7.375 6.125 6.875 5.8125 6.0625 5.8125C5.3125 5.8125 4.625 6.25 4.25 6.625L3.625 5.6875C4.1875 5.125 5.0625 4.5 6.0625 4.5C7 4.5 7.5625 4.875 8.0625 5.0625C8.5625 5.25 9.0625 5.625 9.875 5.625C10.625 5.625 11.3125 5.125 11.6875 4.75L12.3125 5.75ZM12.375 8.8125C11.8125 9.375 10.9375 10 9.9375 10C9 10 8.4375 9.6875 7.9375 9.4375C7.4375 9.25 6.9375 8.875 6.125 8.875C5.375 8.875 4.6875 9.375 4.3125 9.75L3.6875 8.75C4.25 8.1875 5.125 7.5625 6.125 7.5625C7.0625 7.5625 7.625 7.875 8.125 8.125C8.625 8.3125 9.125 8.625 9.9375 8.625C10.6875 8.625 11.375 8.125 11.75 7.75L12.375 8.8125Z"
    fill="#D0DCE7" />
</svg>