<svg width="32" height="32" viewBox="0 0 32 32" fill="none" xmlns="http://www.w3.org/2000/svg">
<g clip-path="url(#clip0_3792_18688)">
<path d="M25.6096 10.4588H22.896C22.5798 10.4588 22.279 10.3231 22.0698 10.087L20.969 8.84345C20.8051 8.65785 20.569 8.55225 20.3219 8.55225C20.0749 8.55225 19.8387 8.65849 19.6749 8.84345L18.7309 9.91033C18.4218 10.2591 17.9782 10.4594 17.5123 10.4594H2.65857C2.23553 11.6652 1.95969 12.9388 1.84961 14.2598H15.872C16.1184 14.2598 16.3546 14.1593 16.5248 13.9814L17.8304 12.6188C17.9936 12.4486 18.2189 12.3526 18.4544 12.3526H18.5082C18.7558 12.3526 18.9914 12.4588 19.1552 12.6444L20.2554 13.8879C20.4646 14.1247 20.7654 14.2598 21.0816 14.2598H32.5274C32.4173 12.9382 32.1414 11.6646 31.7184 10.4594H25.609L25.6096 10.4588Z" fill="white"/>
<path d="M10.3351 22.2508C10.5815 22.2508 10.8177 22.1503 10.9879 21.9724L12.2935 20.6098C12.4567 20.4396 12.682 20.3436 12.9175 20.3436H12.9713C13.2189 20.3436 13.4545 20.4498 13.6183 20.6348L14.7185 21.8783C14.9277 22.1151 15.2285 22.2502 15.5447 22.2502H31.0557C31.6369 21.0495 32.0625 19.7612 32.3159 18.4114H17.4276C17.1114 18.4114 16.8106 18.2758 16.6013 18.0396L15.5012 16.7961C15.3373 16.6105 15.1012 16.5049 14.8541 16.5049C14.6071 16.5049 14.3709 16.6111 14.2071 16.7961L13.2631 17.863C12.954 18.2118 12.5105 18.4121 12.0439 18.4121H2.06055C2.31399 19.7618 2.74023 21.0502 3.32071 22.2508H10.3345H10.3351Z" fill="white"/>
<path d="M21.3397 6.30537C21.5861 6.30537 21.8223 6.20489 21.9925 6.02697L23.2981 4.66441C23.4613 4.49417 23.6866 4.39817 23.9221 4.39817H23.9759C24.2235 4.39817 24.4591 4.50441 24.6229 4.69001L25.7231 5.93353C25.9323 6.17033 26.2331 6.30537 26.5493 6.30537H29.4991C26.6901 2.57161 22.2223 0.15625 17.1893 0.15625C12.1563 0.15625 7.68851 2.57161 4.87891 6.30537H21.3397Z" fill="white"/>
<path d="M15.4139 26.055H11.38C11.0638 26.055 10.763 25.9193 10.5538 25.6832L9.45359 24.4396C9.28975 24.254 9.05359 24.1484 8.80655 24.1484C8.55951 24.1484 8.32335 24.2547 8.15951 24.4396L7.21551 25.5065C6.90639 25.8553 6.46287 26.0556 5.99631 26.0556H5.93359C8.74383 29.0668 12.7458 30.9516 17.1893 30.9516C21.6328 30.9516 25.6341 29.0668 28.445 26.0556H15.4139V26.055Z" fill="white"/>
</g>
<defs>
<clipPath id="clip0_3792_18688">
<rect width="32" height="32" fill="white"/>
</clipPath>
</defs>
</svg>
