<svg width="26" height="25" viewBox="0 0 26 25" fill="none" xmlns="http://www.w3.org/2000/svg">
  <path
    d="M16.3343 22.1681H10.5043C5.22817 22.1681 2.97391 19.9138 2.97391 14.6376V8.80764C2.97391 3.53149 5.22817 1.27722 10.5043 1.27722H16.3343C21.6105 1.27722 23.8647 3.53149 23.8647 8.80764V14.6376C23.8647 19.9138 21.6105 22.1681 16.3343 22.1681ZM10.5043 2.73472C6.02494 2.73472 4.43141 4.32825 4.43141 8.80764V14.6376C4.43141 19.117 6.02494 20.7106 10.5043 20.7106H16.3343C20.8137 20.7106 22.4072 19.117 22.4072 14.6376V8.80764C22.4072 4.32825 20.8137 2.73472 16.3343 2.73472H10.5043Z"
    fill="#E5E5E5" />
  <path
    d="M9.00525 10.7085C9.00823 10.6041 9.03251 10.5014 9.07659 10.4068C9.12066 10.3121 9.18362 10.2274 9.26158 10.1579C9.40659 10.0116 9.60375 9.92884 9.80974 9.9278C10.0157 9.92675 10.2137 10.0075 10.3602 10.1524L13.4852 13.2459L16.5788 10.1209C16.7277 10.0587 16.8924 10.0444 17.0498 10.08C17.2073 10.1155 17.3498 10.1993 17.4575 10.3195C17.5652 10.4397 17.6328 10.5905 17.6509 10.7509C17.669 10.9113 17.6368 11.0734 17.5586 11.2146L13.9494 14.8605C13.8044 15.0068 13.6072 15.0895 13.4012 15.0906C13.1952 15.0916 12.9973 15.0108 12.8508 14.866L9.26713 11.2565C9.18847 11.1878 9.12466 11.1038 9.07963 11.0095C9.0346 10.9153 9.00929 10.8129 9.00525 10.7085Z"
    fill="#F8F8F8" />
</svg>