<svg xmlns="http://www.w3.org/2000/svg" width="18" height="18" viewBox="0 0 18 18" fill="none">
  <path d="M9 17.0625C4.5525 17.0625 0.9375 13.4475 0.9375 9C0.9375 4.5525 4.5525 0.9375 9 0.9375C13.4475 0.9375 17.0625 4.5525 17.0625 9C17.0625 13.4475 13.4475 17.0625 9 17.0625ZM9 2.0625C5.175 2.0625 2.0625 5.175 2.0625 9C2.0625 12.825 5.175 15.9375 9 15.9375C12.825 15.9375 15.9375 12.825 15.9375 9C15.9375 5.175 12.825 2.0625 9 2.0625Z" fill="#E5F3FF" fill-opacity="0.36"/>
  <path d="M8.99999 11.2575C8.8575 11.2575 8.71499 11.205 8.60249 11.0925L5.955 8.445C5.7375 8.2275 5.7375 7.8675 5.955 7.65C6.1725 7.4325 6.5325 7.4325 6.74999 7.65L8.99999 9.9L11.25 7.65C11.4675 7.4325 11.8275 7.4325 12.045 7.65C12.2625 7.8675 12.2625 8.2275 12.045 8.445L9.39749 11.0925C9.28499 11.205 9.14249 11.2575 8.99999 11.2575Z" fill="#E5F3FF" fill-opacity="0.36"/>
</svg>