<svg width="50" height="50" viewBox="0 0 50 50" fill="none" xmlns="http://www.w3.org/2000/svg">
  <path
    d="M25.1016 47.0528C37.225 47.0528 47.0529 37.2249 47.0529 25.1016C47.0529 12.9783 37.225 3.15039 25.1016 3.15039C12.9783 3.15039 3.15042 12.9783 3.15042 25.1016C3.15042 37.2249 12.9783 47.0528 25.1016 47.0528Z"
    fill="#233F3B" />
  <path
    d="M25.1016 48.0528C37.7772 48.0528 48.0529 37.7772 48.0529 25.1016C48.0529 12.426 37.7772 2.15039 25.1016 2.15039C12.426 2.15039 2.15042 12.426 2.15042 25.1016C2.15042 37.7772 12.426 48.0528 25.1016 48.0528Z"
    stroke="#1CED86" stroke-width="2" />
  <path
    d="M33.8054 23.8419L27.2505 17.2871C26.6169 16.6534 25.5681 16.6534 24.9345 17.2871C24.3008 17.9207 24.3008 18.9695 24.9345 19.6031L28.6926 23.3612H17.3526C16.4568 23.3612 15.7139 24.1041 15.7139 25C15.7139 25.8958 16.4568 26.6387 17.3526 26.6387H28.6926L24.9345 30.3968C24.3008 31.0305 24.3008 32.0792 24.9345 32.7129C25.2622 33.0406 25.6773 33.1936 26.0925 33.1936C26.5076 33.1936 26.9228 33.0406 27.2505 32.7129L33.8054 26.158C34.439 25.5244 34.439 24.4756 33.8054 23.8419Z"
    fill="#1CED86" />
</svg>