<svg width="18" height="19" viewBox="0 0 18 19" fill="none" xmlns="http://www.w3.org/2000/svg">
  <g opacity="0.4">
    <path
      d="M8.13 10.6549H7.005C6.1425 10.6549 5.445 9.9349 5.445 9.0424C5.445 8.7349 5.7 8.4799 6.0075 8.4799C6.315 8.4799 6.57 8.7349 6.57 9.0424C6.57 9.3124 6.765 9.5299 7.005 9.5299H8.13C8.3025 9.5299 8.4375 9.3724 8.4375 9.1774C8.4375 8.9149 8.3925 8.8999 8.22 8.8399L6.4125 8.2099C5.76 7.9849 5.4375 7.5274 5.4375 6.8149C5.4375 6.0049 6.0825 5.3374 6.87 5.3374H7.995C8.8575 5.3374 9.555 6.0574 9.555 6.9499C9.555 7.2574 9.3 7.5124 8.9925 7.5124C8.685 7.5124 8.43 7.2574 8.43 6.9499C8.43 6.6799 8.235 6.4624 7.995 6.4624H6.87C6.6975 6.4624 6.5625 6.6199 6.5625 6.8149C6.5625 7.0774 6.6075 7.0924 6.78 7.1524L8.5875 7.7824C9.24 8.0149 9.555 8.4724 9.555 9.1774C9.5625 9.9949 8.9175 10.6549 8.13 10.6549Z"
      fill="#E5F3FF" />
    <path
      d="M7.5 11.2552C7.1925 11.2552 6.9375 11.0002 6.9375 10.6927V10.1377C6.9375 9.8302 7.1925 9.5752 7.5 9.5752C7.8075 9.5752 8.0625 9.8302 8.0625 10.1377V10.6927C8.0625 11.0077 7.8075 11.2552 7.5 11.2552Z"
      fill="#E5F3FF" />
    <path
      d="M7.5 6.45512C7.1925 6.45512 6.9375 6.20012 6.9375 5.89262V5.30762C6.9375 5.00012 7.1925 4.74512 7.5 4.74512C7.8075 4.74512 8.0625 5.00012 8.0625 5.30762V5.89262C8.0625 6.20012 7.8075 6.45512 7.5 6.45512Z"
      fill="#E5F3FF" />
    <path
      d="M7.4925 14.5402C3.8775 14.5402 0.9375 11.6002 0.9375 7.98518C0.9375 4.37018 3.8775 1.43018 7.4925 1.43018C11.1075 1.43018 14.0475 4.37018 14.0475 7.98518C14.0475 11.6002 11.1 14.5402 7.4925 14.5402ZM7.4925 2.56268C4.5 2.56268 2.0625 5.00018 2.0625 7.99268C2.0625 10.9852 4.5 13.4152 7.4925 13.4152C10.485 13.4152 12.9225 10.9777 12.9225 7.98518C12.9225 4.99268 10.485 2.56268 7.4925 2.56268Z"
      fill="#E5F3FF" />
    <path
      d="M12.765 17.5402C11.3775 17.5402 10.0725 16.8652 9.26999 15.7252C9.08999 15.4702 9.14999 15.1177 9.40499 14.9377C9.65999 14.7577 10.0125 14.8177 10.1925 15.0727C10.785 15.9127 11.745 16.4077 12.765 16.4077C14.505 16.4077 15.915 14.9977 15.915 13.2577C15.915 12.2452 15.42 11.2852 14.595 10.6927C14.34 10.5127 14.2875 10.1602 14.4675 9.90521C14.6475 9.65021 15 9.59771 15.255 9.77771C16.3725 10.5802 17.04 11.8777 17.04 13.2577C17.04 15.6277 15.1275 17.5402 12.765 17.5402Z"
      fill="#E5F3FF" />
  </g>
</svg>