<svg width="65" height="75" viewBox="0 0 65 75" fill="none" xmlns="http://www.w3.org/2000/svg">
  <rect x="0.000976562" width="65" height="75" rx="14" fill="#1CEDD4" />
  <path
    d="M18.001 28.5079H26.2663C27.1846 28.5079 27.9193 29.3899 27.9193 30.4923C27.9193 31.5947 27.1846 32.4766 26.2663 32.4766H18.001C18.3071 37.4741 21.7969 41.3693 26.0214 41.3693H26.3275C27.2459 41.3693 27.9806 42.2512 27.9806 43.3536C27.9806 44.456 27.2459 45.3379 26.3275 45.3379H26.0214C21.7969 45.3379 18.3071 49.2331 18.001 54.2306H39.9806C44.2051 54.2306 47.6949 50.3355 48.001 45.3379H39.7357C38.8173 45.3379 38.0826 44.456 38.0826 43.3536C38.0826 42.2512 38.8173 41.3693 39.7357 41.3693H48.001C47.6949 36.3717 44.2051 32.4766 39.9806 32.4766H39.6744C38.7561 32.4766 38.0214 31.5947 38.0214 30.4923C38.0214 29.3899 38.7561 28.5079 39.6744 28.5079H39.9806C44.2051 28.5079 47.6949 24.6128 48.001 19.6152H26.0214C21.7969 19.6152 18.3071 23.5104 18.001 28.5079Z"
    fill="#0F3946" />
</svg>