<svg xmlns="http://www.w3.org/2000/svg" width="20" height="21" viewBox="0 0 20 21" fill="none">
  <rect y="0.5" width="20" height="20" rx="10" fill="#15ECAB" />
  <path
    d="M5 8.069H7.7551C8.06122 8.069 8.30612 8.32378 8.30612 8.64225C8.30612 8.96072 8.06122 9.2155 7.7551 9.2155H5C5.10204 10.6592 6.26531 11.7845 7.67347 11.7845H7.77551C8.08163 11.7845 8.32653 12.0393 8.32653 12.3577C8.32653 12.6762 8.08163 12.931 7.77551 12.931H7.67347C6.26531 12.931 5.10204 14.0563 5 15.5H12.3265C13.7347 15.5 14.898 14.3747 15 12.931H12.2449C11.9388 12.931 11.6939 12.6762 11.6939 12.3577C11.6939 12.0393 11.9388 11.7845 12.2449 11.7845H15C14.898 10.3408 13.7347 9.2155 12.3265 9.2155H12.2245C11.9184 9.2155 11.6735 8.96072 11.6735 8.64225C11.6735 8.32378 11.9184 8.069 12.2245 8.069H12.3265C13.7347 8.069 14.898 6.94374 15 5.5H7.67347C6.26531 5.5 5.10204 6.62527 5 8.069Z"
    fill="#0B5942" />
</svg>