<svg width="16" height="17" viewBox="0 0 16 17" fill="none" xmlns="http://www.w3.org/2000/svg">
  <path
    d="M12.2657 2.6102L7.99886 0.119141L3.73198 2.6102L5.33198 3.48537L7.99886 1.9367L10.7323 3.48537L12.2657 2.6102ZM3.79918 5.70755L5.33262 4.83238L7.99886 6.38105L10.7323 4.83238L12.2657 5.70755V7.52575L9.59886 9.07442V12.239L8.06542 13.1814L6.53198 12.239V9.14165L3.8651 7.59297V5.70755H3.79918ZM3.79918 10.6897V8.87211L5.33198 9.8145V11.5648L3.79918 10.6897ZM2.66574 11.296L5.33262 12.8446V14.6622L1.06574 12.1711V7.189L2.66574 8.19861V11.296ZM4.19853 4.15887L2.6651 5.10126V6.91947L1.13166 5.97708V4.15887L2.6651 3.21649L4.19853 4.15887ZM9.59886 13.5175V15.335L8.06542 16.2774L6.53198 15.335V13.5175L8.06542 14.4599L9.59886 13.5175ZM12.2657 10.6897L10.7323 11.5648V9.74728L12.2657 8.80489V10.6897ZM9.59886 4.15887L8.06542 5.10126L6.46542 4.15887L7.99886 3.21649L9.59886 4.15887ZM13.3992 5.10126L11.7992 4.15887L13.3992 3.21649L14.932 4.15887V5.97643L13.3985 6.91882V5.10126H13.3992ZM13.3992 8.19861L14.9326 7.25622V12.2383L10.6657 14.7294V12.9118L13.3326 11.3632V8.19861H13.3992Z"
    fill="#E5F3FF" />
</svg>