<svg xmlns="http://www.w3.org/2000/svg" width="20" height="21" viewBox="0 0 20 21" fill="none">
  <path fill-rule="evenodd" clip-rule="evenodd"
    d="M5.38462 0.958496C5.58863 0.958496 5.78429 1.03954 5.92854 1.1838C6.0728 1.32806 6.15385 1.52371 6.15385 1.72773V2.49696H13.8462V1.72773C13.8462 1.52371 13.9272 1.32806 14.0715 1.1838C14.2157 1.03954 14.4114 0.958496 14.6154 0.958496C14.8194 0.958496 15.0151 1.03954 15.1593 1.1838C15.3036 1.32806 15.3846 1.52371 15.3846 1.72773V2.49696H17.6923C18.3043 2.49696 18.8913 2.74009 19.3241 3.17287C19.7569 3.60564 20 4.19261 20 4.80465V18.6508C20 19.2628 19.7569 19.8498 19.3241 20.2826C18.8913 20.7154 18.3043 20.9585 17.6923 20.9585H2.30769C1.69565 20.9585 1.10868 20.7154 0.675907 20.2826C0.243131 19.8498 0 19.2628 0 18.6508V4.80465C0 4.19261 0.243131 3.60564 0.675907 3.17287C1.10868 2.74009 1.69565 2.49696 2.30769 2.49696H4.61538V1.72773C4.61538 1.52371 4.69643 1.32806 4.84069 1.1838C4.98495 1.03954 5.1806 0.958496 5.38462 0.958496ZM13.8462 4.03542V4.80465C13.8462 5.00866 13.9272 5.20432 14.0715 5.34858C14.2157 5.49284 14.4114 5.57388 14.6154 5.57388C14.8194 5.57388 15.0151 5.49284 15.1593 5.34858C15.3036 5.20432 15.3846 5.00866 15.3846 4.80465V4.03542H17.6923C17.8963 4.03542 18.092 4.11646 18.2362 4.26072C18.3805 4.40498 18.4615 4.60064 18.4615 4.80465V7.11234H1.53846V4.80465C1.53846 4.60064 1.61951 4.40498 1.76376 4.26072C1.90802 4.11646 2.10368 4.03542 2.30769 4.03542H4.61538V4.80465C4.61538 5.00866 4.69643 5.20432 4.84069 5.34858C4.98495 5.49284 5.1806 5.57388 5.38462 5.57388C5.58863 5.57388 5.78429 5.49284 5.92854 5.34858C6.0728 5.20432 6.15385 5.00866 6.15385 4.80465V4.03542H13.8462ZM1.53846 8.6508V18.6508C1.53846 18.8548 1.61951 19.0505 1.76376 19.1947C1.90802 19.339 2.10368 19.42 2.30769 19.42H17.6923C17.8963 19.42 18.092 19.339 18.2362 19.1947C18.3805 19.0505 18.4615 18.8548 18.4615 18.6508V8.6508H1.53846ZM9.23077 10.9585C9.23077 10.7545 9.31181 10.5588 9.45607 10.4146C9.60033 10.2703 9.79599 10.1893 10 10.1893C10.204 10.1893 10.3997 10.2703 10.5439 10.4146C10.6882 10.5588 10.7692 10.7545 10.7692 10.9585C10.7692 11.1625 10.6882 11.3582 10.5439 11.5024C10.3997 11.6467 10.204 11.7277 10 11.7277C9.79599 11.7277 9.60033 11.6467 9.45607 11.5024C9.31181 11.3582 9.23077 11.1625 9.23077 10.9585ZM13.0769 10.1893C12.8729 10.1893 12.6773 10.2703 12.533 10.4146C12.3887 10.5588 12.3077 10.7545 12.3077 10.9585C12.3077 11.1625 12.3887 11.3582 12.533 11.5024C12.6773 11.6467 12.8729 11.7277 13.0769 11.7277C13.2809 11.7277 13.4766 11.6467 13.6209 11.5024C13.7651 11.3582 13.8462 11.1625 13.8462 10.9585C13.8462 10.7545 13.7651 10.5588 13.6209 10.4146C13.4766 10.2703 13.2809 10.1893 13.0769 10.1893ZM15.3846 10.9585C15.3846 10.7545 15.4657 10.5588 15.6099 10.4146C15.7542 10.2703 15.9498 10.1893 16.1538 10.1893C16.3579 10.1893 16.5535 10.2703 16.6978 10.4146C16.842 10.5588 16.9231 10.7545 16.9231 10.9585C16.9231 11.1625 16.842 11.3582 16.6978 11.5024C16.5535 11.6467 16.3579 11.7277 16.1538 11.7277C15.9498 11.7277 15.7542 11.6467 15.6099 11.5024C15.4657 11.3582 15.3846 11.1625 15.3846 10.9585ZM16.1538 13.2662C15.9498 13.2662 15.7542 13.3472 15.6099 13.4915C15.4657 13.6357 15.3846 13.8314 15.3846 14.0354C15.3846 14.2394 15.4657 14.4351 15.6099 14.5793C15.7542 14.7236 15.9498 14.8047 16.1538 14.8047C16.3579 14.8047 16.5535 14.7236 16.6978 14.5793C16.842 14.4351 16.9231 14.2394 16.9231 14.0354C16.9231 13.8314 16.842 13.6357 16.6978 13.4915C16.5535 13.3472 16.3579 13.2662 16.1538 13.2662ZM12.3077 14.0354C12.3077 13.8314 12.3887 13.6357 12.533 13.4915C12.6773 13.3472 12.8729 13.2662 13.0769 13.2662C13.2809 13.2662 13.4766 13.3472 13.6209 13.4915C13.7651 13.6357 13.8462 13.8314 13.8462 14.0354C13.8462 14.2394 13.7651 14.4351 13.6209 14.5793C13.4766 14.7236 13.2809 14.8047 13.0769 14.8047C12.8729 14.8047 12.6773 14.7236 12.533 14.5793C12.3887 14.4351 12.3077 14.2394 12.3077 14.0354ZM10 13.2662C9.79599 13.2662 9.60033 13.3472 9.45607 13.4915C9.31181 13.6357 9.23077 13.8314 9.23077 14.0354C9.23077 14.2394 9.31181 14.4351 9.45607 14.5793C9.60033 14.7236 9.79599 14.8047 10 14.8047C10.204 14.8047 10.3997 14.7236 10.5439 14.5793C10.6882 14.4351 10.7692 14.2394 10.7692 14.0354C10.7692 13.8314 10.6882 13.6357 10.5439 13.4915C10.3997 13.3472 10.204 13.2662 10 13.2662ZM6.15385 14.0354C6.15385 13.8314 6.23489 13.6357 6.37915 13.4915C6.52341 13.3472 6.71906 13.2662 6.92308 13.2662C7.12709 13.2662 7.32275 13.3472 7.46701 13.4915C7.61126 13.6357 7.69231 13.8314 7.69231 14.0354C7.69231 14.2394 7.61126 14.4351 7.46701 14.5793C7.32275 14.7236 7.12709 14.8047 6.92308 14.8047C6.71906 14.8047 6.52341 14.7236 6.37915 14.5793C6.23489 14.4351 6.15385 14.2394 6.15385 14.0354ZM3.84615 13.2662C3.64214 13.2662 3.44648 13.3472 3.30223 13.4915C3.15797 13.6357 3.07692 13.8314 3.07692 14.0354C3.07692 14.2394 3.15797 14.4351 3.30223 14.5793C3.44648 14.7236 3.64214 14.8047 3.84615 14.8047C4.05017 14.8047 4.24582 14.7236 4.39008 14.5793C4.53434 14.4351 4.61538 14.2394 4.61538 14.0354C4.61538 13.8314 4.53434 13.6357 4.39008 13.4915C4.24582 13.3472 4.05017 13.2662 3.84615 13.2662ZM3.07692 17.1123C3.07692 16.9083 3.15797 16.7127 3.30223 16.5684C3.44648 16.4242 3.64214 16.3431 3.84615 16.3431C4.05017 16.3431 4.24582 16.4242 4.39008 16.5684C4.53434 16.7127 4.61538 16.9083 4.61538 17.1123C4.61538 17.3164 4.53434 17.512 4.39008 17.6563C4.24582 17.8005 4.05017 17.8816 3.84615 17.8816C3.64214 17.8816 3.44648 17.8005 3.30223 17.6563C3.15797 17.512 3.07692 17.3164 3.07692 17.1123ZM6.92308 16.3431C6.71906 16.3431 6.52341 16.4242 6.37915 16.5684C6.23489 16.7127 6.15385 16.9083 6.15385 17.1123C6.15385 17.3164 6.23489 17.512 6.37915 17.6563C6.52341 17.8005 6.71906 17.8816 6.92308 17.8816C7.12709 17.8816 7.32275 17.8005 7.46701 17.6563C7.61126 17.512 7.69231 17.3164 7.69231 17.1123C7.69231 16.9083 7.61126 16.7127 7.46701 16.5684C7.32275 16.4242 7.12709 16.3431 6.92308 16.3431ZM9.23077 17.1123C9.23077 16.9083 9.31181 16.7127 9.45607 16.5684C9.60033 16.4242 9.79599 16.3431 10 16.3431C10.204 16.3431 10.3997 16.4242 10.5439 16.5684C10.6882 16.7127 10.7692 16.9083 10.7692 17.1123C10.7692 17.3164 10.6882 17.512 10.5439 17.6563C10.3997 17.8005 10.204 17.8816 10 17.8816C9.79599 17.8816 9.60033 17.8005 9.45607 17.6563C9.31181 17.512 9.23077 17.3164 9.23077 17.1123ZM13.0769 16.3431C12.8729 16.3431 12.6773 16.4242 12.533 16.5684C12.3887 16.7127 12.3077 16.9083 12.3077 17.1123C12.3077 17.3164 12.3887 17.512 12.533 17.6563C12.6773 17.8005 12.8729 17.8816 13.0769 17.8816C13.2809 17.8816 13.4766 17.8005 13.6209 17.6563C13.7651 17.512 13.8462 17.3164 13.8462 17.1123C13.8462 16.9083 13.7651 16.7127 13.6209 16.5684C13.4766 16.4242 13.2809 16.3431 13.0769 16.3431Z"
    fill="#D0DCE7" />
</svg>