<svg xmlns="http://www.w3.org/2000/svg" width="25" height="25" viewBox="0 0 25 25" fill="none">
  <path
    d="M22.3328 18.4374H18.5098C19.7103 17.0242 20.3677 15.2293 20.364 13.3749C20.3656 12.1093 20.0616 10.862 19.478 9.73889C18.8944 8.61581 18.0484 7.65018 17.0118 6.92401C15.9752 6.19783 14.7786 5.73257 13.5237 5.56772C12.2689 5.40288 10.9927 5.54333 9.80375 5.97715C8.61477 6.41097 7.54805 7.12534 6.69419 8.05959C5.84033 8.99383 5.22457 10.1203 4.89919 11.3435C4.57381 12.5666 4.54843 13.8502 4.82521 15.0852C5.10199 16.3202 5.67275 17.4702 6.48901 18.4374H2.6661C2.52863 18.4396 2.3974 18.4952 2.30019 18.5924C2.20298 18.6896 2.14741 18.8208 2.14526 18.9583C2.14526 19.0964 2.20014 19.2289 2.29781 19.3266C2.39549 19.4242 2.52796 19.4791 2.6661 19.4791H22.3328C22.4709 19.4791 22.6034 19.4242 22.701 19.3266C22.7987 19.2289 22.8536 19.0964 22.8536 18.9583C22.8514 18.8208 22.7959 18.6896 22.6987 18.5924C22.6015 18.4952 22.4702 18.4396 22.3328 18.4374ZM17.0932 18.4374H7.93693C6.9138 17.5146 6.19427 16.3034 5.87313 14.9635C5.55199 13.6235 5.64431 12.2178 6.13793 10.9314C6.63156 9.64496 7.50332 8.53828 8.63836 7.75713C9.7734 6.97598 11.1185 6.55703 12.4963 6.55546C13.8742 6.55389 15.2202 6.96978 16.357 7.74834C17.4938 8.5269 18.3681 9.63159 18.8647 10.9169C19.3612 12.2021 19.4567 13.6077 19.1386 14.9483C18.8206 16.289 18.1038 17.5018 17.0828 18.427L17.0932 18.4374Z"
    fill="#D0DCE7" />
  <path
    d="M14.5829 14.5469C14.5824 14.9721 14.421 15.3813 14.1312 15.6924C13.8413 16.0035 13.4445 16.1934 13.0204 16.224V16.901C13.0197 16.9683 13.0056 17.0347 12.9789 17.0964C12.9523 17.1582 12.9136 17.214 12.865 17.2605C12.8165 17.3071 12.7592 17.3435 12.6965 17.3676C12.6337 17.3918 12.5667 17.4031 12.4995 17.401C12.3642 17.4036 12.2334 17.3523 12.1358 17.2586C12.0382 17.1649 11.9817 17.0363 11.9787 16.901V16.2344H11.1349C10.9968 16.2344 10.8643 16.1795 10.7667 16.0818C10.669 15.9841 10.6141 15.8517 10.6141 15.7135C10.6163 15.5761 10.6718 15.4448 10.769 15.3476C10.8662 15.2504 10.9975 15.1949 11.1349 15.1927H12.8954C12.9803 15.1931 13.0645 15.1767 13.143 15.1444C13.2215 15.1121 13.2929 15.0645 13.353 15.0045C13.413 14.9444 13.4606 14.8731 13.4929 14.7945C13.5252 14.716 13.5416 14.6318 13.5412 14.5469C13.5404 14.3758 13.4721 14.212 13.3511 14.0911C13.2302 13.9702 13.0664 13.9019 12.8954 13.901H12.1141C11.6805 13.8986 11.2644 13.7292 10.9525 13.4279C10.6406 13.1266 10.4568 12.7167 10.4394 12.2834C10.4219 11.8501 10.5722 11.4268 10.8589 11.1014C11.1456 10.776 11.5466 10.5737 11.9787 10.5365V9.85937C11.9817 9.72408 12.0382 9.5955 12.1358 9.50178C12.2334 9.40807 12.3642 9.35686 12.4995 9.35937C12.5667 9.35729 12.6337 9.36865 12.6965 9.39277C12.7592 9.4169 12.8165 9.45332 12.865 9.49989C12.9136 9.54646 12.9523 9.60224 12.9789 9.66397C13.0056 9.7257 13.0197 9.79213 13.0204 9.85937V10.526H13.8641C14.0022 10.526 14.1347 10.5809 14.2324 10.6786C14.3301 10.7763 14.3849 10.9087 14.3849 11.0469C14.3849 11.185 14.3301 11.3175 14.2324 11.4152C14.1347 11.5128 14.0022 11.5677 13.8641 11.5677H12.1141C11.9428 11.5677 11.7786 11.6357 11.6574 11.7569C11.5363 11.878 11.4683 12.0423 11.4683 12.2135C11.4683 12.3848 11.5363 12.5491 11.6574 12.6702C11.7786 12.7913 11.9428 12.8594 12.1141 12.8594H12.8954C13.3424 12.861 13.7707 13.0393 14.0868 13.3555C14.4029 13.6716 14.5812 14.0998 14.5829 14.5469Z"
    fill="#D0DCE7" />
</svg>