<svg width="18" height="18" viewBox="0 0 18 18" fill="none" xmlns="http://www.w3.org/2000/svg">
  <g opacity="0.4">
    <path
      d="M8.13 10.1549H7.005C6.1425 10.1549 5.445 9.4349 5.445 8.5424C5.445 8.2349 5.7 7.9799 6.0075 7.9799C6.315 7.9799 6.57 8.2349 6.57 8.5424C6.57 8.8124 6.765 9.0299 7.005 9.0299H8.13C8.3025 9.0299 8.4375 8.8724 8.4375 8.6774C8.4375 8.4149 8.3925 8.3999 8.22 8.3399L6.4125 7.7099C5.76 7.4849 5.4375 7.0274 5.4375 6.3149C5.4375 5.5049 6.0825 4.8374 6.87 4.8374H7.995C8.8575 4.8374 9.555 5.5574 9.555 6.4499C9.555 6.7574 9.3 7.0124 8.9925 7.0124C8.685 7.0124 8.43 6.7574 8.43 6.4499C8.43 6.1799 8.235 5.9624 7.995 5.9624H6.87C6.6975 5.9624 6.5625 6.1199 6.5625 6.3149C6.5625 6.5774 6.6075 6.5924 6.78 6.6524L8.5875 7.2824C9.24 7.5149 9.555 7.9724 9.555 8.6774C9.5625 9.4949 8.9175 10.1549 8.13 10.1549Z"
      fill="#E5F3FF" />
    <path
      d="M7.5 10.755C7.1925 10.755 6.9375 10.5 6.9375 10.1925V9.63745C6.9375 9.32995 7.1925 9.07495 7.5 9.07495C7.8075 9.07495 8.0625 9.32995 8.0625 9.63745V10.1925C8.0625 10.5075 7.8075 10.755 7.5 10.755Z"
      fill="#E5F3FF" />
    <path
      d="M7.5 5.95512C7.1925 5.95512 6.9375 5.70012 6.9375 5.39262V4.80762C6.9375 4.50012 7.1925 4.24512 7.5 4.24512C7.8075 4.24512 8.0625 4.50012 8.0625 4.80762V5.39262C8.0625 5.70012 7.8075 5.95512 7.5 5.95512Z"
      fill="#E5F3FF" />
    <path
      d="M7.4925 14.0399C3.8775 14.0399 0.9375 11.0999 0.9375 7.48493C0.9375 3.86993 3.8775 0.929932 7.4925 0.929932C11.1075 0.929932 14.0475 3.86993 14.0475 7.48493C14.0475 11.0999 11.1 14.0399 7.4925 14.0399ZM7.4925 2.06243C4.5 2.06243 2.0625 4.49993 2.0625 7.49243C2.0625 10.4849 4.5 12.9149 7.4925 12.9149C10.485 12.9149 12.9225 10.4774 12.9225 7.48493C12.9225 4.49243 10.485 2.06243 7.4925 2.06243Z"
      fill="#E5F3FF" />
    <path
      d="M12.765 17.04C11.3775 17.04 10.0725 16.365 9.26999 15.225C9.08999 14.97 9.14999 14.6175 9.40499 14.4375C9.65999 14.2575 10.0125 14.3175 10.1925 14.5725C10.785 15.4125 11.745 15.9075 12.765 15.9075C14.505 15.9075 15.915 14.4975 15.915 12.7575C15.915 11.745 15.42 10.785 14.595 10.1925C14.34 10.0125 14.2875 9.65997 14.4675 9.40497C14.6475 9.14997 15 9.09747 15.255 9.27747C16.3725 10.08 17.04 11.3775 17.04 12.7575C17.04 15.1275 15.1275 17.04 12.765 17.04Z"
      fill="#E5F3FF" />
  </g>
</svg>