<svg xmlns="http://www.w3.org/2000/svg" width="20" height="20" viewBox="0 0 20 20" fill="none">
  <path
    d="M5.31249 0.976929C4.66796 0.976929 4.08983 1.10974 3.6996 1.30505C3.31288 1.50037 3.16444 1.71912 3.16444 1.87537C3.16444 2.02771 3.31288 2.25076 3.6996 2.44177C4.08983 2.63708 4.66796 2.7738 5.31249 2.7738C5.95702 2.7738 6.53515 2.63708 6.92186 2.44177C7.31249 2.25076 7.46093 2.02771 7.46093 1.87537C7.46093 1.71912 7.31249 1.50037 6.92186 1.30505C6.53515 1.10974 5.95702 0.976929 5.31249 0.976929ZM11.5625 2.22693C10.918 2.22693 10.3398 2.35974 9.95311 2.55505C9.56249 2.75037 9.41405 2.96912 9.41405 3.12537C9.41405 3.27771 9.56249 3.50076 9.95311 3.69177C10.3398 3.88708 10.918 4.02341 11.5625 4.02341C11.7422 4.02341 11.9141 4.01169 12.0781 3.99216C12.2461 3.77771 12.4844 3.58748 12.7617 3.46091C13.082 3.31638 13.4531 3.19919 13.7109 3.12537C13.7109 2.96912 13.5625 2.75037 13.1719 2.55505C12.7851 2.35974 12.207 2.22693 11.5625 2.22693ZM3.16444 2.94529C3.14882 3.51794 3.76913 3.75154 4.16015 3.86716C4.85936 4.07029 5.76561 4.07029 6.46483 3.86716C6.96483 3.72419 7.45702 3.44841 7.46093 2.94529C6.83202 3.36052 5.91405 3.47224 5.31249 3.47654C4.55077 3.41287 3.75077 3.33396 3.16444 2.94529ZM14.6875 3.76208C14.043 3.76208 13.4648 3.8949 13.0781 4.09373C12.6875 4.28513 12.5391 4.50779 12.5391 4.66013C12.5391 4.81638 12.6875 5.03513 13.0781 5.23044C13.4648 5.42576 14.043 5.55857 14.6875 5.55857C15.332 5.55857 15.9101 5.42576 16.2969 5.23044C16.6875 5.03513 16.8359 4.81638 16.8359 4.66013C16.8359 4.50779 16.6875 4.28513 16.2969 4.09373C15.9101 3.8949 15.332 3.76208 14.6875 3.76208ZM9.41405 4.19529V4.28904C9.52733 4.3281 9.63671 4.37498 9.73827 4.42576C10.0898 4.60154 10.3945 4.84763 10.5508 5.15623C10.9492 5.25388 11.3984 5.28904 11.8359 5.26169V4.71873C11.7461 4.72263 11.6562 4.72654 11.5625 4.72654C10.8242 4.72654 10.1523 4.58201 9.63671 4.32419C9.55858 4.28513 9.48436 4.24216 9.41405 4.19529ZM3.16444 4.19919C3.15116 4.76951 3.77069 5.00388 4.16015 5.12107C4.42577 5.19529 4.72265 5.24607 5.02733 5.26169C5.10546 5.05857 5.24608 4.87888 5.42577 4.72654C4.92577 4.73826 4.42186 4.67576 3.96483 4.54685C3.66054 4.45701 3.39101 4.34373 3.16444 4.19919ZM7.81249 4.72654C7.16796 4.72654 6.58983 4.86326 6.20311 5.05466C5.81249 5.24998 5.66405 5.46873 5.66405 5.62498C5.66405 5.78123 5.81249 5.99998 6.20311 6.19529C6.58983 6.3906 7.16796 6.52341 7.81249 6.52341C8.45702 6.52341 9.03515 6.3906 9.42186 6.19529C9.81249 5.99998 9.96093 5.78123 9.96093 5.62498C9.96093 5.46873 9.81249 5.24998 9.42186 5.05466C9.03515 4.86326 8.45702 4.72654 7.81249 4.72654ZM3.16444 5.44919C3.15116 6.01951 3.77069 6.25388 4.16015 6.37107C4.40624 6.44138 4.67968 6.48826 4.96093 6.50779V5.96873C4.61718 5.94529 4.28124 5.88669 3.96483 5.79685C3.66054 5.70701 3.39101 5.59373 3.16444 5.44919ZM12.5391 5.73435C12.5312 6.30857 13.1406 6.53904 13.5351 6.65623C14.2344 6.85935 15.1406 6.85935 15.8398 6.65623C16.3359 6.51169 16.832 6.23826 16.8359 5.73435C16.7656 5.77732 16.6914 5.82029 16.6133 5.85935C16.0976 6.11716 15.4258 6.26169 14.6875 6.26169C13.9492 6.26169 13.2773 6.11716 12.7617 5.85935C12.6836 5.82029 12.6094 5.77732 12.5391 5.73435ZM10.6641 5.89841V6.43357C11.0312 6.50779 11.4414 6.53513 11.8359 6.51169V5.97263C11.4414 5.99216 11.043 5.96873 10.6641 5.89841ZM5.66405 6.69529C5.64452 6.92966 5.74999 7.12107 5.8789 7.23435C6.04296 7.37498 6.30858 7.51951 6.66015 7.62107C7.35936 7.82029 8.26561 7.82029 8.96483 7.62107C9.3164 7.51951 9.58202 7.37498 9.74608 7.23435C9.93749 7.07419 9.96093 6.91794 9.96093 6.69529C9.89061 6.74216 9.8164 6.78513 9.73827 6.82419C9.22265 7.08201 8.55077 7.22654 7.81249 7.22654C7.07421 7.22654 6.40233 7.08201 5.88671 6.82419C5.80858 6.78513 5.73436 6.74216 5.66405 6.69529ZM3.16444 6.69919C3.15116 7.26951 3.77069 7.50388 4.16015 7.62107C4.40624 7.69138 4.67968 7.73826 4.96093 7.75779V7.21873C4.61718 7.19529 4.28124 7.13669 3.96483 7.04685C3.66054 6.95701 3.39101 6.84373 3.16444 6.69919ZM12.5391 6.98435C12.5312 7.55857 13.1406 7.78904 13.5351 7.90623C14.2344 8.10935 15.1406 8.10935 15.8398 7.90623C16.3359 7.76169 16.832 7.48826 16.8359 6.98435C16.6094 7.12888 16.3398 7.24216 16.0351 7.33201C15.1875 7.5781 14.1875 7.5781 13.3398 7.33201C13.0351 7.24216 12.7656 7.12888 12.5391 6.98435ZM10.6641 7.14841V7.68357C11.0312 7.75779 11.4414 7.78513 11.8359 7.76169V7.22263C11.4414 7.24216 11.043 7.21873 10.6641 7.14841ZM3.16444 7.94919C3.15116 8.51951 3.77069 8.75388 4.16015 8.87107C4.40624 8.94138 4.67968 8.98826 4.96093 9.00779V8.46873C4.61718 8.44529 4.28124 8.38669 3.96483 8.29685C3.66054 8.20701 3.39101 8.09373 3.16444 7.94919ZM5.66405 7.94919C5.64452 8.18357 5.74999 8.37107 5.8789 8.48435C6.04296 8.62498 6.30858 8.76951 6.66015 8.87107C7.35936 9.07029 8.26561 9.07029 8.96483 8.87107C9.3164 8.76951 9.58202 8.62498 9.74608 8.48435C9.93749 8.32419 9.96093 8.17185 9.96093 7.94919C9.73436 8.09373 9.46483 8.20701 9.16015 8.29685C8.31249 8.53904 7.31249 8.53904 6.46483 8.29685C6.16015 8.20701 5.89061 8.09373 5.66405 7.94919ZM12.5391 8.23435C12.5312 8.80857 13.1406 9.03904 13.5351 9.15623C14.2344 9.35935 15.1406 9.35935 15.8398 9.15623C16.3359 9.01169 16.832 8.73826 16.8359 8.23435C16.6094 8.37888 16.3398 8.49216 16.0351 8.58201C15.1875 8.8281 14.1875 8.8281 13.3398 8.58201C13.0351 8.49216 12.7656 8.37888 12.5391 8.23435ZM10.6641 8.39841V8.93357C11.0312 9.00779 11.4414 9.03513 11.8359 9.01169V8.47263C11.4414 8.49216 11.043 8.46873 10.6641 8.39841ZM5.66405 9.19919V9.28904C5.77733 9.3281 5.88671 9.37498 5.98827 9.42576C6.33983 9.60154 6.64452 9.84763 6.80077 10.1562C7.47655 10.3203 8.31249 10.3086 8.96483 10.1211C9.3164 10.0195 9.58202 9.87498 9.74608 9.73435C9.93749 9.57419 9.96093 9.42185 9.96093 9.19919C9.73436 9.34373 9.46483 9.45701 9.16015 9.54685C8.31249 9.78904 7.31249 9.78904 6.46483 9.54685C6.16015 9.45701 5.89061 9.34373 5.66405 9.19919ZM12.5391 9.48435C12.5312 10.0586 13.1406 10.289 13.5351 10.4062C14.2344 10.6094 15.1406 10.6094 15.8398 10.4062C16.3359 10.2617 16.832 9.98826 16.8359 9.48435C16.6094 9.62888 16.3398 9.74216 16.0351 9.83201C15.1875 10.0781 14.1875 10.0781 13.3398 9.83201C13.0351 9.74216 12.7656 9.62888 12.5391 9.48435ZM10.6641 9.64841V10.1836C11.0312 10.2578 11.4414 10.2851 11.8359 10.2617V9.72263C11.4414 9.74216 11.043 9.71873 10.6641 9.64841ZM4.06249 9.72654C3.41835 9.72654 2.84022 9.86326 2.4496 10.0547C2.06288 10.25 1.91444 10.4687 1.91444 10.625C1.91444 10.7812 2.06288 11 2.4496 11.1953C2.84022 11.3906 3.41835 11.5234 4.06249 11.5234C4.70702 11.5234 5.28515 11.3906 5.67186 11.1953C6.06249 11 6.21093 10.7812 6.21093 10.625C6.21093 10.4687 6.06249 10.25 5.67186 10.0547C5.28515 9.86326 4.70702 9.72654 4.06249 9.72654ZM9.96093 10.4492C9.73436 10.5937 9.46483 10.707 9.16015 10.7969C8.45702 10.9961 7.65233 11.0312 6.91405 10.8984V11.4336C7.5703 11.5703 8.34765 11.5469 8.96483 11.3711C9.45702 11.2265 9.95702 10.9492 9.96093 10.4492ZM12.5391 10.7344C12.5273 11.289 13.1133 11.5273 13.5 11.6445C13.7187 11.4687 13.918 11.3359 14.1523 11.2383C13.8711 11.207 13.5976 11.1562 13.3398 11.082C13.0351 10.9922 12.7656 10.8789 12.5391 10.7344ZM16.8359 10.7344C16.7266 10.8047 16.6055 10.8672 16.4726 10.9258C16.5937 10.9375 16.7148 10.9531 16.8281 10.9726C16.8437 10.8945 16.8359 10.8164 16.8359 10.7344ZM10.6641 10.8984V11.4297C11.0898 11.5117 11.4453 11.5312 11.8359 11.5156V10.9726C11.4414 10.9922 11.043 10.9687 10.6641 10.8984ZM15.9375 11.6015C15.293 11.6015 14.7148 11.7383 14.3281 11.9297C13.9375 12.125 13.7891 12.3437 13.7891 12.5C13.7891 12.6562 13.9375 12.875 14.3281 13.0703C14.7148 13.2656 15.293 13.3984 15.9375 13.3984C16.582 13.3984 17.1601 13.2656 17.5469 13.0703C17.9375 12.875 18.0859 12.6562 18.0859 12.5C18.0859 12.3437 17.9375 12.125 17.5469 11.9297C17.1601 11.7383 16.582 11.6015 15.9375 11.6015ZM1.91444 11.6953C1.90311 12.2734 2.51249 12.5039 2.91054 12.6211C3.60976 12.8203 4.51561 12.8203 5.21483 12.6211C5.71093 12.4765 6.20702 12.1992 6.21093 11.6953C6.14061 11.7422 6.0664 11.7851 5.98827 11.8242C5.47265 12.082 4.80077 12.2265 4.06249 12.2265C3.29647 12.164 2.50468 12.0859 1.91444 11.6953ZM9.96093 11.6992C9.73436 11.8437 9.46483 11.957 9.16015 12.0469C8.45702 12.2461 7.65233 12.2812 6.91405 12.1484V12.6836C7.5703 12.8203 8.34765 12.7969 8.96483 12.6211C9.45702 12.4765 9.95702 12.1992 9.96093 11.6992ZM12.5391 11.9844C12.5234 12.3867 12.8516 12.6133 13.0781 12.7304C13.0781 12.7304 13.082 12.7344 13.0859 12.7344V12.25C12.8828 12.1758 12.6992 12.0859 12.5391 11.9844ZM1.91444 12.9492C1.90116 13.5195 2.52069 13.7539 2.91054 13.8711C3.60976 14.0703 4.51561 14.0703 5.21483 13.8711C5.70702 13.7265 6.20702 13.4492 6.21093 12.9492C5.98436 13.0937 5.71483 13.207 5.41015 13.2969C4.56249 13.539 3.56288 13.539 2.71522 13.2969C2.41054 13.207 2.141 13.0937 1.91444 12.9492ZM6.91405 13.3984V13.9297C7.10546 13.9726 7.31249 14 7.52733 14.0156C7.60546 13.8086 7.74608 13.6289 7.92577 13.4765C7.58593 13.4844 7.24218 13.457 6.91405 13.3984ZM10.3125 13.4765C9.66796 13.4765 9.08983 13.6133 8.70311 13.8047C8.31249 14 8.16405 14.2187 8.16405 14.375C8.16405 14.5312 8.31249 14.75 8.70311 14.9453C9.08983 15.1406 9.66796 15.2734 10.3125 15.2734C10.957 15.2734 11.5351 15.1406 11.9219 14.9453C12.3125 14.75 12.4609 14.5312 12.4609 14.375C12.4609 14.2187 12.3125 14 11.9219 13.8047C11.5351 13.6133 10.957 13.4765 10.3125 13.4765ZM13.7891 13.5703C13.7851 14.1484 14.3828 14.3789 14.7851 14.4961C15.4844 14.6953 16.3906 14.6953 17.0898 14.4961C17.5859 14.3515 18.082 14.0742 18.0859 13.5703C17.4687 13.9453 16.5351 14.0976 15.9375 14.1015C15.1719 14.039 14.3789 13.9609 13.7891 13.5703ZM1.91444 14.1992C1.90116 14.7695 2.52069 15.0039 2.91054 15.1211C3.60976 15.3203 4.51561 15.3203 5.21483 15.1211C5.70702 14.9765 6.20702 14.6992 6.21093 14.1992C5.98436 14.3437 5.71483 14.457 5.41015 14.5469C4.56249 14.789 3.56288 14.789 2.71522 14.5469C2.41054 14.457 2.141 14.3437 1.91444 14.1992ZM13.7891 14.8242C13.7812 15.3984 14.3906 15.6289 14.7851 15.7461C15.4844 15.9453 16.3906 15.9453 17.0898 15.7461C17.582 15.6015 18.082 15.3242 18.0859 14.8242C17.8594 14.9687 17.5898 15.082 17.2851 15.1719C16.4375 15.414 15.4375 15.414 14.5898 15.1719C14.2851 15.082 14.0156 14.9687 13.7891 14.8242ZM8.16405 15.4453C8.14452 15.6797 8.24999 15.8711 8.3789 15.9844C8.54296 16.125 8.80858 16.2695 9.16015 16.3711C9.85936 16.5703 10.7656 16.5703 11.4648 16.3711C11.8164 16.2695 12.082 16.125 12.2461 15.9844C12.4101 15.8437 12.4609 15.7226 12.4609 15.625V15.4453C12.3906 15.4922 12.3164 15.5351 12.2383 15.5742C11.7226 15.832 11.0508 15.9765 10.3125 15.9765C9.57421 15.9765 8.90233 15.832 8.38671 15.5742C8.30858 15.5351 8.23436 15.4922 8.16405 15.4453ZM1.91444 15.4492C1.90116 16.0195 2.52069 16.2539 2.91054 16.3711C3.60976 16.5703 4.51561 16.5703 5.21483 16.3711C5.70702 16.2265 6.20702 15.9492 6.21093 15.4492C5.98436 15.5937 5.71483 15.707 5.41015 15.7969C4.56249 16.039 3.56288 16.039 2.71522 15.7969C2.41054 15.707 2.141 15.5937 1.91444 15.4492ZM13.7891 16.0742C13.7812 16.6484 14.3906 16.8789 14.7851 16.9961C15.4844 17.1953 16.3906 17.1953 17.0898 16.9961C17.582 16.8515 18.082 16.5742 18.0859 16.0742C17.8594 16.2187 17.5898 16.332 17.2851 16.4219C16.4375 16.664 15.4375 16.664 14.5898 16.4219C14.2851 16.332 14.0156 16.2187 13.7891 16.0742ZM1.91444 16.6992C1.90116 17.2695 2.52069 17.5039 2.91054 17.6211C3.60976 17.8203 4.51561 17.8203 5.21483 17.6211C5.70702 17.4765 6.20702 17.1992 6.21093 16.6992C5.98436 16.8437 5.71483 16.957 5.41015 17.0469C4.56249 17.289 3.56288 17.289 2.71522 17.0469C2.41054 16.957 2.141 16.8437 1.91444 16.6992ZM8.16405 16.6992C8.14843 17.1015 8.47655 17.3281 8.70311 17.4453C9.08983 17.6406 9.66796 17.7734 10.3125 17.7734C10.957 17.7734 11.5351 17.6406 11.9219 17.4453C12.3086 17.2031 12.4609 17.1094 12.4609 16.6992C12.2344 16.8437 11.9648 16.957 11.6601 17.0469C10.8125 17.289 9.81249 17.289 8.96483 17.0469C8.66015 16.957 8.39061 16.8437 8.16405 16.6992ZM13.7891 17.3242C13.7734 17.7265 14.1016 17.9531 14.3281 18.0703C14.7148 18.2656 15.293 18.3984 15.9375 18.3984C16.582 18.3984 17.1601 18.2656 17.5469 18.0703C17.9336 17.8281 18.0859 17.7344 18.0859 17.3242C17.8594 17.4687 17.5898 17.582 17.2851 17.6719C16.4375 17.914 15.4375 17.914 14.5898 17.6719C14.2851 17.582 14.0156 17.4687 13.7891 17.3242ZM1.91444 17.9492C1.89725 18.3476 2.22225 18.5781 2.4496 18.6953C2.84022 18.8906 3.41835 19.0234 4.06249 19.0234C4.70702 19.0234 5.28515 18.8906 5.67186 18.6953C6.05858 18.4531 6.21093 18.3594 6.21093 17.9492C5.98436 18.0937 5.71483 18.207 5.41015 18.2969C4.56249 18.539 3.56288 18.539 2.71522 18.2969C2.41054 18.207 2.141 18.0937 1.91444 17.9492Z"
    fill="#22C55C" />
</svg>