<svg width="15" height="15" viewBox="0 0 15 15" fill="none" xmlns="http://www.w3.org/2000/svg">
  <g clip-path="url(#clip0_1_1793)">
    <path
      d="M7.5 14.2188C11.2107 14.2188 14.2188 11.2107 14.2188 7.5C14.2188 3.78934 11.2107 0.78125 7.5 0.78125C3.78934 0.78125 0.78125 3.78934 0.78125 7.5C0.78125 11.2107 3.78934 14.2188 7.5 14.2188Z"
      stroke="#E5F3FF" stroke-opacity="0.4" stroke-width="0.666667" stroke-linecap="round"
      stroke-linejoin="round" />
    <path
      d="M6.54313 11.0938C6.27591 10.5943 6.17903 10.0212 6.26719 9.46161C6.26719 9.46161 5.16406 9.03661 4.98 8.80661C4.79594 8.57661 5.11781 8.24349 5.095 7.54224"
      stroke="#E5F3FF" stroke-opacity="0.4" stroke-width="0.666667" stroke-linecap="round"
      stroke-linejoin="round" />
    <path
      d="M5.45125 7.18591C5.60062 7.49216 4.76156 7.59966 4.70437 7.23185C4.64719 6.86404 5.34812 6.47341 5.3825 6.05966C5.41687 5.64591 5.91 3.71498 7.96844 3.92154C10.3706 4.1631 10.0947 6.61123 10.0603 7.05935C10.1691 7.17764 10.2445 7.32262 10.279 7.47954C10.3136 7.63646 10.3059 7.79973 10.2569 7.95273C10.2078 8.10574 10.1191 8.24302 9.99978 8.35061C9.88045 8.45821 9.73475 8.53228 9.5775 8.56529C9.44166 9.03902 9.44568 9.54191 9.58906 10.0134"
      stroke="#E5F3FF" stroke-opacity="0.4" stroke-width="0.666667" stroke-linecap="round"
      stroke-linejoin="round" />
  </g>
  <defs>
    <clipPath id="clip0_1_1793">
      <rect width="15" height="15" fill="white" />
    </clipPath>
  </defs>
</svg>