<svg xmlns="http://www.w3.org/2000/svg" width="60" height="61" viewBox="0 0 60 61" fill="none">
  <rect y="0.5" width="60" height="60" rx="30" fill="#1CBBED" />
  <path
    d="M15 23.207H23.2653C24.1837 23.207 24.9184 23.9713 24.9184 24.9267C24.9184 25.8822 24.1837 26.6465 23.2653 26.6465H15C15.3061 30.9777 18.7959 34.3535 23.0204 34.3535H23.3265C24.2449 34.3535 24.9796 35.1178 24.9796 36.0732C24.9796 37.0287 24.2449 37.793 23.3265 37.793H23.0204C18.7959 37.793 15.3061 41.1688 15 45.5H36.9796C41.2041 45.5 44.6939 42.1242 45 37.793H36.7347C35.8163 37.793 35.0816 37.0287 35.0816 36.0732C35.0816 35.1178 35.8163 34.3535 36.7347 34.3535H45C44.6939 30.0223 41.2041 26.6465 36.9796 26.6465H36.6735C35.7551 26.6465 35.0204 25.8822 35.0204 24.9267C35.0204 23.9713 35.7551 23.207 36.6735 23.207H36.9796C41.2041 23.207 44.6939 19.8312 45 15.5H23.0204C18.7959 15.5 15.3061 18.8758 15 23.207Z"
    fill="#0F3946" />
</svg>