<svg width="17" height="16" viewBox="0 0 17 16" fill="none" xmlns="http://www.w3.org/2000/svg">
  <g opacity="0.8">
    <path
      d="M4.82318 8.18665C4.54318 8.18665 4.2565 8.17332 3.9765 8.14665L1.86318 7.95331C1.58984 7.92664 1.38318 7.68664 1.40985 7.40664C1.43652 7.13331 1.66985 6.92664 1.95652 6.95331L4.06984 7.14665C7.33651 7.44665 10.5098 5.79332 12.1432 2.93998C12.2832 2.69998 12.5832 2.61998 12.8232 2.75332C13.0632 2.89332 13.1432 3.19331 13.0099 3.43331C11.3299 6.38664 8.17651 8.18665 4.82318 8.18665Z"
      fill="#E5F3FF" />
    <path
      d="M3.91017 13.4133C3.82351 13.4133 3.74351 13.3933 3.66351 13.3466C3.42351 13.2066 3.34349 12.9066 3.47682 12.6666C5.30349 9.47331 8.85019 7.61998 12.5102 7.95998L14.6235 8.15332C14.8968 8.17999 15.1035 8.41997 15.0768 8.69997C15.0502 8.9733 14.8168 9.17332 14.5302 9.15332L12.4168 8.95998C9.15018 8.65998 5.97686 10.3133 4.34352 13.1666C4.25019 13.3266 4.08351 13.4133 3.91017 13.4133Z"
      fill="#E5F3FF" />
    <path
      d="M8.24314 15.1667C4.28981 15.1667 1.07648 11.9534 1.07648 8.00004C1.07648 4.04671 4.28981 0.833374 8.24314 0.833374C12.1965 0.833374 15.4098 4.04671 15.4098 8.00004C15.4098 11.9534 12.1965 15.1667 8.24314 15.1667ZM8.24314 1.83337C4.84314 1.83337 2.07648 4.60004 2.07648 8.00004C2.07648 11.4 4.84314 14.1667 8.24314 14.1667C11.6431 14.1667 14.4098 11.4 14.4098 8.00004C14.4098 4.60004 11.6431 1.83337 8.24314 1.83337Z"
      fill="#E5F3FF" />
    <path
      d="M11.2234 14.4667C10.9968 14.4667 10.7968 14.3133 10.7368 14.0867L9.93015 10.76C9.41682 8.65334 8.43012 6.64666 7.06345 4.95332L4.94345 2.32C4.77012 2.10667 4.80344 1.79332 5.01678 1.61999C5.23011 1.44666 5.54348 1.48 5.71681 1.69333L7.83681 4.32666C9.29014 6.13332 10.3501 8.27333 10.8968 10.52L11.7035 13.8467C11.7701 14.1133 11.6035 14.3867 11.3368 14.4533C11.3035 14.46 11.2634 14.4667 11.2234 14.4667Z"
      fill="#E5F3FF" />
  </g>
</svg>