<svg width="30" height="30" viewBox="0 0 30 30" fill="none" xmlns="http://www.w3.org/2000/svg">
  <g clip-path="url(#clip0_1_1961)">
    <rect x="-0.000305176" width="30" height="30" rx="6" fill="#454E55" />
    <g filter="url(#filter0_d_1_1961)">
      <path
        d="M9.16636 17.5C8.38303 17.5 7.65803 17.775 7.08303 18.2333C6.31636 18.8417 5.83303 19.7833 5.83303 20.8333C5.83303 21.4583 6.00803 22.05 6.31637 22.55C6.89137 23.5167 7.9497 24.1667 9.16636 24.1667C10.008 24.1667 10.7747 23.8583 11.358 23.3333C11.6164 23.1167 11.8414 22.85 12.0164 22.55C12.3247 22.05 12.4997 21.4583 12.4997 20.8333C12.4997 18.9917 11.008 17.5 9.16636 17.5ZM10.8914 20.475L9.11637 22.1166C8.9997 22.225 8.84136 22.2833 8.69136 22.2833C8.53302 22.2833 8.37469 22.225 8.24969 22.1L7.4247 21.275C7.18303 21.0334 7.18303 20.6333 7.4247 20.3916C7.66637 20.15 8.06636 20.15 8.30803 20.3916L8.70803 20.7917L10.0414 19.5583C10.2914 19.325 10.6914 19.3417 10.9247 19.5917C11.158 19.8417 11.1414 20.2417 10.8914 20.475Z"
        fill="#D6EDFF" fill-opacity="0.6" />
      <path opacity="0.4"
        d="M21.233 15.7917H22.9164V14.5917C22.9164 12.8667 21.508 11.4584 19.783 11.4584H10.2164C8.49136 11.4584 7.08303 12.8667 7.08303 14.5917V18.2334C7.65803 17.775 8.38303 17.5 9.16636 17.5C11.008 17.5 12.4997 18.9917 12.4997 20.8334C12.4997 21.4584 12.3247 22.05 12.0164 22.55C11.8414 22.85 11.6164 23.1167 11.358 23.3334H19.783C21.508 23.3334 22.9164 21.925 22.9164 20.2V19.2084H21.333C20.433 19.2084 19.608 18.55 19.533 17.65C19.483 17.125 19.683 16.6334 20.033 16.2917C20.3414 15.975 20.7664 15.7917 21.233 15.7917Z"
        fill="#D6EDFF" fill-opacity="0.6" />
      <path
        d="M17.3747 8.29165V11.4583H10.2164C8.49136 11.4583 7.08303 12.8666 7.08303 14.5916V11.5333C7.08303 10.5417 7.69136 9.65829 8.61636 9.30829L15.233 6.80829C16.2664 6.42496 17.3747 7.18331 17.3747 8.29165Z"
        fill="#D6EDFF" fill-opacity="0.6" />
      <path
        d="M23.7997 16.6416V18.3583C23.7997 18.8166 23.433 19.1916 22.9664 19.2083H21.333C20.433 19.2083 19.608 18.5499 19.533 17.6499C19.483 17.1249 19.683 16.6333 20.033 16.2916C20.3414 15.9749 20.7664 15.7916 21.233 15.7916H22.9664C23.433 15.8083 23.7997 16.1833 23.7997 16.6416Z"
        fill="#D6EDFF" fill-opacity="0.6" />
      <path
        d="M16.6664 15.625H10.833C10.4914 15.625 10.208 15.3417 10.208 15C10.208 14.6583 10.4914 14.375 10.833 14.375H16.6664C17.008 14.375 17.2914 14.6583 17.2914 15C17.2914 15.3417 17.008 15.625 16.6664 15.625Z"
        fill="#D6EDFF" fill-opacity="0.6" />
    </g>
  </g>
  <defs>
    <filter id="filter0_d_1_1961" x="-9.00031" y="-5" width="48" height="48"
      filterUnits="userSpaceOnUse" color-interpolation-filters="sRGB">
      <feFlood flood-opacity="0" result="BackgroundImageFix" />
      <feColorMatrix in="SourceAlpha" type="matrix"
        values="0 0 0 0 0 0 0 0 0 0 0 0 0 0 0 0 0 0 127 0" result="hardAlpha" />
      <feOffset dy="4" />
      <feGaussianBlur stdDeviation="7" />
      <feColorMatrix type="matrix" values="0 0 0 0 0.839216 0 0 0 0 0.929412 0 0 0 0 1 0 0 0 0.1 0" />
      <feBlend mode="normal" in2="BackgroundImageFix" result="effect1_dropShadow_1_1961" />
      <feBlend mode="normal" in="SourceGraphic" in2="effect1_dropShadow_1_1961" result="shape" />
    </filter>
    <clipPath id="clip0_1_1961">
      <rect width="30" height="30" fill="white" transform="translate(-0.000305176)" />
    </clipPath>
  </defs>
</svg>