<svg xmlns="http://www.w3.org/2000/svg" width="70" height="60" viewBox="0 0 70 60" fill="none">
  <g clip-path="url(#clip0_4_8033)">
    <path
      d="M60.3813 60H8.65973C6.28018 60 4.24858 59.1629 2.56493 57.4888C0.881286 55.8147 0.039463 53.7946 0.039463 51.4286V17.1429C0.039463 15.9821 0.454762 14.9777 1.28536 14.1295C2.11596 13.2812 3.13737 12.8571 4.3496 12.8571H36.6756C36.6756 12.5446 36.9338 11.9196 37.4501 10.9821C37.9664 10.0446 38.4715 9.17411 38.9654 8.37054L39.7735 7.23214C40.0878 6.38393 40.7164 5.6808 41.6592 5.12277C42.602 4.56473 43.5898 4.28571 44.6224 4.28571H60.7854C61.8629 4.28571 62.8731 4.56473 63.816 5.12277C64.7588 5.6808 65.3874 6.38393 65.7016 7.23214C67.9016 10.0893 69.0016 11.9643 69.0016 12.8571V51.4286C69.0016 53.7946 68.1598 55.8147 66.4761 57.4888C64.7925 59.1629 62.7609 60 60.3813 60ZM43.1408 30C43.1408 27.6339 42.299 25.6138 40.6153 23.9397C38.9317 22.2656 36.9001 21.4286 34.5205 21.4286C32.141 21.4286 30.1094 22.2656 28.4257 23.9397C26.7421 25.6138 25.9003 27.6339 25.9003 30C25.9003 31.7411 26.4054 33.3371 27.4155 34.7879C28.4257 36.2388 29.739 37.2768 31.3553 37.9018L25.9003 51.4286H43.1408L37.6858 37.9018C39.3021 37.2768 40.6153 36.2388 41.6255 34.7879C42.6357 33.3371 43.1408 31.7411 43.1408 30ZM3.13737 2.94643C3.45165 2.09821 4.08021 1.39509 5.02306 0.837054C5.9659 0.279018 6.95364 0 7.98627 0H24.1493C25.2268 0 26.237 0.279018 27.1798 0.837054C28.1227 1.39509 28.7737 2.09821 29.1329 2.94643L32.3655 8.57143H0.039463L3.13737 2.94643Z"
      fill="url(#paint0_linear_4_8033)" />
  </g>
  <defs>
    <linearGradient id="paint0_linear_4_8033" x1="34.5205" y1="-3.45092e-06" x2="124.512"
      y2="29.2739" gradientUnits="userSpaceOnUse">
      <stop stop-color="#05D2FF" />
      <stop offset="0.609375" stop-color="#253FE0" stop-opacity="0.619792" />
      <stop offset="1" stop-color="#060ED0" stop-opacity="0.28" />
    </linearGradient>
    <clipPath id="clip0_4_8033">
      <rect width="69.0411" height="60" fill="white" />
    </clipPath>
  </defs>
</svg>