<svg width="32" height="33" viewBox="0 0 32 33" fill="none" xmlns="http://www.w3.org/2000/svg">
<rect width="32" height="33" fill="#1E1E1E"/>
<g id="launchpad" clip-path="url(#clip0_0_1)">
<rect width="1588" height="7464" transform="translate(-1302 -5750)" fill="#12171E"/>
</g>
<g id="Group 427321170">
<g id="Component 121">
<g id="Component 117">
<g id="Group">
<path id="Vector" d="M16 32.3965C24.8366 32.3965 32 25.233 32 16.3965C32 7.55993 24.8366 0.396484 16 0.396484C7.16344 0.396484 0 7.55993 0 16.3965C0 25.233 7.16344 32.3965 16 32.3965Z" fill="#6F41D8"/>
<path id="Vector_2" d="M21.0921 13.0895C20.7231 12.8745 20.2441 12.8745 19.8381 13.0895L16.9591 14.7435L15.0041 15.8215L12.1251 17.4745C11.7561 17.6905 11.2771 17.6905 10.8711 17.4745L8.58306 16.1805C8.21406 15.9655 7.95606 15.5705 7.95606 15.1385V12.5865C7.95606 12.1555 8.17706 11.7605 8.58306 11.5445L10.8331 10.2865C11.2031 10.0705 11.6831 10.0705 12.0891 10.2865L14.3391 11.5445C14.7091 11.7605 14.9671 12.1555 14.9671 12.5865V14.2405L16.9221 13.1255V11.4725C16.9242 11.2578 16.8668 11.0467 16.7561 10.8627C16.6454 10.6788 16.4858 10.5291 16.2951 10.4305L12.1251 8.05848C11.7561 7.84248 11.2771 7.84248 10.8711 8.05848L6.62706 10.4305C6.43635 10.5291 6.27677 10.6788 6.16607 10.8627C6.05537 11.0467 5.9979 11.2578 6.00006 11.4725V16.2525C6.00006 16.6845 6.22106 17.0795 6.62706 17.2955L10.8711 19.6675C11.2401 19.8825 11.7201 19.8825 12.1251 19.6675L15.0041 18.0495L16.9591 16.9355L19.8381 15.3185C20.2071 15.1025 20.6861 15.1025 21.0921 15.3185L23.3431 16.5765C23.7131 16.7915 23.9701 17.1865 23.9701 17.6185V20.1705C23.9701 20.6015 23.7501 20.9965 23.3431 21.2125L21.0931 22.5065C20.7231 22.7225 20.2431 22.7225 19.8381 22.5065L17.5871 21.2485C17.2171 21.0325 16.9591 20.6375 16.9591 20.2065V18.5525L15.0041 19.6675V21.3205C15.0041 21.7515 15.2251 22.1475 15.6311 22.3625L19.8751 24.7345C20.2441 24.9505 20.7231 24.9505 21.1291 24.7345L25.3731 22.3625C25.7421 22.1475 26.0001 21.7525 26.0001 21.3205V16.5405C26.0022 16.3258 25.9448 16.1147 25.8341 15.9307C25.7234 15.7468 25.5638 15.5971 25.3731 15.4985L21.0931 13.0895H21.0921Z" fill="white"/>
</g>
<path id="Ellipse 2863" d="M36 16.3857C36 27.4314 27.0457 36.3857 16 36.3857C4.9543 36.3857 -4 27.4314 -4 16.3857C-4 5.34005 4.9543 -3.61426 16 -3.61426C27.0457 -3.61426 36 5.34005 36 16.3857ZM1.48332 16.3857C1.48332 24.4031 7.98266 30.9024 16 30.9024C24.0173 30.9024 30.5167 24.4031 30.5167 16.3857C30.5167 8.3684 24.0173 1.86906 16 1.86906C7.98266 1.86906 1.48332 8.3684 1.48332 16.3857Z" fill="#232B44"/>
</g>
</g>
</g>
<defs>
<clipPath id="clip0_0_1">
<rect width="1588" height="7464" fill="white" transform="translate(-1302 -5750)"/>
</clipPath>
</defs>
</svg>
