<svg xmlns="http://www.w3.org/2000/svg" width="79" height="80" viewBox="0 0 79 80" fill="none">
  <g clip-path="url(#clip0_4_8024)">
    <path
      d="M43.1975 7.7373V13.9873H47.975C49.4496 13.9873 50.8998 14.3873 52.1803 15.1423L58.4372 18.8223C58.6215 18.9323 58.8253 18.9873 59.0387 18.9873H69.8743C70.8391 18.9873 71.7644 19.3824 72.4466 20.0857C73.1288 20.7889 73.5121 21.7427 73.5121 22.7373C73.5121 23.7319 73.1288 24.6857 72.4466 25.389C71.7644 26.0922 70.8391 26.4873 69.8743 26.4873H67.8032L78.0423 49.9473C78.3449 50.6414 78.4355 51.4139 78.302 52.1623C78.1686 52.9106 77.8175 53.5995 77.2953 54.1373L74.7247 51.4873L77.2905 54.1423L77.2856 54.1523L77.2759 54.1623L77.2468 54.1923L77.2177 54.2173L77.1692 54.2673L76.951 54.4673C75.9324 55.3473 74.812 56.1023 73.6236 56.7173C71.3585 57.8873 68.0797 58.9873 63.8114 58.9873C60.4138 59.0286 57.0538 58.2513 53.9992 56.7173C52.8093 56.1026 51.6927 55.3476 50.6718 54.4673L50.4536 54.2673L50.376 54.1923L50.3469 54.1623L50.3275 54.1423V54.1373C49.8053 53.5995 49.4542 52.9106 49.3208 52.1623C49.1873 51.4139 49.2779 50.6414 49.5805 49.9473L59.8244 26.4873H59.0387C57.5593 26.4873 56.1091 26.0923 54.8286 25.3323L48.5716 21.6523C48.3889 21.5432 48.1813 21.4862 47.9702 21.4873H43.1975V68.9873H55.3233C56.2881 68.9873 57.2134 69.3824 57.8956 70.0856C58.5778 70.7889 58.9611 71.7427 58.9611 72.7373C58.9611 73.7319 58.5778 74.6857 57.8956 75.3889C57.2134 76.0922 56.2881 76.4873 55.3233 76.4873H23.7961C22.8313 76.4873 21.9061 76.0922 21.2238 75.3889C20.5416 74.6857 20.1584 73.7319 20.1584 72.7373C20.1584 71.7427 20.5416 70.7889 21.2238 70.0856C21.9061 69.3824 22.8313 68.9873 23.7961 68.9873H35.922V21.4873H31.1492C30.9381 21.4862 30.7305 21.5432 30.5478 21.6523L24.2957 25.3373C23.0104 26.0873 21.5601 26.4873 20.0808 26.4873H19.295L29.5389 49.9473C29.8415 50.6414 29.9321 51.4139 29.7987 52.1623C29.6653 52.9106 29.3141 53.5995 28.792 54.1373L26.2213 51.4873L28.7871 54.1423L28.7823 54.1523L28.7726 54.1623L28.7435 54.1923L28.6659 54.2673L28.4476 54.4673C27.429 55.3473 26.3086 56.1023 25.1203 56.7173C22.8552 57.8873 19.5763 58.9873 15.308 58.9873C11.9104 59.0286 8.55044 58.2513 5.4958 56.7173C4.30594 56.1026 3.18935 55.3476 2.16847 54.4673L1.95021 54.2673L1.8726 54.1923L1.8435 54.1623L1.8241 54.1423V54.1373C1.30192 53.5995 0.950808 52.9106 0.817393 52.1623C0.683977 51.4139 0.774573 50.6414 1.07715 49.9473L11.3211 26.4873H9.24511C8.28032 26.4873 7.35504 26.0922 6.67283 25.389C5.99062 24.6857 5.60736 23.7319 5.60736 22.7373C5.60736 21.7427 5.99062 20.7889 6.67283 20.0857C7.35504 19.3824 8.28032 18.9873 9.24511 18.9873H20.0808C20.2934 18.9883 20.5026 18.9314 20.6871 18.8223L26.9343 15.1373C28.2196 14.3873 29.6699 13.9873 31.1492 13.9873H35.922V7.7373C35.922 6.74274 36.3052 5.78892 36.9874 5.08565C37.6696 4.38239 38.5949 3.9873 39.5597 3.9873C40.5245 3.9873 41.4498 4.38239 42.132 5.08565C42.8142 5.78892 43.1975 6.74274 43.1975 7.7373ZM57.4817 50.1223C58.8641 50.7973 60.9643 51.4873 63.8114 51.4873C66.6585 51.4873 68.7587 50.7973 70.1411 50.1223L63.8114 35.6223L57.4817 50.1223ZM8.97834 50.1223C10.3607 50.7973 12.4609 51.4873 15.308 51.4873C18.1552 51.4873 20.2554 50.7973 21.6377 50.1223L15.308 35.6223L8.97834 50.1223Z"
      fill="url(#paint0_linear_4_8024)" />
  </g>
  <defs>
    <linearGradient id="paint0_linear_4_8024" x1="-9.40501" y1="43.0258" x2="101.459" y2="42.1075"
      gradientUnits="userSpaceOnUse">
      <stop stop-color="#0FC76C" />
      <stop offset="1" stop-color="#4CF7A2" />
    </linearGradient>
    <clipPath id="clip0_4_8024">
      <rect width="77.6054" height="80" fill="white" transform="translate(0.757477)" />
    </clipPath>
  </defs>
</svg>