<svg xmlns="http://www.w3.org/2000/svg" width="15" height="15" viewBox="0 0 15 15" fill="none">
  <g clip-path="url(#clip0_4_9369)">
    <path
      d="M7.5 14.0625C11.1244 14.0625 14.0625 11.1244 14.0625 7.5C14.0625 3.87563 11.1244 0.9375 7.5 0.9375C3.87563 0.9375 0.9375 3.87563 0.9375 7.5C0.9375 11.1244 3.87563 14.0625 7.5 14.0625Z"
      fill="#FFF504" fill-opacity="0.5" />
    <path d="M6.875 6.875H8.125V10.3125H6.875V6.875Z" fill="white" />
    <path
      d="M7.5 5.9375C7.93147 5.9375 8.28125 5.58772 8.28125 5.15625C8.28125 4.72478 7.93147 4.375 7.5 4.375C7.06853 4.375 6.71875 4.72478 6.71875 5.15625C6.71875 5.58772 7.06853 5.9375 7.5 5.9375Z"
      fill="white" />
  </g>
  <defs>
    <clipPath id="clip0_4_9369">
      <rect width="15" height="15" fill="white" />
    </clipPath>
  </defs>
</svg>