<svg width="30" height="30" viewBox="0 0 30 30" fill="none" xmlns="http://www.w3.org/2000/svg">
  <path
    d="M18.75 28.4375H11.25C4.4625 28.4375 1.5625 25.5375 1.5625 18.75V11.25C1.5625 4.4625 4.4625 1.5625 11.25 1.5625H18.75C25.5375 1.5625 28.4375 4.4625 28.4375 11.25V18.75C28.4375 25.5375 25.5375 28.4375 18.75 28.4375ZM11.25 3.4375C5.4875 3.4375 3.4375 5.4875 3.4375 11.25V18.75C3.4375 24.5125 5.4875 26.5625 11.25 26.5625H18.75C24.5125 26.5625 26.5625 24.5125 26.5625 18.75V11.25C26.5625 5.4875 24.5125 3.4375 18.75 3.4375H11.25Z"
    fill="#E5E5E5" />
  <path
    d="M15 16.25C14.3 16.25 13.75 15.6875 13.75 15C13.75 14.3125 14.3125 13.75 15 13.75C15.6875 13.75 16.25 14.3125 16.25 15C16.25 15.6875 15.7 16.25 15 16.25Z"
    fill="#E5E5E5" />
  <path
    d="M20 16.25C19.3 16.25 18.75 15.6875 18.75 15C18.75 14.3125 19.3125 13.75 20 13.75C20.6875 13.75 21.25 14.3125 21.25 15C21.25 15.6875 20.7 16.25 20 16.25Z"
    fill="#E5E5E5" />
  <path
    d="M10 16.25C9.3 16.25 8.75 15.6875 8.75 15C8.75 14.3125 9.3125 13.75 10 13.75C10.6875 13.75 11.25 14.3125 11.25 15C11.25 15.6875 10.7 16.25 10 16.25Z"
    fill="#E5E5E5" />
</svg>