<svg xmlns="http://www.w3.org/2000/svg" width="25" height="24" viewBox="0 0 25 24" fill="none">
  <path
    d="M12.1177 21.75C6.46768 21.75 1.86768 17.15 1.86768 11.5C1.86768 5.85 6.46768 1.25 12.1177 1.25C17.7677 1.25 22.3677 5.85 22.3677 11.5C22.3677 17.15 17.7677 21.75 12.1177 21.75ZM12.1177 2.75C7.28768 2.75 3.36768 6.68 3.36768 11.5C3.36768 16.32 7.28768 20.25 12.1177 20.25C16.9477 20.25 20.8677 16.32 20.8677 11.5C20.8677 6.68 16.9477 2.75 12.1177 2.75Z"
    fill="#E5F3FF" fill-opacity="0.3" />
  <path
    d="M22.6177 22.75C22.4277 22.75 22.2377 22.68 22.0877 22.53L20.0877 20.53C19.7977 20.24 19.7977 19.76 20.0877 19.47C20.3777 19.18 20.8577 19.18 21.1477 19.47L23.1477 21.47C23.4377 21.76 23.4377 22.24 23.1477 22.53C22.9977 22.68 22.8077 22.75 22.6177 22.75Z"
    fill="#E5F3FF" fill-opacity="0.3" />
</svg>