<svg width="17" height="16" viewBox="0 0 17 16" fill="none" xmlns="http://www.w3.org/2000/svg">
  <g opacity="0.8">
    <path
      d="M3.84722 15.1667C3.76055 15.1667 3.67388 15.1467 3.59388 15.1C3.44055 15.0134 3.34722 14.8467 3.34722 14.6667V12.5334C1.78055 11.26 0.89389 9.44671 0.89389 7.50671C0.89389 3.82671 4.10722 0.833374 8.06056 0.833374C12.0139 0.833374 15.2272 3.82671 15.2272 7.50671C15.2272 11.1867 12.0139 14.18 8.06056 14.18C7.41389 14.18 6.7739 14.1 6.1539 13.94L4.09388 15.1C4.02055 15.1467 3.93389 15.1667 3.84722 15.1667ZM8.06056 1.83337C4.66056 1.83337 1.89389 4.38005 1.89389 7.50671C1.89389 9.21338 2.7139 10.8134 4.1539 11.8934C4.28057 11.9867 4.35389 12.1334 4.35389 12.2934V13.8134L5.84722 12.9734C5.96055 12.9067 6.10056 12.8934 6.22722 12.9267C6.82056 13.0934 7.44056 13.18 8.06056 13.18C11.4606 13.18 14.2272 10.6334 14.2272 7.50671C14.2272 4.38005 11.4606 1.83337 8.06056 1.83337Z"
      fill="#E5F3FF" />
    <path
      d="M5.06088 9.66672C4.89421 9.66672 4.72754 9.58005 4.6342 9.43338C4.52087 9.24671 4.5342 9.01338 4.6742 8.84671L7.19422 5.84671C7.34756 5.66671 7.60088 5.61338 7.80754 5.72671L8.77422 6.24004L10.9275 5.68672C11.1409 5.63338 11.3609 5.72004 11.4742 5.90671C11.5875 6.09337 11.5742 6.32671 11.4342 6.49338L8.92754 9.49338C8.77421 9.68004 8.50086 9.72672 8.2942 9.60672L7.43421 9.10672L5.16753 9.66004C5.14086 9.66004 5.10088 9.66672 5.06088 9.66672ZM7.52088 8.06672C7.60755 8.06672 7.69422 8.08672 7.77422 8.13339L8.44089 8.52005L9.68088 7.03338L8.84087 7.24671C8.72087 7.28005 8.59422 7.26005 8.48088 7.20672L7.7009 6.79339L6.42087 8.31338L7.39421 8.07337C7.44088 8.07337 7.48088 8.06672 7.52088 8.06672Z"
      fill="#E5F3FF" />
  </g>
</svg>