<svg width="40" height="41" viewBox="0 0 40 41" fill="none" xmlns="http://www.w3.org/2000/svg">
  <rect x="4" y="4.39648" width="32" height="32" rx="16" fill="#50A6F5" />
  <path
    d="M19.6006 9.19653L19.4656 9.66153V22.9815L19.6006 23.1165L25.6006 19.4565L19.6006 9.19653Z"
    fill="white" />
  <path
    d="M19.6 9.19653L13.6 19.4565L19.6 23.1165V9.19653ZM19.6 25.1265L19.525 25.2165V29.9715L19.6 30.1965L25.6 21.4815L19.6 25.1415V25.1265Z"
    fill="white" />
  <path
    d="M19.6 30.1964V25.1264L13.6 21.4664L19.6 30.1814V30.1964ZM19.6 23.1164L25.6 19.4564L19.6 16.6514V23.1164ZM13.6 19.4564L19.6 23.1164V16.6514L13.6 19.4564Z"
    fill="white" />
  <path
    d="M40 20.3857C40 31.4314 31.0457 40.3857 20 40.3857C8.9543 40.3857 0 31.4314 0 20.3857C0 9.34005 8.9543 0.385742 20 0.385742C31.0457 0.385742 40 9.34005 40 20.3857ZM5.48332 20.3857C5.48332 28.4031 11.9827 34.9024 20 34.9024C28.0173 34.9024 34.5167 28.4031 34.5167 20.3857C34.5167 12.3684 28.0173 5.86906 20 5.86906C11.9827 5.86906 5.48332 12.3684 5.48332 20.3857Z"
    fill="#232B44" />
</svg>