<svg width="40" height="41" viewBox="0 0 40 41" fill="none" xmlns="http://www.w3.org/2000/svg">
  <path
    d="M20 36.3965C28.8366 36.3965 36 29.233 36 20.3965C36 11.5599 28.8366 4.39648 20 4.39648C11.1634 4.39648 4 11.5599 4 20.3965C4 29.233 11.1634 36.3965 20 36.3965Z"
    fill="#6F41D8" />
  <path
    d="M25.0921 17.0895C24.7231 16.8745 24.2441 16.8745 23.8381 17.0895L20.9591 18.7435L19.0041 19.8215L16.1251 21.4745C15.7561 21.6905 15.2771 21.6905 14.8711 21.4745L12.5831 20.1805C12.2141 19.9655 11.9561 19.5705 11.9561 19.1385V16.5865C11.9561 16.1555 12.1771 15.7605 12.5831 15.5445L14.8331 14.2865C15.2031 14.0705 15.6831 14.0705 16.0891 14.2865L18.3391 15.5445C18.7091 15.7605 18.9671 16.1555 18.9671 16.5865V18.2405L20.9221 17.1255V15.4725C20.9242 15.2578 20.8668 15.0467 20.7561 14.8627C20.6454 14.6788 20.4858 14.5291 20.2951 14.4305L16.1251 12.0585C15.7561 11.8425 15.2771 11.8425 14.8711 12.0585L10.6271 14.4305C10.4364 14.5291 10.2768 14.6788 10.1661 14.8627C10.0554 15.0467 9.9979 15.2578 10.0001 15.4725V20.2525C10.0001 20.6845 10.2211 21.0795 10.6271 21.2955L14.8711 23.6675C15.2401 23.8825 15.7201 23.8825 16.1251 23.6675L19.0041 22.0495L20.9591 20.9355L23.8381 19.3185C24.2071 19.1025 24.6861 19.1025 25.0921 19.3185L27.3431 20.5765C27.7131 20.7915 27.9701 21.1865 27.9701 21.6185V24.1705C27.9701 24.6015 27.7501 24.9965 27.3431 25.2125L25.0931 26.5065C24.7231 26.7225 24.2431 26.7225 23.8381 26.5065L21.5871 25.2485C21.2171 25.0325 20.9591 24.6375 20.9591 24.2065V22.5525L19.0041 23.6675V25.3205C19.0041 25.7515 19.2251 26.1475 19.6311 26.3625L23.8751 28.7345C24.2441 28.9505 24.7231 28.9505 25.1291 28.7345L29.3731 26.3625C29.7421 26.1475 30.0001 25.7525 30.0001 25.3205V20.5405C30.0022 20.3258 29.9448 20.1147 29.8341 19.9307C29.7234 19.7468 29.5638 19.5971 29.3731 19.4985L25.0931 17.0895H25.0921Z"
    fill="white" />
  <path
    d="M40 20.3857C40 31.4314 31.0457 40.3857 20 40.3857C8.9543 40.3857 0 31.4314 0 20.3857C0 9.34005 8.9543 0.385742 20 0.385742C31.0457 0.385742 40 9.34005 40 20.3857ZM5.48332 20.3857C5.48332 28.4031 11.9827 34.9024 20 34.9024C28.0173 34.9024 34.5167 28.4031 34.5167 20.3857C34.5167 12.3684 28.0173 5.86906 20 5.86906C11.9827 5.86906 5.48332 12.3684 5.48332 20.3857Z"
    fill="#232B44" />
</svg>