<svg width="100" height="100" viewBox="0 0 100 100" fill="none" xmlns="http://www.w3.org/2000/svg">
<path d="M50 0C22.5 0 0 22.5 0 50C0 77.5 22.5 100 50 100C77.5 100 100 77.5 100 50C100 22.5 77.5 0 50 0ZM50 11.1111C58.6111 11.1111 66.6667 14.1667 73.3333 18.8889L18.8889 73.3333C14.1667 66.6667 11.1111 58.6111 11.1111 50C11.1111 28.6111 28.6111 11.1111 50 11.1111ZM50 88.8889C41.3889 88.8889 33.3333 85.8333 26.6667 81.1111L81.1111 26.6667C85.8333 33.3333 88.8889 41.3889 88.8889 50C88.8889 71.3889 71.3889 88.8889 50 88.8889Z" fill="#D50000"/>
</svg>
