<svg xmlns="http://www.w3.org/2000/svg" width="32" height="32" viewBox="0 0 32 32" fill="none">
  <path opacity="0.5"
    d="M16 29.3333C23.364 29.3333 29.3333 23.364 29.3333 16C29.3333 8.63601 23.364 2.66667 16 2.66667C8.636 2.66667 2.66667 8.63601 2.66667 16C2.66667 23.364 8.636 29.3333 16 29.3333Z"
    fill="#242B33" />
  <path
    d="M18.04 11.2933C17.9485 11.1951 17.8381 11.1163 17.7154 11.0616C17.5927 11.007 17.4603 10.9776 17.326 10.9752C17.1918 10.9729 17.0584 10.9976 16.9339 11.0478C16.8094 11.0981 16.6962 11.173 16.6013 11.268C16.5063 11.3629 16.4315 11.476 16.3812 11.6005C16.3309 11.7251 16.3062 11.8584 16.3085 11.9927C16.3109 12.127 16.3403 12.2594 16.395 12.3821C16.4496 12.5047 16.5284 12.6151 16.6267 12.7067L18.92 15H10.6667C10.4015 15 10.1471 15.1054 9.95956 15.2929C9.77203 15.4804 9.66667 15.7348 9.66667 16C9.66667 16.2652 9.77203 16.5196 9.95956 16.7071C10.1471 16.8947 10.4015 17 10.6667 17H18.92L16.6267 19.2933C16.5284 19.3849 16.4496 19.4953 16.395 19.618C16.3403 19.7406 16.3109 19.873 16.3085 20.0073C16.3062 20.1416 16.3309 20.275 16.3812 20.3995C16.4315 20.524 16.5063 20.6371 16.6013 20.7321C16.6962 20.827 16.8094 20.9019 16.9339 20.9522C17.0584 21.0025 17.1918 21.0272 17.326 21.0248C17.4603 21.0224 17.5927 20.993 17.7154 20.9384C17.8381 20.8837 17.9485 20.8049 18.04 20.7067L22.04 16.7067C22.2273 16.5192 22.3325 16.265 22.3325 16C22.3325 15.735 22.2273 15.4808 22.04 15.2933L18.04 11.2933Z"
    fill="#F8F8F8" />
</svg>