<svg xmlns="http://www.w3.org/2000/svg" width="32" height="32" viewBox="0 0 32 32" fill="none">
  <path opacity="0.5"
    d="M16 29.3333C8.636 29.3333 2.66667 23.364 2.66667 16C2.66667 8.63601 8.636 2.66667 16 2.66667C23.364 2.66667 29.3333 8.63601 29.3333 16C29.3333 23.364 23.364 29.3333 16 29.3333Z"
    fill="#242B33" />
  <path
    d="M13.96 11.2933C14.0516 11.1951 14.162 11.1163 14.2846 11.0616C14.4073 11.007 14.5397 10.9776 14.674 10.9752C14.8082 10.9729 14.9416 10.9976 15.0661 11.0478C15.1907 11.0981 15.3038 11.173 15.3987 11.268C15.4937 11.3629 15.5685 11.476 15.6188 11.6005C15.6691 11.7251 15.6938 11.8584 15.6915 11.9927C15.6891 12.127 15.6597 12.2594 15.605 12.3821C15.5504 12.5047 15.4716 12.6151 15.3733 12.7067L13.08 15H21.3333C21.5986 15 21.8529 15.1054 22.0404 15.2929C22.228 15.4804 22.3333 15.7348 22.3333 16C22.3333 16.2652 22.228 16.5196 22.0404 16.7071C21.8529 16.8947 21.5986 17 21.3333 17H13.08L15.3733 19.2933C15.4716 19.3849 15.5504 19.4953 15.605 19.618C15.6597 19.7406 15.6891 19.873 15.6915 20.0073C15.6938 20.1416 15.6691 20.275 15.6188 20.3995C15.5685 20.524 15.4937 20.6371 15.3987 20.7321C15.3038 20.827 15.1907 20.9019 15.0661 20.9522C14.9416 21.0025 14.8082 21.0272 14.674 21.0248C14.5397 21.0224 14.4073 20.993 14.2846 20.9384C14.162 20.8837 14.0516 20.8049 13.96 20.7067L9.96 16.7067C9.77273 16.5192 9.66755 16.265 9.66755 16C9.66755 15.735 9.77273 15.4808 9.96 15.2933L13.96 11.2933Z"
    fill="#F8F8F8" fill-opacity="0.5" />
</svg>