<svg xmlns="http://www.w3.org/2000/svg" width="20" height="20" viewBox="0 0 20 20" fill="none">
  <path
    d="M20 10C20 15.5228 15.5228 20 10 20C4.47715 20 0 15.5228 0 10C0 4.47715 4.47715 0 10 0C15.5228 0 20 4.47715 20 10ZM2.5504 10C2.5504 14.1143 5.8857 17.4496 10 17.4496C14.1143 17.4496 17.4496 14.1143 17.4496 10C17.4496 5.8857 14.1143 2.5504 10 2.5504C5.8857 2.5504 2.5504 5.8857 2.5504 10Z"
    fill="white" fill-opacity="0.12" />
  <path
    d="M17.5 10C17.5 14.1421 14.1421 17.5 10 17.5C5.85786 17.5 2.5 14.1421 2.5 10C2.5 5.85786 5.85786 2.5 10 2.5C14.1421 2.5 17.5 5.85786 17.5 10ZM5.2 10C5.2 12.651 7.34903 14.8 10 14.8C12.651 14.8 14.8 12.651 14.8 10C14.8 7.34903 12.651 5.2 10 5.2C7.34903 5.2 5.2 7.34903 5.2 10Z"
    fill="#1CED86" fill-opacity="0.12" />
  <circle cx="10" cy="10" r="5" fill="#1CED86" fill-opacity="0.12" />
  <circle cx="10" cy="10" r="5" fill="black" fill-opacity="0.1" />
</svg>