<svg xmlns="http://www.w3.org/2000/svg" width="323" height="25" viewBox="0 0 323 25" fill="none">
  <path
    d="M18.1645 17.5294C18.1645 18.7667 17.9191 19.8121 17.4285 20.6654C16.9378 21.4974 16.2871 22.1694 15.4765 22.6814C14.6658 23.1934 13.7378 23.5667 12.6925 23.8014C11.6685 24.0147 10.6125 24.1214 9.52443 24.1214H0.500427V1.46542H9.52443C10.3991 1.46542 11.2951 1.56142 12.2125 1.75342C13.1298 1.92409 13.9618 2.23342 14.7085 2.68142C15.4551 3.10809 16.0631 3.69475 16.5325 4.44142C17.0018 5.18809 17.2365 6.13742 17.2365 7.28942C17.2365 8.54809 16.8951 9.59342 16.2125 10.4254C15.5298 11.2361 14.6338 11.8227 13.5245 12.1854V12.2494C14.1645 12.3561 14.7618 12.5587 15.3165 12.8574C15.8925 13.1347 16.3831 13.4974 16.7885 13.9454C17.2151 14.3934 17.5458 14.9161 17.7805 15.5134C18.0365 16.1107 18.1645 16.7827 18.1645 17.5294ZM11.9565 8.02542C11.9565 7.25742 11.6578 6.70275 11.0605 6.36142C10.4845 5.99875 9.62043 5.81742 8.46843 5.81742H5.78043V10.4894H8.72443C9.74843 10.4894 10.5378 10.2867 11.0925 9.88142C11.6685 9.45475 11.9565 8.83609 11.9565 8.02542ZM12.6925 17.0174C12.6925 16.0787 12.3405 15.4281 11.6365 15.0654C10.9325 14.7027 9.99376 14.5214 8.82043 14.5214H5.78043V19.7054H8.85243C9.27909 19.7054 9.71643 19.6734 10.1644 19.6094C10.6338 19.5241 11.0498 19.3854 11.4125 19.1934C11.7965 19.0014 12.1058 18.7347 12.3405 18.3934C12.5751 18.0307 12.6925 17.5721 12.6925 17.0174ZM21.7817 24.1214V1.46542H27.2857V24.1214H21.7817ZM46.3692 24.1214L37.2492 9.30542H37.1532L37.2812 24.1214H31.9692V1.46542H38.2092L47.2972 16.2494H47.3932L47.2652 1.46542H52.5772V24.1214H46.3692ZM72.6105 24.1214L70.8505 19.6734H62.0825L60.4185 24.1214H54.4665L63.9705 1.46542H69.2825L78.6905 24.1214H72.6105ZM66.5305 7.51342L63.6505 15.2894H69.3465L66.5305 7.51342ZM94.963 24.1214L85.843 9.30542H85.747L85.875 24.1214H80.563V1.46542H86.803L95.891 16.2494H95.987L95.859 1.46542H101.171V24.1214H94.963ZM125.78 20.9854C124.777 22.1374 123.54 23.0547 122.068 23.7374C120.596 24.3987 118.9 24.7294 116.98 24.7294C115.231 24.7294 113.609 24.4414 112.116 23.8654C110.644 23.2894 109.364 22.4787 108.276 21.4334C107.188 20.3667 106.335 19.0974 105.716 17.6254C105.097 16.1534 104.788 14.5321 104.788 12.7614C104.788 10.9481 105.097 9.30542 105.716 7.83342C106.356 6.36142 107.231 5.11342 108.34 4.08942C109.449 3.04409 110.751 2.24409 112.244 1.68942C113.737 1.13475 115.348 0.857422 117.076 0.857422C118.676 0.857422 120.244 1.14542 121.78 1.72142C123.337 2.27609 124.596 3.09742 125.556 4.18542L121.844 7.89742C121.332 7.19342 120.66 6.67075 119.828 6.32942C118.996 5.98809 118.143 5.81742 117.268 5.81742C116.308 5.81742 115.423 5.99875 114.612 6.36142C113.823 6.70275 113.14 7.18275 112.564 7.80142C111.988 8.42009 111.54 9.15609 111.22 10.0094C110.9 10.8414 110.74 11.7587 110.74 12.7614C110.74 13.7854 110.9 14.7241 111.22 15.5774C111.54 16.4307 111.977 17.1667 112.532 17.7854C113.108 18.3827 113.791 18.8521 114.58 19.1934C115.369 19.5347 116.233 19.7054 117.172 19.7054C118.26 19.7054 119.209 19.4921 120.02 19.0654C120.831 18.6387 121.481 18.0841 121.972 17.4014L125.78 20.9854ZM128.125 24.1214V1.46542H143.357V6.10542H133.405V10.3614H142.813V14.7454H133.405V19.4494H143.933V24.1214H128.125ZM175.499 20.9854C174.496 22.1374 173.259 23.0547 171.787 23.7374C170.315 24.3987 168.619 24.7294 166.699 24.7294C164.95 24.7294 163.328 24.4414 161.835 23.8654C160.363 23.2894 159.083 22.4787 157.995 21.4334C156.907 20.3667 156.054 19.0974 155.435 17.6254C154.816 16.1534 154.507 14.5321 154.507 12.7614C154.507 10.9481 154.816 9.30542 155.435 7.83342C156.075 6.36142 156.95 5.11342 158.059 4.08942C159.168 3.04409 160.47 2.24409 161.963 1.68942C163.456 1.13475 165.067 0.857422 166.795 0.857422C168.395 0.857422 169.963 1.14542 171.499 1.72142C173.056 2.27609 174.315 3.09742 175.275 4.18542L171.563 7.89742C171.051 7.19342 170.379 6.67075 169.547 6.32942C168.715 5.98809 167.862 5.81742 166.987 5.81742C166.027 5.81742 165.142 5.99875 164.331 6.36142C163.542 6.70275 162.859 7.18275 162.283 7.80142C161.707 8.42009 161.259 9.15609 160.939 10.0094C160.619 10.8414 160.459 11.7587 160.459 12.7614C160.459 13.7854 160.619 14.7241 160.939 15.5774C161.259 16.4307 161.696 17.1667 162.251 17.7854C162.827 18.3827 163.51 18.8521 164.299 19.1934C165.088 19.5347 165.952 19.7054 166.891 19.7054C167.979 19.7054 168.928 19.4921 169.739 19.0654C170.55 18.6387 171.2 18.0841 171.691 17.4014L175.499 20.9854ZM201.085 12.6974C201.085 14.4894 200.776 16.1321 200.157 17.6254C199.538 19.0974 198.674 20.3667 197.565 21.4334C196.477 22.4787 195.176 23.2894 193.661 23.8654C192.146 24.4414 190.504 24.7294 188.733 24.7294C186.962 24.7294 185.32 24.4414 183.805 23.8654C182.312 23.2894 181.01 22.4787 179.901 21.4334C178.813 20.3667 177.96 19.0974 177.341 17.6254C176.722 16.1321 176.413 14.4894 176.413 12.6974C176.413 10.8841 176.722 9.25209 177.341 7.80142C177.96 6.32942 178.813 5.08142 179.901 4.05742C181.01 3.03342 182.312 2.24409 183.805 1.68942C185.32 1.13475 186.962 0.857422 188.733 0.857422C190.504 0.857422 192.146 1.13475 193.661 1.68942C195.176 2.24409 196.477 3.03342 197.565 4.05742C198.674 5.08142 199.538 6.32942 200.157 7.80142C200.776 9.25209 201.085 10.8841 201.085 12.6974ZM195.229 12.6974C195.229 11.7161 195.069 10.7987 194.749 9.94542C194.429 9.09209 193.981 8.36675 193.405 7.76942C192.85 7.15075 192.168 6.67075 191.357 6.32942C190.568 5.96675 189.693 5.78542 188.733 5.78542C187.773 5.78542 186.898 5.96675 186.109 6.32942C185.32 6.67075 184.637 7.15075 184.061 7.76942C183.485 8.36675 183.037 9.09209 182.717 9.94542C182.418 10.7987 182.269 11.7161 182.269 12.6974C182.269 13.7214 182.429 14.6707 182.749 15.5454C183.069 16.3987 183.506 17.1347 184.061 17.7534C184.637 18.3721 185.32 18.8627 186.109 19.2254C186.898 19.5667 187.773 19.7374 188.733 19.7374C189.693 19.7374 190.568 19.5667 191.357 19.2254C192.146 18.8627 192.829 18.3721 193.405 17.7534C193.981 17.1347 194.429 16.3987 194.749 15.5454C195.069 14.6707 195.229 13.7214 195.229 12.6974ZM204.688 24.1214V1.46542H210.192V24.1214H204.688ZM229.275 24.1214L220.155 9.30542H220.059L220.187 24.1214H214.875V1.46542H221.115L230.203 16.2494H230.299L230.171 1.46542H235.483V24.1214H229.275ZM262.954 24.1214L261.194 19.6734H252.426L250.762 24.1214H244.81L254.314 1.46542H259.626L269.034 24.1214H262.954ZM256.874 7.51342L253.994 15.2894H259.69L256.874 7.51342ZM291.451 24.1214L291.579 8.08942H291.483L285.595 24.1214H281.755L276.027 8.08942H275.931L276.059 24.1214H270.907V1.46542H278.683L283.835 15.9934H283.963L288.891 1.46542H296.795V24.1214H291.451ZM316.829 24.1214L315.069 19.6734H306.301L304.637 24.1214H298.685L308.189 1.46542H313.501L322.909 24.1214H316.829ZM310.749 7.51342L307.869 15.2894H313.565L310.749 7.51342Z"
    fill="url(#paint0_radial_4_8059)" />
  <path
    d="M18.1645 17.5294C18.1645 18.7667 17.9191 19.8121 17.4285 20.6654C16.9378 21.4974 16.2871 22.1694 15.4765 22.6814C14.6658 23.1934 13.7378 23.5667 12.6925 23.8014C11.6685 24.0147 10.6125 24.1214 9.52443 24.1214H0.500427V1.46542H9.52443C10.3991 1.46542 11.2951 1.56142 12.2125 1.75342C13.1298 1.92409 13.9618 2.23342 14.7085 2.68142C15.4551 3.10809 16.0631 3.69475 16.5325 4.44142C17.0018 5.18809 17.2365 6.13742 17.2365 7.28942C17.2365 8.54809 16.8951 9.59342 16.2125 10.4254C15.5298 11.2361 14.6338 11.8227 13.5245 12.1854V12.2494C14.1645 12.3561 14.7618 12.5587 15.3165 12.8574C15.8925 13.1347 16.3831 13.4974 16.7885 13.9454C17.2151 14.3934 17.5458 14.9161 17.7805 15.5134C18.0365 16.1107 18.1645 16.7827 18.1645 17.5294ZM11.9565 8.02542C11.9565 7.25742 11.6578 6.70275 11.0605 6.36142C10.4845 5.99875 9.62043 5.81742 8.46843 5.81742H5.78043V10.4894H8.72443C9.74843 10.4894 10.5378 10.2867 11.0925 9.88142C11.6685 9.45475 11.9565 8.83609 11.9565 8.02542ZM12.6925 17.0174C12.6925 16.0787 12.3405 15.4281 11.6365 15.0654C10.9325 14.7027 9.99376 14.5214 8.82043 14.5214H5.78043V19.7054H8.85243C9.27909 19.7054 9.71643 19.6734 10.1644 19.6094C10.6338 19.5241 11.0498 19.3854 11.4125 19.1934C11.7965 19.0014 12.1058 18.7347 12.3405 18.3934C12.5751 18.0307 12.6925 17.5721 12.6925 17.0174ZM21.7817 24.1214V1.46542H27.2857V24.1214H21.7817ZM46.3692 24.1214L37.2492 9.30542H37.1532L37.2812 24.1214H31.9692V1.46542H38.2092L47.2972 16.2494H47.3932L47.2652 1.46542H52.5772V24.1214H46.3692ZM72.6105 24.1214L70.8505 19.6734H62.0825L60.4185 24.1214H54.4665L63.9705 1.46542H69.2825L78.6905 24.1214H72.6105ZM66.5305 7.51342L63.6505 15.2894H69.3465L66.5305 7.51342ZM94.963 24.1214L85.843 9.30542H85.747L85.875 24.1214H80.563V1.46542H86.803L95.891 16.2494H95.987L95.859 1.46542H101.171V24.1214H94.963ZM125.78 20.9854C124.777 22.1374 123.54 23.0547 122.068 23.7374C120.596 24.3987 118.9 24.7294 116.98 24.7294C115.231 24.7294 113.609 24.4414 112.116 23.8654C110.644 23.2894 109.364 22.4787 108.276 21.4334C107.188 20.3667 106.335 19.0974 105.716 17.6254C105.097 16.1534 104.788 14.5321 104.788 12.7614C104.788 10.9481 105.097 9.30542 105.716 7.83342C106.356 6.36142 107.231 5.11342 108.34 4.08942C109.449 3.04409 110.751 2.24409 112.244 1.68942C113.737 1.13475 115.348 0.857422 117.076 0.857422C118.676 0.857422 120.244 1.14542 121.78 1.72142C123.337 2.27609 124.596 3.09742 125.556 4.18542L121.844 7.89742C121.332 7.19342 120.66 6.67075 119.828 6.32942C118.996 5.98809 118.143 5.81742 117.268 5.81742C116.308 5.81742 115.423 5.99875 114.612 6.36142C113.823 6.70275 113.14 7.18275 112.564 7.80142C111.988 8.42009 111.54 9.15609 111.22 10.0094C110.9 10.8414 110.74 11.7587 110.74 12.7614C110.74 13.7854 110.9 14.7241 111.22 15.5774C111.54 16.4307 111.977 17.1667 112.532 17.7854C113.108 18.3827 113.791 18.8521 114.58 19.1934C115.369 19.5347 116.233 19.7054 117.172 19.7054C118.26 19.7054 119.209 19.4921 120.02 19.0654C120.831 18.6387 121.481 18.0841 121.972 17.4014L125.78 20.9854ZM128.125 24.1214V1.46542H143.357V6.10542H133.405V10.3614H142.813V14.7454H133.405V19.4494H143.933V24.1214H128.125ZM175.499 20.9854C174.496 22.1374 173.259 23.0547 171.787 23.7374C170.315 24.3987 168.619 24.7294 166.699 24.7294C164.95 24.7294 163.328 24.4414 161.835 23.8654C160.363 23.2894 159.083 22.4787 157.995 21.4334C156.907 20.3667 156.054 19.0974 155.435 17.6254C154.816 16.1534 154.507 14.5321 154.507 12.7614C154.507 10.9481 154.816 9.30542 155.435 7.83342C156.075 6.36142 156.95 5.11342 158.059 4.08942C159.168 3.04409 160.47 2.24409 161.963 1.68942C163.456 1.13475 165.067 0.857422 166.795 0.857422C168.395 0.857422 169.963 1.14542 171.499 1.72142C173.056 2.27609 174.315 3.09742 175.275 4.18542L171.563 7.89742C171.051 7.19342 170.379 6.67075 169.547 6.32942C168.715 5.98809 167.862 5.81742 166.987 5.81742C166.027 5.81742 165.142 5.99875 164.331 6.36142C163.542 6.70275 162.859 7.18275 162.283 7.80142C161.707 8.42009 161.259 9.15609 160.939 10.0094C160.619 10.8414 160.459 11.7587 160.459 12.7614C160.459 13.7854 160.619 14.7241 160.939 15.5774C161.259 16.4307 161.696 17.1667 162.251 17.7854C162.827 18.3827 163.51 18.8521 164.299 19.1934C165.088 19.5347 165.952 19.7054 166.891 19.7054C167.979 19.7054 168.928 19.4921 169.739 19.0654C170.55 18.6387 171.2 18.0841 171.691 17.4014L175.499 20.9854ZM201.085 12.6974C201.085 14.4894 200.776 16.1321 200.157 17.6254C199.538 19.0974 198.674 20.3667 197.565 21.4334C196.477 22.4787 195.176 23.2894 193.661 23.8654C192.146 24.4414 190.504 24.7294 188.733 24.7294C186.962 24.7294 185.32 24.4414 183.805 23.8654C182.312 23.2894 181.01 22.4787 179.901 21.4334C178.813 20.3667 177.96 19.0974 177.341 17.6254C176.722 16.1321 176.413 14.4894 176.413 12.6974C176.413 10.8841 176.722 9.25209 177.341 7.80142C177.96 6.32942 178.813 5.08142 179.901 4.05742C181.01 3.03342 182.312 2.24409 183.805 1.68942C185.32 1.13475 186.962 0.857422 188.733 0.857422C190.504 0.857422 192.146 1.13475 193.661 1.68942C195.176 2.24409 196.477 3.03342 197.565 4.05742C198.674 5.08142 199.538 6.32942 200.157 7.80142C200.776 9.25209 201.085 10.8841 201.085 12.6974ZM195.229 12.6974C195.229 11.7161 195.069 10.7987 194.749 9.94542C194.429 9.09209 193.981 8.36675 193.405 7.76942C192.85 7.15075 192.168 6.67075 191.357 6.32942C190.568 5.96675 189.693 5.78542 188.733 5.78542C187.773 5.78542 186.898 5.96675 186.109 6.32942C185.32 6.67075 184.637 7.15075 184.061 7.76942C183.485 8.36675 183.037 9.09209 182.717 9.94542C182.418 10.7987 182.269 11.7161 182.269 12.6974C182.269 13.7214 182.429 14.6707 182.749 15.5454C183.069 16.3987 183.506 17.1347 184.061 17.7534C184.637 18.3721 185.32 18.8627 186.109 19.2254C186.898 19.5667 187.773 19.7374 188.733 19.7374C189.693 19.7374 190.568 19.5667 191.357 19.2254C192.146 18.8627 192.829 18.3721 193.405 17.7534C193.981 17.1347 194.429 16.3987 194.749 15.5454C195.069 14.6707 195.229 13.7214 195.229 12.6974ZM204.688 24.1214V1.46542H210.192V24.1214H204.688ZM229.275 24.1214L220.155 9.30542H220.059L220.187 24.1214H214.875V1.46542H221.115L230.203 16.2494H230.299L230.171 1.46542H235.483V24.1214H229.275ZM262.954 24.1214L261.194 19.6734H252.426L250.762 24.1214H244.81L254.314 1.46542H259.626L269.034 24.1214H262.954ZM256.874 7.51342L253.994 15.2894H259.69L256.874 7.51342ZM291.451 24.1214L291.579 8.08942H291.483L285.595 24.1214H281.755L276.027 8.08942H275.931L276.059 24.1214H270.907V1.46542H278.683L283.835 15.9934H283.963L288.891 1.46542H296.795V24.1214H291.451ZM316.829 24.1214L315.069 19.6734H306.301L304.637 24.1214H298.685L308.189 1.46542H313.501L322.909 24.1214H316.829ZM310.749 7.51342L307.869 15.2894H313.565L310.749 7.51342Z"
    fill="url(#paint1_linear_4_8059)" />
  <defs>
    <radialGradient id="paint0_radial_4_8059" cx="0" cy="0" r="1" gradientUnits="userSpaceOnUse"
      gradientTransform="translate(339.305 1.12115) rotate(180) scale(358 4835.05)">
      <stop stop-color="#04FD1D" />
      <stop offset="1" stop-color="#00FE0A" />
    </radialGradient>
    <linearGradient id="paint1_linear_4_8059" x1="341.805" y1="1.12119" x2="-13.1949" y2="1.12119"
      gradientUnits="userSpaceOnUse">
      <stop stop-color="#FFB803" />
      <stop offset="0.510579" stop-color="#FBB70A" stop-opacity="0.489421" />
      <stop offset="1" stop-color="#FFBA07" />
    </linearGradient>
  </defs>
</svg>