<svg xmlns="http://www.w3.org/2000/svg" width="80" height="80" viewBox="0 0 80 80" fill="none">
  <path
    d="M36.6667 6.6665L60.9933 14.2665C61.6718 14.4783 62.2648 14.9014 62.6858 15.4741C63.1068 16.0468 63.3337 16.7391 63.3333 17.4498V23.3332H70C70.8841 23.3332 71.7319 23.6844 72.357 24.3095C72.9822 24.9346 73.3333 25.7824 73.3333 26.6665V33.3332H30V26.6665C30 25.7824 30.3512 24.9346 30.9763 24.3095C31.6014 23.6844 32.4493 23.3332 33.3333 23.3332H56.6667V19.8998L36.6667 13.6465L16.6667 19.8998V44.5798C16.6662 46.6206 17.1342 48.6342 18.0346 50.4656C18.9349 52.297 20.2437 53.8973 21.86 55.1432L22.49 55.5965L36.6667 65.2665L49.2733 56.6665H33.3333C32.4493 56.6665 31.6014 56.3153 30.9763 55.6902C30.3512 55.0651 30 54.2172 30 53.3332V39.9998H73.3333V53.3332C73.3333 54.2172 72.9822 55.0651 72.357 55.6902C71.7319 56.3153 70.8841 56.6665 70 56.6665L59.2667 56.6698C57.9767 58.3698 56.41 59.8698 54.6 61.1032L36.6667 73.3332L18.7333 61.1065C16.0417 59.2714 13.8392 56.8065 12.3171 53.9262C10.7951 51.046 9.99966 47.8375 10 44.5798V17.4498C10.0004 16.7396 10.2276 16.0481 10.6485 15.4761C11.0695 14.9041 11.6621 14.4815 12.34 14.2698L36.6667 6.6665Z"
    fill="url(#paint0_linear_4_8016)" />
  <defs>
    <linearGradient id="paint0_linear_4_8016" x1="41.6667" y1="6.6665" x2="126.897" y2="29.5824"
      gradientUnits="userSpaceOnUse">
      <stop stop-color="#FD5A14" />
      <stop offset="0.609375" stop-color="#FFF06B" stop-opacity="0.59" />
      <stop offset="1" stop-color="#060ED0" stop-opacity="0.28" />
    </linearGradient>
  </defs>
</svg>