<svg width="127" height="26" viewBox="0 0 127 26" fill="none" xmlns="http://www.w3.org/2000/svg">
  <rect width="127" height="26" rx="10" fill="#201F26" />
  <mask id="mask0_73_598" style="mask-type:alpha" maskUnits="userSpaceOnUse" x="0" y="0" width="127"
    height="26">
    <rect x="1" y="1" width="125" height="24" rx="9" stroke="black" stroke-width="2" />
  </mask>
  <g mask="url(#mask0_73_598)">
    <g filter="url(#filter0_f_73_598)">
      <ellipse cx="18.6891" cy="-111.853" rx="63.5715" ry="56.0857" fill="#FB155F" />
    </g>
    <g filter="url(#filter1_f_73_598)">
      <ellipse cx="111.628" cy="-39.183" rx="67.372" ry="67.7175" fill="#BA1EF7" />
    </g>
    <g filter="url(#filter2_f_73_598)">
      <ellipse cx="63.3734" cy="12.2961" rx="88.4473" ry="46.4118" fill="#35D1D2" />
    </g>
    <g filter="url(#filter3_f_73_598)">
      <circle cx="1.98997" cy="-53.5786" r="65.99" fill="#FFB36A" />
    </g>
  </g>
  <mask id="mask1_73_598" style="mask-type:alpha" maskUnits="userSpaceOnUse" x="14" y="9" width="99"
    height="10">
    <path
      d="M14.9474 18V9.27273H18.3906C19.0525 9.27273 19.6165 9.39915 20.0824 9.65199C20.5483 9.90199 20.9034 10.25 21.1477 10.696C21.3949 11.1392 21.5184 11.6506 21.5184 12.2301C21.5184 12.8097 21.3934 13.321 21.1434 13.7642C20.8934 14.2074 20.5312 14.5526 20.0568 14.7997C19.5852 15.0469 19.0142 15.1705 18.3437 15.1705H16.1491V13.6918H18.0454C18.4006 13.6918 18.6932 13.6307 18.9233 13.5085C19.1562 13.3835 19.3295 13.2116 19.4432 12.9929C19.5596 12.7713 19.6179 12.517 19.6179 12.2301C19.6179 11.9403 19.5596 11.6875 19.4432 11.4716C19.3295 11.2528 19.1562 11.0838 18.9233 10.9645C18.6903 10.8423 18.3949 10.7812 18.0369 10.7812H16.7926V18H14.9474ZM22.837 18V9.27273H26.2801C26.9392 9.27273 27.5017 9.39062 27.9676 9.62642C28.4364 9.85937 28.7929 10.1903 29.0372 10.6193C29.2844 11.0455 29.408 11.5469 29.408 12.1236C29.408 12.7031 29.283 13.2017 29.033 13.6193C28.783 14.0341 28.4208 14.3523 27.9463 14.5739C27.4747 14.7955 26.9037 14.9062 26.2333 14.9062H23.9279V13.4233H25.935C26.2872 13.4233 26.5799 13.375 26.8128 13.2784C27.0458 13.1818 27.2191 13.0369 27.3327 12.8438C27.4492 12.6506 27.5074 12.4105 27.5074 12.1236C27.5074 11.8338 27.4492 11.5895 27.3327 11.3906C27.2191 11.1918 27.0443 11.0412 26.8085 10.9389C26.5756 10.8338 26.2816 10.7812 25.9264 10.7812H24.6821V18H22.837ZM27.55 14.0284L29.7191 18H27.6821L25.56 14.0284H27.55ZM38.8518 13.6364C38.8518 14.5881 38.6714 15.3977 38.3107 16.0653C37.9527 16.733 37.4641 17.2429 36.8447 17.5952C36.2283 17.9446 35.5351 18.1193 34.7652 18.1193C33.9896 18.1193 33.2936 17.9432 32.6771 17.5909C32.0607 17.2386 31.5734 16.7287 31.2155 16.0611C30.8575 15.3935 30.6785 14.5852 30.6785 13.6364C30.6785 12.6847 30.8575 11.875 31.2155 11.2074C31.5734 10.5398 32.0607 10.0312 32.6771 9.68182C33.2936 9.32955 33.9896 9.15341 34.7652 9.15341C35.5351 9.15341 36.2283 9.32955 36.8447 9.68182C37.4641 10.0312 37.9527 10.5398 38.3107 11.2074C38.6714 11.875 38.8518 12.6847 38.8518 13.6364ZM36.9811 13.6364C36.9811 13.0199 36.8888 12.5 36.7041 12.0767C36.5223 11.6534 36.2652 11.3324 35.9328 11.1136C35.6004 10.8949 35.2112 10.7855 34.7652 10.7855C34.3192 10.7855 33.93 10.8949 33.5976 11.1136C33.2652 11.3324 33.0067 11.6534 32.822 12.0767C32.6402 12.5 32.5493 13.0199 32.5493 13.6364C32.5493 14.2528 32.6402 14.7727 32.822 15.196C33.0067 15.6193 33.2652 15.9403 33.5976 16.1591C33.93 16.3778 34.3192 16.4872 34.7652 16.4872C35.2112 16.4872 35.6004 16.3778 35.9328 16.1591C36.2652 15.9403 36.5223 15.6193 36.7041 15.196C36.8888 14.7727 36.9811 14.2528 36.9811 13.6364ZM39.6079 10.794V9.27273H46.7755V10.794H44.1036V18H42.2797V10.794H39.6079ZM48.0759 18V9.27273H53.9565V10.794H49.921V12.8736H53.654V14.3949H49.921V16.4787H53.9736V18H48.0759ZM63.2438 12.3281H61.3773C61.3432 12.0866 61.2736 11.8722 61.1685 11.6847C61.0634 11.4943 60.9285 11.3324 60.7637 11.1989C60.5989 11.0653 60.4086 10.9631 60.1927 10.892C59.9796 10.821 59.7481 10.7855 59.4981 10.7855C59.0464 10.7855 58.6529 10.8977 58.3177 11.1222C57.9824 11.3437 57.7225 11.6676 57.5378 12.0938C57.3532 12.517 57.2608 13.0312 57.2608 13.6364C57.2608 14.2585 57.3532 14.7812 57.5378 15.2045C57.7253 15.6278 57.9867 15.9474 58.3219 16.1634C58.6572 16.3793 59.0449 16.4872 59.4853 16.4872C59.7324 16.4872 59.9611 16.4545 60.1714 16.3892C60.3844 16.3239 60.5733 16.2287 60.7381 16.1037C60.9029 15.9759 61.0393 15.821 61.1472 15.6392C61.258 15.4574 61.3347 15.25 61.3773 15.017L63.2438 15.0256C63.1955 15.4261 63.0748 15.8125 62.8816 16.1847C62.6912 16.554 62.4341 16.8849 62.1103 17.1776C61.7893 17.4673 61.4057 17.6974 60.9597 17.8679C60.5165 18.0355 60.0151 18.1193 59.4555 18.1193C58.677 18.1193 57.981 17.9432 57.3674 17.5909C56.7566 17.2386 56.2736 16.7287 55.9185 16.0611C55.5662 15.3935 55.3901 14.5852 55.3901 13.6364C55.3901 12.6847 55.5691 11.875 55.927 11.2074C56.285 10.5398 56.7708 10.0312 57.3844 9.68182C57.9981 9.32955 58.6884 9.15341 59.4555 9.15341C59.9611 9.15341 60.4299 9.22443 60.8617 9.36648C61.2964 9.50852 61.6813 9.71591 62.0165 9.98864C62.3518 10.2585 62.6245 10.5895 62.8347 10.9815C63.0478 11.3736 63.1841 11.8224 63.2438 12.3281ZM64.3546 10.794V9.27273H71.5222V10.794H68.8503V18H67.0264V10.794H64.3546ZM72.8226 18V9.27273H78.7033V10.794H74.6678V12.8736H78.4007V14.3949H74.6678V16.4787H78.7203V18H72.8226ZM83.384 18H80.2902V9.27273H83.4096C84.2874 9.27273 85.0431 9.44744 85.6766 9.79688C86.3101 10.1435 86.7973 10.642 87.1382 11.2926C87.482 11.9432 87.6539 12.7216 87.6539 13.6278C87.6539 14.5369 87.482 15.3182 87.1382 15.9716C86.7973 16.625 86.3073 17.1264 85.6681 17.4759C85.0317 17.8253 84.2704 18 83.384 18ZM82.1354 16.419H83.3073C83.8527 16.419 84.3115 16.3224 84.6837 16.1293C85.0587 15.9332 85.34 15.6307 85.5275 15.2216C85.7178 14.8097 85.813 14.2784 85.813 13.6278C85.813 12.983 85.7178 12.456 85.5275 12.0469C85.34 11.6378 85.0601 11.3366 84.688 11.1435C84.3158 10.9503 83.857 10.8537 83.3115 10.8537H82.1354V16.419ZM93.8832 9.27273V18H92.038V9.27273H93.8832ZM98.6151 18H95.5213V9.27273H98.6407C99.5185 9.27273 100.274 9.44744 100.908 9.79688C101.541 10.1435 102.028 10.642 102.369 11.2926C102.713 11.9432 102.885 12.7216 102.885 13.6278C102.885 14.5369 102.713 15.3182 102.369 15.9716C102.028 16.625 101.538 17.1264 100.899 17.4759C100.263 17.8253 99.5014 18 98.6151 18ZM97.3665 16.419H98.5384C99.0838 16.419 99.5426 16.3224 99.9148 16.1293C100.29 15.9332 100.571 15.6307 100.759 15.2216C100.949 14.8097 101.044 14.2784 101.044 13.6278C101.044 12.983 100.949 12.456 100.759 12.0469C100.571 11.6378 100.291 11.3366 99.9191 11.1435C99.5469 10.9503 99.0881 10.8537 98.5426 10.8537H97.3665V16.419ZM112.392 13.6364C112.392 14.5881 112.211 15.3977 111.85 16.0653C111.493 16.733 111.004 17.2429 110.385 17.5952C109.768 17.9446 109.075 18.1193 108.305 18.1193C107.529 18.1193 106.833 17.9432 106.217 17.5909C105.6 17.2386 105.113 16.7287 104.755 16.0611C104.397 15.3935 104.218 14.5852 104.218 13.6364C104.218 12.6847 104.397 11.875 104.755 11.2074C105.113 10.5398 105.6 10.0312 106.217 9.68182C106.833 9.32955 107.529 9.15341 108.305 9.15341C109.075 9.15341 109.768 9.32955 110.385 9.68182C111.004 10.0312 111.493 10.5398 111.85 11.2074C112.211 11.875 112.392 12.6847 112.392 13.6364ZM110.521 13.6364C110.521 13.0199 110.429 12.5 110.244 12.0767C110.062 11.6534 109.805 11.3324 109.473 11.1136C109.14 10.8949 108.751 10.7855 108.305 10.7855C107.859 10.7855 107.47 10.8949 107.137 11.1136C106.805 11.3324 106.547 11.6534 106.362 12.0767C106.18 12.5 106.089 13.0199 106.089 13.6364C106.089 14.2528 106.18 14.7727 106.362 15.196C106.547 15.6193 106.805 15.9403 107.137 16.1591C107.47 16.3778 107.859 16.4872 108.305 16.4872C108.751 16.4872 109.14 16.3778 109.473 16.1591C109.805 15.9403 110.062 15.6193 110.244 15.196C110.429 14.7727 110.521 14.2528 110.521 13.6364Z"
      fill="white" />
  </mask>
  <g mask="url(#mask1_73_598)">
    <g filter="url(#filter4_f_73_598)">
      <ellipse cx="19.6891" cy="-107.853" rx="63.5715" ry="56.0857" fill="#FB155F" />
    </g>
    <g filter="url(#filter5_f_73_598)">
      <ellipse cx="112.628" cy="-35.183" rx="67.372" ry="67.7175" fill="#BA1EF7" />
    </g>
    <g filter="url(#filter6_f_73_598)">
      <ellipse cx="64.3734" cy="16.2961" rx="88.4473" ry="46.4118" fill="#35D1D2" />
    </g>
    <g filter="url(#filter7_f_73_598)">
      <circle cx="2.98997" cy="-49.5786" r="65.99" fill="#FFB36A" />
    </g>
  </g>
  <defs>
    <filter id="filter0_f_73_598" x="-137.6" y="-260.656" width="312.578" height="297.607"
      filterUnits="userSpaceOnUse" color-interpolation-filters="sRGB">
      <feFlood flood-opacity="0" result="BackgroundImageFix" />
      <feBlend mode="normal" in="SourceGraphic" in2="BackgroundImageFix" result="shape" />
      <feGaussianBlur stdDeviation="46.3588" result="effect1_foregroundBlur_73_598" />
    </filter>
    <filter id="filter1_f_73_598" x="-48.4611" y="-199.618" width="320.179" height="320.87"
      filterUnits="userSpaceOnUse" color-interpolation-filters="sRGB">
      <feFlood flood-opacity="0" result="BackgroundImageFix" />
      <feBlend mode="normal" in="SourceGraphic" in2="BackgroundImageFix" result="shape" />
      <feGaussianBlur stdDeviation="46.3588" result="effect1_foregroundBlur_73_598" />
    </filter>
    <filter id="filter2_f_73_598" x="-117.791" y="-126.833" width="362.33" height="278.259"
      filterUnits="userSpaceOnUse" color-interpolation-filters="sRGB">
      <feFlood flood-opacity="0" result="BackgroundImageFix" />
      <feBlend mode="normal" in="SourceGraphic" in2="BackgroundImageFix" result="shape" />
      <feGaussianBlur stdDeviation="46.3588" result="effect1_foregroundBlur_73_598" />
    </filter>
    <filter id="filter3_f_73_598" x="-156.718" y="-212.286" width="317.415" height="317.415"
      filterUnits="userSpaceOnUse" color-interpolation-filters="sRGB">
      <feFlood flood-opacity="0" result="BackgroundImageFix" />
      <feBlend mode="normal" in="SourceGraphic" in2="BackgroundImageFix" result="shape" />
      <feGaussianBlur stdDeviation="46.3588" result="effect1_foregroundBlur_73_598" />
    </filter>
    <filter id="filter4_f_73_598" x="-136.6" y="-256.656" width="312.578" height="297.607"
      filterUnits="userSpaceOnUse" color-interpolation-filters="sRGB">
      <feFlood flood-opacity="0" result="BackgroundImageFix" />
      <feBlend mode="normal" in="SourceGraphic" in2="BackgroundImageFix" result="shape" />
      <feGaussianBlur stdDeviation="46.3588" result="effect1_foregroundBlur_73_598" />
    </filter>
    <filter id="filter5_f_73_598" x="-47.4611" y="-195.618" width="320.179" height="320.87"
      filterUnits="userSpaceOnUse" color-interpolation-filters="sRGB">
      <feFlood flood-opacity="0" result="BackgroundImageFix" />
      <feBlend mode="normal" in="SourceGraphic" in2="BackgroundImageFix" result="shape" />
      <feGaussianBlur stdDeviation="46.3588" result="effect1_foregroundBlur_73_598" />
    </filter>
    <filter id="filter6_f_73_598" x="-116.791" y="-122.833" width="362.33" height="278.259"
      filterUnits="userSpaceOnUse" color-interpolation-filters="sRGB">
      <feFlood flood-opacity="0" result="BackgroundImageFix" />
      <feBlend mode="normal" in="SourceGraphic" in2="BackgroundImageFix" result="shape" />
      <feGaussianBlur stdDeviation="46.3588" result="effect1_foregroundBlur_73_598" />
    </filter>
    <filter id="filter7_f_73_598" x="-155.718" y="-208.286" width="317.415" height="317.415"
      filterUnits="userSpaceOnUse" color-interpolation-filters="sRGB">
      <feFlood flood-opacity="0" result="BackgroundImageFix" />
      <feBlend mode="normal" in="SourceGraphic" in2="BackgroundImageFix" result="shape" />
      <feGaussianBlur stdDeviation="46.3588" result="effect1_foregroundBlur_73_598" />
    </filter>
  </defs>
</svg>