<svg xmlns="http://www.w3.org/2000/svg" width="20" height="20" viewBox="0 0 20 20" fill="none">
  <path
    d="M14.6445 18.4444L12.4111 14.5778C13.5 13.7778 14.2556 12.5333 14.4111 11.1111H18.8889C18.7971 12.5785 18.366 14.0047 17.6295 15.2772C16.893 16.5497 15.8712 17.6339 14.6445 18.4444ZM11.1111 4.47778V0C15.8889 0.288889 19.7111 4.11111 20 8.88889H15.5222C15.3981 7.76162 14.8935 6.71031 14.0916 5.9084C13.2897 5.10648 12.2384 4.60186 11.1111 4.47778ZM4.44447 10.5556C4.44447 11.2667 4.58891 11.9444 4.86669 12.5556L1.00003 14.7889C0.338726 13.4759 -0.00386575 12.0256 3.29052e-05 10.5556C3.29052e-05 5.52222 3.93336 1.41111 8.88891 1.11111V5.58889C6.38891 5.86667 4.44447 7.97778 4.44447 10.5556ZM9.44446 20C6.14447 20 3.24447 18.3333 1.55559 15.7556L5.42225 13.5222C5.88485 14.1543 6.4904 14.668 7.18944 15.0214C7.88847 15.3748 8.66118 15.5578 9.44446 15.5556C10.1556 15.5556 10.8333 15.4111 11.4445 15.1333L13.6778 19C12.4 19.6444 10.9667 20 9.44446 20Z"
    fill="#22C55C" />
</svg>