<svg width="469" height="230" viewBox="0 0 469 230" fill="none" xmlns="http://www.w3.org/2000/svg">
  <path d="M27.4753 1.18213L394.925 7.68213V59.1821L27.4753 71.1821L27.4753 1.18213Z"
    fill="url(#paint0_linear_220_1049)" />
  <path d="M27.4753 1.18213L394.925 20.6821V41.1821L27.4753 71.1821L27.4753 1.18213Z"
    fill="url(#paint1_linear_220_1049)" fill-opacity="0.25" />
  <circle cx="35.9997" cy="36.1821" r="35" fill="url(#paint2_radial_220_1049)" />
  <circle cx="35.9997" cy="36.1821" r="35" fill="#242B33" />
  <circle cx="35.9997" cy="36.1821" r="35" stroke="url(#paint3_linear_220_1049)" stroke-width="2" />
  <path
    d="M13.3803 33.148V31.24H16.7043V40H14.5683V33.148H13.3803ZM18.1081 35.5C18.1081 34.124 18.3721 33.04 18.9001 32.248C19.4361 31.456 20.2961 31.06 21.4801 31.06C22.6641 31.06 23.5201 31.456 24.0481 32.248C24.5841 33.04 24.8521 34.124 24.8521 35.5C24.8521 36.892 24.5841 37.984 24.0481 38.776C23.5201 39.568 22.6641 39.964 21.4801 39.964C20.2961 39.964 19.4361 39.568 18.9001 38.776C18.3721 37.984 18.1081 36.892 18.1081 35.5ZM22.8361 35.5C22.8361 34.692 22.7481 34.072 22.5721 33.64C22.3961 33.2 22.0321 32.98 21.4801 32.98C20.9281 32.98 20.5641 33.2 20.3881 33.64C20.2121 34.072 20.1241 34.692 20.1241 35.5C20.1241 36.044 20.1561 36.496 20.2201 36.856C20.2841 37.208 20.4121 37.496 20.6041 37.72C20.8041 37.936 21.0961 38.044 21.4801 38.044C21.8641 38.044 22.1521 37.936 22.3441 37.72C22.5441 37.496 22.6761 37.208 22.7401 36.856C22.8041 36.496 22.8361 36.044 22.8361 35.5ZM25.9362 35.5C25.9362 34.124 26.2002 33.04 26.7282 32.248C27.2642 31.456 28.1242 31.06 29.3082 31.06C30.4922 31.06 31.3482 31.456 31.8762 32.248C32.4122 33.04 32.6802 34.124 32.6802 35.5C32.6802 36.892 32.4122 37.984 31.8762 38.776C31.3482 39.568 30.4922 39.964 29.3082 39.964C28.1242 39.964 27.2642 39.568 26.7282 38.776C26.2002 37.984 25.9362 36.892 25.9362 35.5ZM30.6642 35.5C30.6642 34.692 30.5762 34.072 30.4002 33.64C30.2242 33.2 29.8602 32.98 29.3082 32.98C28.7562 32.98 28.3922 33.2 28.2162 33.64C28.0402 34.072 27.9522 34.692 27.9522 35.5C27.9522 36.044 27.9842 36.496 28.0482 36.856C28.1122 37.208 28.2402 37.496 28.4322 37.72C28.6322 37.936 28.9242 38.044 29.3082 38.044C29.6922 38.044 29.9802 37.936 30.1722 37.72C30.3722 37.496 30.5042 37.208 30.5682 36.856C30.6322 36.496 30.6642 36.044 30.6642 35.5ZM36.1763 38.104L34.8443 41.548H33.5363L34.2323 38.104H36.1763ZM43.3776 33.028H39.6336V34.684C39.7936 34.508 40.0176 34.364 40.3056 34.252C40.5936 34.14 40.9056 34.084 41.2416 34.084C41.8416 34.084 42.3376 34.22 42.7296 34.492C43.1296 34.764 43.4216 35.116 43.6056 35.548C43.7896 35.98 43.8816 36.448 43.8816 36.952C43.8816 37.888 43.6176 38.632 43.0896 39.184C42.5616 39.728 41.8176 40 40.8576 40C40.2176 40 39.6616 39.892 39.1896 39.676C38.7176 39.452 38.3536 39.144 38.0976 38.752C37.8416 38.36 37.7016 37.908 37.6776 37.396H39.6816C39.7296 37.644 39.8456 37.852 40.0296 38.02C40.2136 38.18 40.4656 38.26 40.7856 38.26C41.1616 38.26 41.4416 38.14 41.6256 37.9C41.8096 37.66 41.9016 37.34 41.9016 36.94C41.9016 36.548 41.8056 36.248 41.6136 36.04C41.4216 35.832 41.1416 35.728 40.7736 35.728C40.5016 35.728 40.2776 35.796 40.1016 35.932C39.9256 36.06 39.8096 36.232 39.7536 36.448H37.7736V31.228H43.3776V33.028ZM49.3463 33.604C49.2823 33.308 49.1703 33.088 49.0103 32.944C48.8503 32.792 48.6223 32.716 48.3263 32.716C47.8703 32.716 47.5423 32.916 47.3423 33.316C47.1423 33.708 47.0383 34.332 47.0303 35.188C47.2063 34.908 47.4583 34.688 47.7863 34.528C48.1223 34.368 48.4903 34.288 48.8903 34.288C49.6743 34.288 50.3023 34.536 50.7743 35.032C51.2543 35.528 51.4943 36.22 51.4943 37.108C51.4943 37.692 51.3743 38.204 51.1343 38.644C50.9023 39.084 50.5583 39.428 50.1023 39.676C49.6543 39.924 49.1223 40.048 48.5063 40.048C47.2743 40.048 46.4183 39.664 45.9383 38.896C45.4583 38.12 45.2183 37.008 45.2183 35.56C45.2183 34.04 45.4703 32.912 45.9743 32.176C46.4863 31.432 47.3023 31.06 48.4223 31.06C49.0223 31.06 49.5263 31.18 49.9343 31.42C50.3503 31.652 50.6623 31.96 50.8703 32.344C51.0863 32.728 51.2143 33.148 51.2543 33.604H49.3463ZM48.3983 35.908C48.0543 35.908 47.7663 36.012 47.5343 36.22C47.3103 36.42 47.1983 36.708 47.1983 37.084C47.1983 37.468 47.3023 37.768 47.5103 37.984C47.7263 38.2 48.0303 38.308 48.4223 38.308C48.7743 38.308 49.0503 38.204 49.2503 37.996C49.4583 37.78 49.5623 37.488 49.5623 37.12C49.5623 36.744 49.4623 36.448 49.2623 36.232C49.0623 36.016 48.7743 35.908 48.3983 35.908ZM52.6549 35.5C52.6549 34.124 52.9189 33.04 53.4469 32.248C53.9829 31.456 54.8429 31.06 56.0269 31.06C57.2109 31.06 58.0669 31.456 58.5949 32.248C59.1309 33.04 59.3989 34.124 59.3989 35.5C59.3989 36.892 59.1309 37.984 58.5949 38.776C58.0669 39.568 57.2109 39.964 56.0269 39.964C54.8429 39.964 53.9829 39.568 53.4469 38.776C52.9189 37.984 52.6549 36.892 52.6549 35.5ZM57.3829 35.5C57.3829 34.692 57.2949 34.072 57.1189 33.64C56.9429 33.2 56.5789 32.98 56.0269 32.98C55.4749 32.98 55.1109 33.2 54.9349 33.64C54.7589 34.072 54.6709 34.692 54.6709 35.5C54.6709 36.044 54.7029 36.496 54.7669 36.856C54.8309 37.208 54.9589 37.496 55.1509 37.72C55.3509 37.936 55.6429 38.044 56.0269 38.044C56.4109 38.044 56.6989 37.936 56.8909 37.72C57.0909 37.496 57.2229 37.208 57.2869 36.856C57.3509 36.496 57.3829 36.044 57.3829 35.5Z"
    fill="white" />
  <path
    d="M133.403 36V24.3636H137.551C138.452 24.3636 139.2 24.5189 139.795 24.8295C140.394 25.1402 140.841 25.5701 141.136 26.1193C141.432 26.6648 141.579 27.2955 141.579 28.0114C141.579 28.7235 141.43 29.3504 141.13 29.892C140.835 30.4299 140.388 30.8485 139.789 31.1477C139.195 31.447 138.447 31.5966 137.545 31.5966H134.403V30.0852H137.386C137.954 30.0852 138.416 30.0038 138.772 29.8409C139.132 29.678 139.396 29.4413 139.562 29.1307C139.729 28.8201 139.812 28.447 139.812 28.0114C139.812 27.572 139.727 27.1913 139.557 26.8693C139.39 26.5473 139.127 26.3011 138.767 26.1307C138.411 25.9564 137.943 25.8693 137.363 25.8693H135.159V36H133.403ZM139.147 30.75L142.022 36H140.022L137.204 30.75H139.147ZM147.231 36.1761C146.371 36.1761 145.631 35.9924 145.01 35.625C144.392 35.2538 143.915 34.733 143.578 34.0625C143.244 33.3883 143.078 32.5985 143.078 31.6932C143.078 30.7992 143.244 30.0114 143.578 29.3295C143.915 28.6477 144.385 28.1155 144.987 27.733C145.593 27.3504 146.301 27.1591 147.112 27.1591C147.604 27.1591 148.082 27.2405 148.544 27.4034C149.006 27.5663 149.421 27.822 149.788 28.1705C150.155 28.5189 150.445 28.9716 150.657 29.5284C150.869 30.0814 150.976 30.7538 150.976 31.5455V32.1477H144.038V30.875H149.311C149.311 30.428 149.22 30.0322 149.038 29.6875C148.856 29.339 148.601 29.0644 148.271 28.8636C147.945 28.6629 147.563 28.5625 147.123 28.5625C146.646 28.5625 146.229 28.6799 145.873 28.9148C145.521 29.1458 145.248 29.4489 145.055 29.8239C144.866 30.1951 144.771 30.5985 144.771 31.0341V32.0284C144.771 32.6117 144.873 33.108 145.078 33.517C145.286 33.9261 145.576 34.2386 145.947 34.4545C146.318 34.6667 146.752 34.7727 147.248 34.7727C147.57 34.7727 147.864 34.7273 148.129 34.6364C148.394 34.5417 148.623 34.4015 148.816 34.2159C149.01 34.0303 149.157 33.8011 149.26 33.5284L150.868 33.8182C150.739 34.2917 150.508 34.7064 150.174 35.0625C149.845 35.4148 149.43 35.6894 148.93 35.8864C148.434 36.0795 147.868 36.1761 147.231 36.1761ZM156.52 39.4545C155.826 39.4545 155.23 39.3636 154.73 39.1818C154.234 39 153.828 38.7595 153.514 38.4602C153.2 38.161 152.965 37.8333 152.809 37.4773L154.27 36.875C154.372 37.0417 154.508 37.2178 154.679 37.4034C154.853 37.5928 155.088 37.7538 155.383 37.8864C155.682 38.0189 156.067 38.0852 156.537 38.0852C157.181 38.0852 157.713 37.928 158.133 37.6136C158.554 37.303 158.764 36.8068 158.764 36.125V34.4091H158.656C158.554 34.5947 158.406 34.8011 158.213 35.0284C158.023 35.2557 157.762 35.4527 157.429 35.6193C157.095 35.786 156.662 35.8693 156.128 35.8693C155.438 35.8693 154.817 35.7083 154.264 35.3864C153.715 35.0606 153.279 34.5814 152.957 33.9489C152.639 33.3125 152.48 32.5303 152.48 31.6023C152.48 30.6742 152.637 29.8788 152.951 29.2159C153.27 28.553 153.705 28.0455 154.258 27.6932C154.811 27.3371 155.438 27.1591 156.139 27.1591C156.681 27.1591 157.118 27.25 157.451 27.4318C157.785 27.6098 158.044 27.8182 158.23 28.0568C158.419 28.2955 158.565 28.5057 158.667 28.6875H158.792V27.2727H160.457V36.1932C160.457 36.9432 160.283 37.5587 159.934 38.0398C159.586 38.5208 159.114 38.8769 158.52 39.108C157.929 39.339 157.262 39.4545 156.52 39.4545ZM156.503 34.4602C156.991 34.4602 157.404 34.3466 157.741 34.1193C158.082 33.8883 158.34 33.5587 158.514 33.1307C158.692 32.6989 158.781 32.1818 158.781 31.5795C158.781 30.9924 158.694 30.4754 158.52 30.0284C158.345 29.5814 158.09 29.233 157.753 28.983C157.415 28.7292 156.999 28.6023 156.503 28.6023C155.991 28.6023 155.565 28.7348 155.224 29C154.883 29.2614 154.626 29.6174 154.451 30.0682C154.281 30.5189 154.196 31.0227 154.196 31.5795C154.196 32.1515 154.283 32.6534 154.457 33.0852C154.631 33.517 154.889 33.8542 155.23 34.0966C155.575 34.339 155.999 34.4602 156.503 34.4602ZM162.735 36V27.2727H164.434V36H162.735ZM163.593 25.9261C163.298 25.9261 163.044 25.8277 162.832 25.6307C162.624 25.4299 162.52 25.1913 162.52 24.9148C162.52 24.6345 162.624 24.3958 162.832 24.1989C163.044 23.9981 163.298 23.8977 163.593 23.8977C163.889 23.8977 164.141 23.9981 164.349 24.1989C164.561 24.3958 164.667 24.6345 164.667 24.9148C164.667 25.1913 164.561 25.4299 164.349 25.6307C164.141 25.8277 163.889 25.9261 163.593 25.9261ZM173.26 29.4034L171.72 29.6761C171.655 29.4792 171.553 29.2917 171.413 29.1136C171.277 28.9356 171.091 28.7898 170.856 28.6761C170.621 28.5625 170.328 28.5057 169.976 28.5057C169.494 28.5057 169.093 28.6136 168.771 28.8295C168.449 29.0417 168.288 29.3163 168.288 29.6534C168.288 29.9451 168.396 30.1799 168.612 30.358C168.828 30.536 169.176 30.6818 169.657 30.7955L171.044 31.1136C171.847 31.2992 172.445 31.5852 172.839 31.9716C173.233 32.358 173.43 32.8598 173.43 33.4773C173.43 34 173.279 34.4659 172.976 34.875C172.676 35.2803 172.258 35.5985 171.72 35.8295C171.186 36.0606 170.566 36.1761 169.862 36.1761C168.885 36.1761 168.087 35.9678 167.47 35.5511C166.852 35.1307 166.474 34.5341 166.334 33.7614L167.976 33.5114C168.078 33.9394 168.288 34.2633 168.606 34.483C168.924 34.6989 169.339 34.8068 169.851 34.8068C170.407 34.8068 170.852 34.6913 171.186 34.4602C171.519 34.2254 171.686 33.9394 171.686 33.6023C171.686 33.3295 171.584 33.1004 171.379 32.9148C171.178 32.7292 170.869 32.589 170.453 32.4943L168.976 32.1705C168.161 31.9848 167.559 31.6894 167.169 31.2841C166.782 30.8788 166.589 30.3655 166.589 29.7443C166.589 29.2292 166.733 28.7784 167.021 28.392C167.309 28.0057 167.707 27.7045 168.214 27.4886C168.722 27.2689 169.303 27.1591 169.959 27.1591C170.902 27.1591 171.644 27.3636 172.186 27.7727C172.727 28.178 173.085 28.7216 173.26 29.4034ZM179.372 27.2727V28.6364H174.605V27.2727H179.372ZM175.883 25.1818H177.582V33.4375C177.582 33.767 177.631 34.0152 177.73 34.1818C177.828 34.3447 177.955 34.4564 178.11 34.517C178.27 34.5739 178.442 34.6023 178.628 34.6023C178.764 34.6023 178.883 34.5928 178.985 34.5739C179.088 34.5549 179.167 34.5398 179.224 34.5284L179.531 35.9318C179.432 35.9697 179.292 36.0076 179.11 36.0455C178.929 36.0871 178.701 36.1098 178.429 36.1136C177.982 36.1212 177.565 36.0417 177.179 35.875C176.792 35.7083 176.48 35.4508 176.241 35.1023C176.003 34.7538 175.883 34.3163 175.883 33.7898V25.1818ZM181.251 36V27.2727H182.893V28.6591H182.984C183.143 28.1894 183.423 27.8201 183.825 27.5511C184.23 27.2784 184.689 27.142 185.2 27.142C185.306 27.142 185.431 27.1458 185.575 27.1534C185.723 27.161 185.838 27.1705 185.922 27.1818V28.8068C185.853 28.7879 185.732 28.767 185.558 28.7443C185.384 28.7178 185.209 28.7045 185.035 28.7045C184.634 28.7045 184.276 28.7898 183.961 28.9602C183.651 29.1269 183.405 29.3598 183.223 29.6591C183.041 29.9545 182.95 30.2917 182.95 30.6705V36H181.251ZM189.853 36.1932C189.3 36.1932 188.8 36.0909 188.353 35.8864C187.906 35.678 187.552 35.3769 187.291 34.983C187.033 34.589 186.905 34.1061 186.905 33.5341C186.905 33.0417 186.999 32.6364 187.189 32.3182C187.378 32 187.634 31.7481 187.956 31.5625C188.278 31.3769 188.637 31.2367 189.035 31.142C189.433 31.0473 189.838 30.9754 190.251 30.9261C190.774 30.8655 191.198 30.8163 191.524 30.7784C191.85 30.7367 192.086 30.6705 192.234 30.5795C192.382 30.4886 192.456 30.3409 192.456 30.1364V30.0966C192.456 29.6004 192.316 29.2159 192.035 28.9432C191.759 28.6705 191.346 28.5341 190.797 28.5341C190.225 28.5341 189.774 28.661 189.444 28.9148C189.119 29.1648 188.893 29.4432 188.768 29.75L187.172 29.3864C187.361 28.8561 187.637 28.428 188.001 28.1023C188.369 27.7727 188.791 27.5341 189.268 27.3864C189.745 27.2348 190.247 27.1591 190.774 27.1591C191.122 27.1591 191.492 27.2008 191.882 27.2841C192.276 27.3636 192.643 27.5114 192.984 27.7273C193.329 27.9432 193.611 28.2519 193.831 28.6534C194.05 29.0511 194.16 29.5682 194.16 30.2045V36H192.501V34.8068H192.433C192.323 35.0265 192.158 35.2424 191.939 35.4545C191.719 35.6667 191.437 35.8428 191.092 35.983C190.747 36.1231 190.334 36.1932 189.853 36.1932ZM190.223 34.8295C190.692 34.8295 191.094 34.7367 191.427 34.5511C191.764 34.3655 192.02 34.1231 192.194 33.8239C192.372 33.5208 192.461 33.197 192.461 32.8523V31.7273C192.401 31.7879 192.283 31.8447 192.109 31.8977C191.939 31.947 191.744 31.9905 191.524 32.0284C191.304 32.0625 191.09 32.0947 190.882 32.125C190.673 32.1515 190.499 32.1742 190.359 32.1932C190.03 32.2348 189.728 32.3049 189.456 32.4034C189.187 32.5019 188.971 32.6439 188.808 32.8295C188.649 33.0114 188.569 33.2538 188.569 33.5568C188.569 33.9773 188.725 34.2955 189.035 34.5114C189.346 34.7235 189.742 34.8295 190.223 34.8295ZM200.497 27.2727V28.6364H195.73V27.2727H200.497ZM197.008 25.1818H198.707V33.4375C198.707 33.767 198.756 34.0152 198.855 34.1818C198.953 34.3447 199.08 34.4564 199.235 34.517C199.395 34.5739 199.567 34.6023 199.753 34.6023C199.889 34.6023 200.008 34.5928 200.11 34.5739C200.213 34.5549 200.292 34.5398 200.349 34.5284L200.656 35.9318C200.557 35.9697 200.417 36.0076 200.235 36.0455C200.054 36.0871 199.826 36.1098 199.554 36.1136C199.107 36.1212 198.69 36.0417 198.304 35.875C197.917 35.7083 197.605 35.4508 197.366 35.1023C197.128 34.7538 197.008 34.3163 197.008 33.7898V25.1818ZM202.376 36V27.2727H204.075V36H202.376ZM203.234 25.9261C202.939 25.9261 202.685 25.8277 202.473 25.6307C202.264 25.4299 202.16 25.1913 202.16 24.9148C202.16 24.6345 202.264 24.3958 202.473 24.1989C202.685 23.9981 202.939 23.8977 203.234 23.8977C203.53 23.8977 203.781 23.9981 203.99 24.1989C204.202 24.3958 204.308 24.6345 204.308 24.9148C204.308 25.1913 204.202 25.4299 203.99 25.6307C203.781 25.8277 203.53 25.9261 203.234 25.9261ZM210.037 36.1761C209.218 36.1761 208.504 35.9886 207.895 35.6136C207.285 35.2386 206.811 34.714 206.474 34.0398C206.137 33.3655 205.968 32.5777 205.968 31.6761C205.968 30.7708 206.137 29.9792 206.474 29.3011C206.811 28.6231 207.285 28.0966 207.895 27.7216C208.504 27.3466 209.218 27.1591 210.037 27.1591C210.855 27.1591 211.569 27.3466 212.179 27.7216C212.789 28.0966 213.262 28.6231 213.599 29.3011C213.936 29.9792 214.105 30.7708 214.105 31.6761C214.105 32.5777 213.936 33.3655 213.599 34.0398C213.262 34.714 212.789 35.2386 212.179 35.6136C211.569 35.9886 210.855 36.1761 210.037 36.1761ZM210.042 34.75C210.573 34.75 211.012 34.6098 211.36 34.3295C211.709 34.0492 211.967 33.6761 212.133 33.2102C212.304 32.7443 212.389 32.2311 212.389 31.6705C212.389 31.1136 212.304 30.6023 212.133 30.1364C211.967 29.6667 211.709 29.2898 211.36 29.0057C211.012 28.7216 210.573 28.5795 210.042 28.5795C209.508 28.5795 209.065 28.7216 208.713 29.0057C208.364 29.2898 208.105 29.6667 207.934 30.1364C207.768 30.6023 207.684 31.1136 207.684 31.6705C207.684 32.2311 207.768 32.7443 207.934 33.2102C208.105 33.6761 208.364 34.0492 208.713 34.3295C209.065 34.6098 209.508 34.75 210.042 34.75ZM217.7 30.8182V36H216.001V27.2727H217.632V28.6932H217.74C217.941 28.2311 218.255 27.8598 218.683 27.5795C219.115 27.2992 219.658 27.1591 220.314 27.1591C220.908 27.1591 221.429 27.2841 221.876 27.5341C222.323 27.7803 222.67 28.1477 222.916 28.6364C223.162 29.125 223.285 29.7292 223.285 30.4489V36H221.586V30.6534C221.586 30.0208 221.422 29.5265 221.092 29.1705C220.762 28.8106 220.31 28.6307 219.734 28.6307C219.34 28.6307 218.99 28.7159 218.683 28.8864C218.38 29.0568 218.139 29.3068 217.961 29.6364C217.787 29.9621 217.7 30.3561 217.7 30.8182ZM232.103 29.4034L230.564 29.6761C230.499 29.4792 230.397 29.2917 230.257 29.1136C230.12 28.9356 229.935 28.7898 229.7 28.6761C229.465 28.5625 229.172 28.5057 228.819 28.5057C228.338 28.5057 227.937 28.6136 227.615 28.8295C227.293 29.0417 227.132 29.3163 227.132 29.6534C227.132 29.9451 227.24 30.1799 227.456 30.358C227.672 30.536 228.02 30.6818 228.501 30.7955L229.887 31.1136C230.691 31.2992 231.289 31.5852 231.683 31.9716C232.077 32.358 232.274 32.8598 232.274 33.4773C232.274 34 232.122 34.4659 231.819 34.875C231.52 35.2803 231.101 35.5985 230.564 35.8295C230.03 36.0606 229.41 36.1761 228.706 36.1761C227.728 36.1761 226.931 35.9678 226.314 35.5511C225.696 35.1307 225.317 34.5341 225.177 33.7614L226.819 33.5114C226.922 33.9394 227.132 34.2633 227.45 34.483C227.768 34.6989 228.183 34.8068 228.694 34.8068C229.251 34.8068 229.696 34.6913 230.03 34.4602C230.363 34.2254 230.53 33.9394 230.53 33.6023C230.53 33.3295 230.427 33.1004 230.223 32.9148C230.022 32.7292 229.713 32.589 229.297 32.4943L227.819 32.1705C227.005 31.9848 226.403 31.6894 226.012 31.2841C225.626 30.8788 225.433 30.3655 225.433 29.7443C225.433 29.2292 225.577 28.7784 225.865 28.392C226.153 28.0057 226.55 27.7045 227.058 27.4886C227.566 27.2689 228.147 27.1591 228.802 27.1591C229.745 27.1591 230.488 27.3636 231.03 27.7727C231.571 28.178 231.929 28.7216 232.103 29.4034Z"
    fill="#E5F3FF" />
  <path d="M65.4909 79.2886L398.71 85.7886V137.289L65.4909 149.289V79.2886Z"
    fill="url(#paint4_linear_220_1049)" />
  <path d="M65.4909 79.2886L398.71 98.7886V119.289L65.4909 149.289V79.2886Z"
    fill="url(#paint5_linear_220_1049)" fill-opacity="0.25" />
  <path
    d="M146.7 114V102.364H150.848C151.749 102.364 152.497 102.519 153.092 102.83C153.691 103.14 154.137 103.57 154.433 104.119C154.728 104.665 154.876 105.295 154.876 106.011C154.876 106.723 154.726 107.35 154.427 107.892C154.132 108.43 153.685 108.848 153.086 109.148C152.492 109.447 151.744 109.597 150.842 109.597H147.7V108.085H150.683C151.251 108.085 151.713 108.004 152.069 107.841C152.429 107.678 152.692 107.441 152.859 107.131C153.026 106.82 153.109 106.447 153.109 106.011C153.109 105.572 153.024 105.191 152.853 104.869C152.687 104.547 152.423 104.301 152.064 104.131C151.708 103.956 151.24 103.869 150.66 103.869H148.456V114H146.7ZM152.444 108.75L155.319 114H153.319L150.501 108.75H152.444ZM160.528 114.176C159.668 114.176 158.928 113.992 158.307 113.625C157.689 113.254 157.212 112.733 156.875 112.062C156.541 111.388 156.375 110.598 156.375 109.693C156.375 108.799 156.541 108.011 156.875 107.33C157.212 106.648 157.682 106.116 158.284 105.733C158.89 105.35 159.598 105.159 160.409 105.159C160.901 105.159 161.378 105.241 161.841 105.403C162.303 105.566 162.717 105.822 163.085 106.17C163.452 106.519 163.742 106.972 163.954 107.528C164.166 108.081 164.272 108.754 164.272 109.545V110.148H157.335V108.875H162.608C162.608 108.428 162.517 108.032 162.335 107.688C162.153 107.339 161.897 107.064 161.568 106.864C161.242 106.663 160.86 106.562 160.42 106.562C159.943 106.562 159.526 106.68 159.17 106.915C158.818 107.146 158.545 107.449 158.352 107.824C158.163 108.195 158.068 108.598 158.068 109.034V110.028C158.068 110.612 158.17 111.108 158.375 111.517C158.583 111.926 158.873 112.239 159.244 112.455C159.615 112.667 160.049 112.773 160.545 112.773C160.867 112.773 161.161 112.727 161.426 112.636C161.691 112.542 161.92 112.402 162.113 112.216C162.307 112.03 162.454 111.801 162.557 111.528L164.164 111.818C164.036 112.292 163.805 112.706 163.471 113.062C163.142 113.415 162.727 113.689 162.227 113.886C161.731 114.08 161.164 114.176 160.528 114.176ZM172.697 107.403L171.157 107.676C171.093 107.479 170.991 107.292 170.851 107.114C170.714 106.936 170.529 106.79 170.294 106.676C170.059 106.562 169.765 106.506 169.413 106.506C168.932 106.506 168.53 106.614 168.209 106.83C167.887 107.042 167.726 107.316 167.726 107.653C167.726 107.945 167.834 108.18 168.049 108.358C168.265 108.536 168.614 108.682 169.095 108.795L170.481 109.114C171.284 109.299 171.883 109.585 172.277 109.972C172.671 110.358 172.868 110.86 172.868 111.477C172.868 112 172.716 112.466 172.413 112.875C172.114 113.28 171.695 113.598 171.157 113.83C170.623 114.061 170.004 114.176 169.299 114.176C168.322 114.176 167.525 113.968 166.907 113.551C166.29 113.131 165.911 112.534 165.771 111.761L167.413 111.511C167.515 111.939 167.726 112.263 168.044 112.483C168.362 112.699 168.777 112.807 169.288 112.807C169.845 112.807 170.29 112.691 170.623 112.46C170.957 112.225 171.123 111.939 171.123 111.602C171.123 111.33 171.021 111.1 170.816 110.915C170.616 110.729 170.307 110.589 169.89 110.494L168.413 110.17C167.599 109.985 166.996 109.689 166.606 109.284C166.22 108.879 166.027 108.366 166.027 107.744C166.027 107.229 166.171 106.778 166.459 106.392C166.746 106.006 167.144 105.705 167.652 105.489C168.159 105.269 168.741 105.159 169.396 105.159C170.339 105.159 171.082 105.364 171.623 105.773C172.165 106.178 172.523 106.722 172.697 107.403ZM178.497 114.176C177.637 114.176 176.896 113.992 176.275 113.625C175.658 113.254 175.181 112.733 174.843 112.062C174.51 111.388 174.343 110.598 174.343 109.693C174.343 108.799 174.51 108.011 174.843 107.33C175.181 106.648 175.65 106.116 176.253 105.733C176.859 105.35 177.567 105.159 178.378 105.159C178.87 105.159 179.347 105.241 179.809 105.403C180.271 105.566 180.686 105.822 181.054 106.17C181.421 106.519 181.711 106.972 181.923 107.528C182.135 108.081 182.241 108.754 182.241 109.545V110.148H175.304V108.875H180.576C180.576 108.428 180.485 108.032 180.304 107.688C180.122 107.339 179.866 107.064 179.537 106.864C179.211 106.663 178.828 106.562 178.389 106.562C177.912 106.562 177.495 106.68 177.139 106.915C176.787 107.146 176.514 107.449 176.321 107.824C176.131 108.195 176.037 108.598 176.037 109.034V110.028C176.037 110.612 176.139 111.108 176.343 111.517C176.552 111.926 176.842 112.239 177.213 112.455C177.584 112.667 178.018 112.773 178.514 112.773C178.836 112.773 179.129 112.727 179.395 112.636C179.66 112.542 179.889 112.402 180.082 112.216C180.275 112.03 180.423 111.801 180.525 111.528L182.133 111.818C182.004 112.292 181.773 112.706 181.44 113.062C181.11 113.415 180.696 113.689 180.196 113.886C179.7 114.08 179.133 114.176 178.497 114.176ZM184.126 114V105.273H185.768V106.659H185.859C186.018 106.189 186.298 105.82 186.7 105.551C187.105 105.278 187.564 105.142 188.075 105.142C188.181 105.142 188.306 105.146 188.45 105.153C188.598 105.161 188.713 105.17 188.797 105.182V106.807C188.728 106.788 188.607 106.767 188.433 106.744C188.259 106.718 188.084 106.705 187.91 106.705C187.509 106.705 187.151 106.79 186.836 106.96C186.526 107.127 186.28 107.36 186.098 107.659C185.916 107.955 185.825 108.292 185.825 108.67V114H184.126ZM197.998 105.273L194.834 114H193.015L189.845 105.273H191.669L193.879 111.989H193.97L196.174 105.273H197.998ZM203.059 114.176C202.2 114.176 201.459 113.992 200.838 113.625C200.22 113.254 199.743 112.733 199.406 112.062C199.073 111.388 198.906 110.598 198.906 109.693C198.906 108.799 199.073 108.011 199.406 107.33C199.743 106.648 200.213 106.116 200.815 105.733C201.421 105.35 202.129 105.159 202.94 105.159C203.432 105.159 203.91 105.241 204.372 105.403C204.834 105.566 205.249 105.822 205.616 106.17C205.984 106.519 206.273 106.972 206.485 107.528C206.698 108.081 206.804 108.754 206.804 109.545V110.148H199.866V108.875H205.139C205.139 108.428 205.048 108.032 204.866 107.688C204.684 107.339 204.429 107.064 204.099 106.864C203.773 106.663 203.391 106.562 202.951 106.562C202.474 106.562 202.057 106.68 201.701 106.915C201.349 107.146 201.076 107.449 200.883 107.824C200.694 108.195 200.599 108.598 200.599 109.034V110.028C200.599 110.612 200.701 111.108 200.906 111.517C201.114 111.926 201.404 112.239 201.775 112.455C202.146 112.667 202.58 112.773 203.076 112.773C203.398 112.773 203.692 112.727 203.957 112.636C204.222 112.542 204.451 112.402 204.645 112.216C204.838 112.03 204.985 111.801 205.088 111.528L206.696 111.818C206.567 112.292 206.336 112.706 206.003 113.062C205.673 113.415 205.258 113.689 204.758 113.886C204.262 114.08 203.696 114.176 203.059 114.176ZM211.956 114.17C211.251 114.17 210.622 113.991 210.069 113.631C209.52 113.267 209.088 112.75 208.774 112.08C208.463 111.405 208.308 110.597 208.308 109.653C208.308 108.71 208.465 107.903 208.78 107.233C209.098 106.562 209.533 106.049 210.086 105.693C210.639 105.337 211.266 105.159 211.967 105.159C212.509 105.159 212.944 105.25 213.274 105.432C213.607 105.61 213.865 105.818 214.047 106.057C214.232 106.295 214.376 106.506 214.478 106.688H214.581V102.364H216.28V114H214.62V112.642H214.478C214.376 112.828 214.228 113.04 214.035 113.278C213.846 113.517 213.584 113.725 213.251 113.903C212.918 114.081 212.486 114.17 211.956 114.17ZM212.331 112.722C212.819 112.722 213.232 112.593 213.569 112.335C213.91 112.074 214.168 111.712 214.342 111.25C214.52 110.788 214.609 110.25 214.609 109.636C214.609 109.03 214.522 108.5 214.348 108.045C214.173 107.591 213.918 107.237 213.581 106.983C213.244 106.729 212.827 106.602 212.331 106.602C211.819 106.602 211.393 106.735 211.052 107C210.711 107.265 210.454 107.627 210.28 108.085C210.109 108.544 210.024 109.061 210.024 109.636C210.024 110.22 210.111 110.744 210.285 111.21C210.459 111.676 210.717 112.045 211.058 112.318C211.403 112.587 211.827 112.722 212.331 112.722ZM229.422 105.42C229.361 104.883 229.111 104.466 228.672 104.17C228.232 103.871 227.679 103.722 227.012 103.722C226.535 103.722 226.122 103.797 225.774 103.949C225.425 104.097 225.155 104.301 224.961 104.562C224.772 104.82 224.677 105.114 224.677 105.443C224.677 105.72 224.742 105.958 224.87 106.159C225.003 106.36 225.175 106.528 225.387 106.665C225.603 106.797 225.834 106.909 226.081 107C226.327 107.087 226.564 107.159 226.791 107.216L227.927 107.511C228.298 107.602 228.679 107.725 229.069 107.881C229.459 108.036 229.821 108.241 230.155 108.494C230.488 108.748 230.757 109.062 230.961 109.438C231.17 109.812 231.274 110.261 231.274 110.784C231.274 111.443 231.103 112.028 230.762 112.54C230.425 113.051 229.935 113.455 229.291 113.75C228.651 114.045 227.876 114.193 226.967 114.193C226.096 114.193 225.342 114.055 224.706 113.778C224.069 113.502 223.571 113.11 223.211 112.602C222.851 112.091 222.653 111.485 222.615 110.784H224.376C224.41 111.205 224.547 111.555 224.785 111.835C225.028 112.112 225.336 112.318 225.711 112.455C226.09 112.587 226.505 112.653 226.956 112.653C227.452 112.653 227.893 112.576 228.28 112.42C228.67 112.261 228.976 112.042 229.2 111.761C229.423 111.477 229.535 111.146 229.535 110.767C229.535 110.422 229.437 110.14 229.24 109.92C229.047 109.701 228.783 109.519 228.45 109.375C228.12 109.231 227.747 109.104 227.331 108.994L225.956 108.619C225.024 108.366 224.285 107.992 223.74 107.5C223.198 107.008 222.927 106.356 222.927 105.545C222.927 104.875 223.109 104.29 223.473 103.79C223.836 103.29 224.329 102.902 224.95 102.625C225.571 102.345 226.272 102.205 227.052 102.205C227.84 102.205 228.535 102.343 229.137 102.619C229.744 102.896 230.221 103.277 230.569 103.761C230.918 104.242 231.1 104.795 231.115 105.42H229.422ZM233.235 117.273V105.273H234.895V106.688H235.037C235.135 106.506 235.277 106.295 235.463 106.057C235.648 105.818 235.906 105.61 236.235 105.432C236.565 105.25 237.001 105.159 237.542 105.159C238.247 105.159 238.876 105.337 239.429 105.693C239.982 106.049 240.415 106.562 240.73 107.233C241.048 107.903 241.207 108.71 241.207 109.653C241.207 110.597 241.05 111.405 240.735 112.08C240.421 112.75 239.989 113.267 239.44 113.631C238.891 113.991 238.264 114.17 237.559 114.17C237.029 114.17 236.595 114.081 236.258 113.903C235.925 113.725 235.664 113.517 235.474 113.278C235.285 113.04 235.139 112.828 235.037 112.642H234.934V117.273H233.235ZM234.9 109.636C234.9 110.25 234.989 110.788 235.167 111.25C235.345 111.712 235.603 112.074 235.94 112.335C236.277 112.593 236.69 112.722 237.179 112.722C237.686 112.722 238.11 112.587 238.451 112.318C238.792 112.045 239.05 111.676 239.224 111.21C239.402 110.744 239.491 110.22 239.491 109.636C239.491 109.061 239.404 108.544 239.23 108.085C239.059 107.627 238.802 107.265 238.457 107C238.116 106.735 237.69 106.602 237.179 106.602C236.686 106.602 236.27 106.729 235.929 106.983C235.592 107.237 235.336 107.591 235.162 108.045C234.987 108.5 234.9 109.03 234.9 109.636ZM246.787 114.176C245.968 114.176 245.254 113.989 244.645 113.614C244.035 113.239 243.561 112.714 243.224 112.04C242.887 111.366 242.718 110.578 242.718 109.676C242.718 108.771 242.887 107.979 243.224 107.301C243.561 106.623 244.035 106.097 244.645 105.722C245.254 105.347 245.968 105.159 246.787 105.159C247.605 105.159 248.319 105.347 248.929 105.722C249.539 106.097 250.012 106.623 250.349 107.301C250.686 107.979 250.855 108.771 250.855 109.676C250.855 110.578 250.686 111.366 250.349 112.04C250.012 112.714 249.539 113.239 248.929 113.614C248.319 113.989 247.605 114.176 246.787 114.176ZM246.792 112.75C247.323 112.75 247.762 112.61 248.11 112.33C248.459 112.049 248.717 111.676 248.883 111.21C249.054 110.744 249.139 110.231 249.139 109.67C249.139 109.114 249.054 108.602 248.883 108.136C248.717 107.667 248.459 107.29 248.11 107.006C247.762 106.722 247.323 106.58 246.792 106.58C246.258 106.58 245.815 106.722 245.463 107.006C245.114 107.29 244.855 107.667 244.684 108.136C244.518 108.602 244.434 109.114 244.434 109.67C244.434 110.231 244.518 110.744 244.684 111.21C244.855 111.676 245.114 112.049 245.463 112.33C245.815 112.61 246.258 112.75 246.792 112.75ZM256.825 105.273V106.636H252.058V105.273H256.825ZM253.336 103.182H255.035V111.438C255.035 111.767 255.084 112.015 255.183 112.182C255.281 112.345 255.408 112.456 255.564 112.517C255.723 112.574 255.895 112.602 256.081 112.602C256.217 112.602 256.336 112.593 256.439 112.574C256.541 112.555 256.62 112.54 256.677 112.528L256.984 113.932C256.886 113.97 256.745 114.008 256.564 114.045C256.382 114.087 256.155 114.11 255.882 114.114C255.435 114.121 255.018 114.042 254.632 113.875C254.245 113.708 253.933 113.451 253.694 113.102C253.456 112.754 253.336 112.316 253.336 111.79V103.182ZM265.103 107.403L263.564 107.676C263.499 107.479 263.397 107.292 263.257 107.114C263.12 106.936 262.935 106.79 262.7 106.676C262.465 106.562 262.172 106.506 261.819 106.506C261.338 106.506 260.937 106.614 260.615 106.83C260.293 107.042 260.132 107.316 260.132 107.653C260.132 107.945 260.24 108.18 260.456 108.358C260.672 108.536 261.02 108.682 261.501 108.795L262.887 109.114C263.691 109.299 264.289 109.585 264.683 109.972C265.077 110.358 265.274 110.86 265.274 111.477C265.274 112 265.122 112.466 264.819 112.875C264.52 113.28 264.101 113.598 263.564 113.83C263.03 114.061 262.41 114.176 261.706 114.176C260.728 114.176 259.931 113.968 259.314 113.551C258.696 113.131 258.317 112.534 258.177 111.761L259.819 111.511C259.922 111.939 260.132 112.263 260.45 112.483C260.768 112.699 261.183 112.807 261.694 112.807C262.251 112.807 262.696 112.691 263.03 112.46C263.363 112.225 263.53 111.939 263.53 111.602C263.53 111.33 263.427 111.1 263.223 110.915C263.022 110.729 262.713 110.589 262.297 110.494L260.819 110.17C260.005 109.985 259.403 109.689 259.012 109.284C258.626 108.879 258.433 108.366 258.433 107.744C258.433 107.229 258.577 106.778 258.865 106.392C259.153 106.006 259.55 105.705 260.058 105.489C260.566 105.269 261.147 105.159 261.802 105.159C262.745 105.159 263.488 105.364 264.03 105.773C264.571 106.178 264.929 106.722 265.103 107.403Z"
    fill="#E5F3FF" />
  <path
    d="M107.411 113.289C107.411 132.619 91.7408 148.289 72.4108 148.289C53.0809 148.289 37.4108 132.619 37.4108 113.289C37.4108 93.9586 53.0809 78.2886 72.4108 78.2886C91.7408 78.2886 107.411 93.9586 107.411 113.289Z"
    fill="url(#paint6_radial_220_1049)" />
  <path
    d="M107.411 113.289C107.411 132.619 91.7408 148.289 72.4108 148.289C53.0809 148.289 37.4108 132.619 37.4108 113.289C37.4108 93.9586 53.0809 78.2886 72.4108 78.2886C91.7408 78.2886 107.411 93.9586 107.411 113.289Z"
    fill="#1CED86" />
  <path
    d="M107.411 113.289C107.411 132.619 91.7408 148.289 72.4108 148.289C53.0809 148.289 37.4108 132.619 37.4108 113.289C37.4108 93.9586 53.0809 78.2886 72.4108 78.2886C91.7408 78.2886 107.411 93.9586 107.411 113.289Z"
    stroke="url(#paint7_linear_220_1049)" stroke-width="2" />
  <path
    d="M58.5132 120.159C57.7102 120.159 56.9942 120.011 56.3655 119.716C55.7405 119.42 55.2442 119.013 54.8768 118.494C54.5094 117.975 54.3181 117.381 54.303 116.71H56.6893C56.7158 117.161 56.9052 117.527 57.2575 117.807C57.6098 118.087 58.0283 118.227 58.5132 118.227C58.8996 118.227 59.2405 118.142 59.5359 117.972C59.8352 117.797 60.0681 117.557 60.2348 117.25C60.4052 116.939 60.4905 116.583 60.4905 116.182C60.4905 115.773 60.4033 115.413 60.2291 115.102C60.0586 114.792 59.8219 114.549 59.5189 114.375C59.2158 114.201 58.8692 114.112 58.4791 114.108C58.1382 114.108 57.8067 114.178 57.4848 114.318C57.1666 114.458 56.9185 114.65 56.7405 114.892L54.553 114.5L55.1041 108.364H62.2177V110.375H57.1325L56.8314 113.29H56.8996C57.1041 113.002 57.4128 112.763 57.8257 112.574C58.2386 112.384 58.7007 112.29 59.2121 112.29C59.9128 112.29 60.5378 112.455 61.0871 112.784C61.6363 113.114 62.07 113.566 62.3882 114.142C62.7064 114.714 62.8636 115.373 62.8598 116.119C62.8636 116.903 62.6817 117.6 62.3143 118.21C61.9507 118.816 61.4412 119.294 60.7859 119.642C60.1344 119.987 59.3768 120.159 58.5132 120.159ZM69.1382 120.256C68.1609 120.252 67.32 120.011 66.6155 119.534C65.9147 119.057 65.3749 118.366 64.9961 117.46C64.6211 116.555 64.4355 115.466 64.4393 114.193C64.4393 112.924 64.6268 111.843 65.0018 110.949C65.3806 110.055 65.9204 109.375 66.6211 108.909C67.3257 108.439 68.1647 108.205 69.1382 108.205C70.1117 108.205 70.9488 108.439 71.6496 108.909C72.3541 109.379 72.8958 110.061 73.2746 110.955C73.6533 111.845 73.8408 112.924 73.8371 114.193C73.8371 115.47 73.6477 116.561 73.2689 117.466C72.8939 118.371 72.356 119.062 71.6552 119.54C70.9545 120.017 70.1155 120.256 69.1382 120.256ZM69.1382 118.216C69.8049 118.216 70.3371 117.881 70.7348 117.21C71.1325 116.54 71.3295 115.534 71.3257 114.193C71.3257 113.311 71.2348 112.576 71.053 111.989C70.8749 111.402 70.6211 110.96 70.2916 110.665C69.9658 110.369 69.5814 110.222 69.1382 110.222C68.4753 110.222 67.945 110.553 67.5473 111.216C67.1496 111.879 66.9488 112.871 66.945 114.193C66.945 115.087 67.034 115.833 67.2121 116.432C67.3939 117.027 67.6496 117.473 67.9791 117.773C68.3086 118.068 68.695 118.216 69.1382 118.216ZM80.1538 120.256C79.1765 120.252 78.3356 120.011 77.6311 119.534C76.9303 119.057 76.3906 118.366 76.0118 117.46C75.6368 116.555 75.4512 115.466 75.455 114.193C75.455 112.924 75.6425 111.843 76.0175 110.949C76.3962 110.055 76.936 109.375 77.6368 108.909C78.3413 108.439 79.1803 108.205 80.1538 108.205C81.1273 108.205 81.9644 108.439 82.6652 108.909C83.3697 109.379 83.9114 110.061 84.2902 110.955C84.669 111.845 84.8565 112.924 84.8527 114.193C84.8527 115.47 84.6633 116.561 84.2845 117.466C83.9095 118.371 83.3716 119.062 82.6709 119.54C81.9701 120.017 81.1311 120.256 80.1538 120.256ZM80.1538 118.216C80.8205 118.216 81.3527 117.881 81.7504 117.21C82.1481 116.54 82.3451 115.534 82.3413 114.193C82.3413 113.311 82.2504 112.576 82.0686 111.989C81.8906 111.402 81.6368 110.96 81.3072 110.665C80.9815 110.369 80.597 110.222 80.1538 110.222C79.4909 110.222 78.9606 110.553 78.5629 111.216C78.1652 111.879 77.9644 112.871 77.9606 114.193C77.9606 115.087 78.0496 115.833 78.2277 116.432C78.4095 117.027 78.6652 117.473 78.9947 117.773C79.3243 118.068 79.7106 118.216 80.1538 118.216ZM91.1694 120.256C90.1922 120.252 89.3513 120.011 88.6467 119.534C87.946 119.057 87.4062 118.366 87.0274 117.46C86.6524 116.555 86.4668 115.466 86.4706 114.193C86.4706 112.924 86.6581 111.843 87.0331 110.949C87.4119 110.055 87.9516 109.375 88.6524 108.909C89.3569 108.439 90.196 108.205 91.1694 108.205C92.1429 108.205 92.98 108.439 93.6808 108.909C94.3853 109.379 94.927 110.061 95.3058 110.955C95.6846 111.845 95.8721 112.924 95.8683 114.193C95.8683 115.47 95.6789 116.561 95.3001 117.466C94.9251 118.371 94.3872 119.062 93.6865 119.54C92.9857 120.017 92.1467 120.256 91.1694 120.256ZM91.1694 118.216C91.8361 118.216 92.3683 117.881 92.766 117.21C93.1638 116.54 93.3607 115.534 93.3569 114.193C93.3569 113.311 93.266 112.576 93.0842 111.989C92.9062 111.402 92.6524 110.96 92.3228 110.665C91.9971 110.369 91.6126 110.222 91.1694 110.222C90.5066 110.222 89.9763 110.553 89.5785 111.216C89.1808 111.879 88.98 112.871 88.9763 114.193C88.9763 115.087 89.0653 115.833 89.2433 116.432C89.4251 117.027 89.6808 117.473 90.0103 117.773C90.3399 118.068 90.7263 118.216 91.1694 118.216Z"
    fill="#18332E" />
  <path d="M135.829 152.881L468.845 166.208L467.79 217.697L134.394 222.866L135.829 152.881Z"
    fill="url(#paint8_linear_220_1049)" />
  <path d="M135.829 152.881L468.579 179.205L468.158 199.701L134.394 222.866L135.829 152.881Z"
    fill="url(#paint9_linear_220_1049)" fill-opacity="0.25" />
  <path
    d="M177.023 188.732C176.626 208.058 160.639 223.404 141.313 223.008C121.987 222.612 106.641 206.624 107.037 187.298C107.433 167.972 123.421 152.626 142.747 153.022C162.073 153.419 177.419 169.406 177.023 188.732Z"
    fill="url(#paint10_radial_220_1049)" stroke="url(#paint11_linear_220_1049)" stroke-width="2" />
  <path
    d="M182.183 180.711L182.214 179.2L191.218 179.384L191.187 180.895L187.557 180.821L187.349 190.944L185.6 190.908L185.807 180.785L182.183 180.711ZM195.239 191.282C194.421 191.265 193.711 191.063 193.109 190.675C192.507 190.288 192.044 189.754 191.721 189.073C191.398 188.392 191.245 187.6 191.264 186.699C191.282 185.794 191.467 185.006 191.818 184.335C192.169 183.664 192.653 183.147 193.27 182.785C193.888 182.422 194.606 182.25 195.424 182.266C196.242 182.283 196.952 182.485 197.554 182.873C198.156 183.26 198.618 183.796 198.941 184.481C199.265 185.166 199.417 185.961 199.398 186.866C199.38 187.767 199.195 188.551 198.844 189.219C198.493 189.886 198.009 190.401 197.392 190.763C196.774 191.125 196.057 191.298 195.239 191.282ZM195.274 189.856C195.804 189.867 196.246 189.736 196.6 189.462C196.954 189.189 197.22 188.822 197.396 188.359C197.576 187.897 197.671 187.386 197.683 186.825C197.694 186.268 197.62 185.755 197.459 185.286C197.302 184.813 197.052 184.431 196.709 184.14C196.367 183.849 195.93 183.698 195.4 183.687C194.866 183.676 194.42 183.809 194.062 184.085C193.708 184.362 193.441 184.734 193.261 185.2C193.085 185.662 192.991 186.172 192.979 186.729C192.968 187.289 193.041 187.804 193.198 188.273C193.359 188.742 193.61 189.121 193.953 189.408C194.299 189.696 194.74 189.845 195.274 189.856ZM205.457 182.586L205.43 183.949L200.663 183.851L200.691 182.488L205.457 182.586ZM202.012 180.424L203.711 180.459L203.542 188.713C203.535 189.042 203.579 189.291 203.674 189.46C203.769 189.625 203.894 189.739 204.048 189.803C204.206 189.863 204.378 189.895 204.563 189.898C204.699 189.901 204.819 189.894 204.922 189.877C205.024 189.861 205.104 189.847 205.161 189.837L205.439 191.246C205.34 191.282 205.199 191.317 205.016 191.351C204.834 191.389 204.606 191.407 204.333 191.405C203.886 191.404 203.471 191.316 203.088 191.141C202.706 190.967 202.398 190.703 202.167 190.349C201.936 189.996 201.825 189.556 201.836 189.03L202.012 180.424ZM209.693 191.595C209.14 191.584 208.642 191.471 208.199 191.257C207.757 191.04 207.409 190.732 207.156 190.332C206.906 189.933 206.787 189.448 206.799 188.876C206.809 188.384 206.912 187.98 207.108 187.666C207.304 187.352 207.565 187.105 207.89 186.926C208.216 186.747 208.579 186.615 208.978 186.528C209.378 186.442 209.785 186.378 210.198 186.337C210.722 186.287 211.147 186.247 211.474 186.215C211.8 186.18 212.038 186.119 212.188 186.031C212.338 185.943 212.414 185.797 212.419 185.593L212.419 185.553C212.43 185.057 212.297 184.67 212.023 184.391C211.752 184.113 211.342 183.968 210.793 183.957C210.221 183.945 209.768 184.063 209.433 184.31C209.102 184.553 208.871 184.827 208.74 185.131L207.151 184.735C207.351 184.208 207.636 183.786 208.007 183.468C208.381 183.146 208.808 182.916 209.288 182.778C209.768 182.636 210.272 182.571 210.798 182.582C211.147 182.589 211.515 182.638 211.903 182.729C212.296 182.817 212.66 182.972 212.996 183.195C213.336 183.418 213.612 183.732 213.824 184.138C214.035 184.54 214.134 185.06 214.121 185.696L214.003 191.49L212.344 191.456L212.368 190.263L212.3 190.262C212.186 190.479 212.017 190.692 211.793 190.899C211.569 191.107 211.283 191.277 210.935 191.41C210.588 191.543 210.174 191.605 209.693 191.595ZM210.09 190.239C210.56 190.249 210.963 190.164 211.3 189.985C211.641 189.807 211.901 189.57 212.082 189.274C212.266 188.975 212.362 188.653 212.369 188.308L212.392 187.183C212.33 187.243 212.211 187.297 212.036 187.347C211.865 187.392 211.669 187.432 211.448 187.465C211.228 187.495 211.013 187.523 210.804 187.549C210.596 187.571 210.421 187.59 210.28 187.606C209.95 187.641 209.647 187.705 209.373 187.798C209.102 187.891 208.883 188.028 208.716 188.211C208.554 188.389 208.469 188.63 208.463 188.933C208.454 189.353 208.603 189.674 208.909 189.897C209.215 190.115 209.609 190.229 210.09 190.239ZM218.202 179.937L217.963 191.571L216.265 191.536L216.503 179.902L218.202 179.937ZM224.618 191.708L224.857 180.074L229.117 180.161C229.943 180.178 230.624 180.328 231.16 180.612C231.696 180.892 232.093 181.266 232.353 181.733C232.612 182.197 232.736 182.717 232.724 183.292C232.714 183.777 232.617 184.184 232.432 184.514C232.247 184.84 232.003 185.1 231.7 185.295C231.401 185.485 231.072 185.623 230.714 185.706L230.712 185.82C231.098 185.847 231.472 185.979 231.835 186.218C232.201 186.453 232.501 186.783 232.735 187.208C232.969 187.634 233.079 188.147 233.067 188.749C233.055 189.344 232.904 189.875 232.614 190.343C232.328 190.807 231.892 191.171 231.307 191.436C230.722 191.696 229.979 191.817 229.078 191.799L224.618 191.708ZM226.404 190.238L228.938 190.29C229.779 190.307 230.384 190.157 230.755 189.839C231.125 189.52 231.315 189.117 231.325 188.628C231.332 188.261 231.247 187.922 231.067 187.612C230.888 187.301 230.628 187.051 230.287 186.863C229.95 186.674 229.547 186.575 229.077 186.565L226.481 186.512L226.404 190.238ZM226.509 185.143L228.861 185.191C229.255 185.199 229.61 185.13 229.928 184.985C230.249 184.84 230.505 184.634 230.696 184.365C230.891 184.092 230.993 183.768 231 183.393C231.01 182.912 230.85 182.506 230.519 182.173C230.189 181.841 229.676 181.667 228.979 181.653L226.581 181.604L226.509 185.143ZM241.606 183.474C241.556 182.935 241.315 182.514 240.882 182.209C240.449 181.901 239.899 181.74 239.232 181.727C238.755 181.717 238.341 181.784 237.989 181.928C237.638 182.069 237.363 182.268 237.164 182.525C236.97 182.779 236.869 183.07 236.862 183.4C236.856 183.676 236.916 183.916 237.041 184.12C237.169 184.323 237.338 184.495 237.547 184.636C237.76 184.773 237.989 184.889 238.233 184.985C238.478 185.077 238.713 185.154 238.939 185.216L240.069 185.534C240.438 185.633 240.816 185.764 241.203 185.927C241.59 186.09 241.948 186.302 242.276 186.563C242.604 186.823 242.866 187.143 243.063 187.522C243.264 187.901 243.359 188.352 243.348 188.875C243.334 189.534 243.152 190.115 242.801 190.62C242.453 191.124 241.954 191.517 241.305 191.8C240.659 192.082 239.881 192.214 238.972 192.195C238.101 192.177 237.35 192.023 236.72 191.734C236.089 191.444 235.599 191.042 235.25 190.527C234.901 190.009 234.714 189.399 234.691 188.697L236.452 188.734C236.477 189.155 236.606 189.508 236.839 189.793C237.076 190.074 237.38 190.287 237.752 190.431C238.128 190.571 238.542 190.646 238.992 190.655C239.488 190.666 239.931 190.597 240.321 190.45C240.714 190.298 241.025 190.085 241.254 189.809C241.484 189.53 241.602 189.201 241.61 188.822C241.617 188.478 241.524 188.193 241.332 187.97C241.143 187.746 240.884 187.559 240.554 187.408C240.227 187.258 239.857 187.123 239.442 187.005L238.075 186.602C237.149 186.329 236.418 185.941 235.883 185.437C235.351 184.934 235.094 184.277 235.11 183.466C235.124 182.796 235.318 182.215 235.692 181.722C236.066 181.23 236.566 180.852 237.193 180.588C237.819 180.32 238.523 180.195 239.303 180.211C240.091 180.227 240.783 180.379 241.379 180.668C241.98 180.957 242.449 181.347 242.787 181.839C243.126 182.327 243.296 182.884 243.299 183.509L241.606 183.474ZM245.013 181.998L245.044 180.487L254.048 180.672L254.017 182.183L250.387 182.109L250.18 192.232L248.43 192.196L248.638 182.073L245.013 181.998ZM266.554 183.986C266.504 183.447 266.263 183.025 265.83 182.721C265.396 182.413 264.847 182.252 264.18 182.238C263.703 182.228 263.289 182.295 262.937 182.44C262.586 182.58 262.311 182.779 262.112 183.037C261.917 183.29 261.817 183.582 261.81 183.911C261.804 184.188 261.864 184.428 261.989 184.631C262.117 184.834 262.286 185.006 262.495 185.147C262.708 185.284 262.937 185.401 263.181 185.497C263.426 185.589 263.661 185.665 263.887 185.727L265.017 186.046C265.386 186.144 265.764 186.275 266.151 186.438C266.538 186.602 266.896 186.813 267.224 187.074C267.552 187.335 267.814 187.654 268.011 188.034C268.212 188.413 268.307 188.864 268.296 189.386C268.282 190.045 268.1 190.627 267.749 191.131C267.401 191.635 266.902 192.029 266.252 192.311C265.606 192.593 264.829 192.725 263.92 192.706C263.049 192.689 262.298 192.535 261.668 192.245C261.037 191.956 260.547 191.554 260.198 191.039C259.848 190.52 259.662 189.91 259.639 189.209L261.4 189.245C261.425 189.666 261.554 190.019 261.787 190.304C262.024 190.586 262.328 190.798 262.7 190.942C263.076 191.083 263.49 191.157 263.94 191.167C264.436 191.177 264.879 191.108 265.269 190.961C265.662 190.81 265.973 190.596 266.202 190.321C266.432 190.041 266.55 189.712 266.558 189.334C266.565 188.989 266.472 188.705 266.28 188.481C266.091 188.258 265.832 188.07 265.501 187.92C265.175 187.769 264.804 187.634 264.39 187.516L263.023 187.113C262.097 186.84 261.366 186.452 260.831 185.948C260.299 185.445 260.042 184.788 260.058 183.978C260.072 183.307 260.266 182.726 260.64 182.234C261.013 181.741 261.514 181.363 262.14 181.099C262.767 180.832 263.471 180.706 264.251 180.722C265.039 180.738 265.731 180.891 266.327 181.179C266.927 181.468 267.397 181.859 267.735 182.351C268.074 182.839 268.244 183.395 268.247 184.02L266.554 183.986ZM274.443 184L274.415 185.363L269.649 185.265L269.677 183.902L274.443 184ZM270.998 181.838L272.696 181.873L272.527 190.127C272.521 190.456 272.565 190.705 272.66 190.874C272.755 191.039 272.879 191.153 273.033 191.217C273.191 191.277 273.363 191.309 273.549 191.312C273.685 191.315 273.804 191.308 273.907 191.291C274.01 191.275 274.09 191.261 274.147 191.251L274.425 192.66C274.325 192.696 274.184 192.731 274.002 192.765C273.819 192.803 273.592 192.821 273.319 192.819C272.872 192.818 272.457 192.73 272.074 192.555C271.691 192.381 271.384 192.117 271.153 191.763C270.921 191.41 270.811 190.97 270.822 190.444L270.998 181.838ZM278.678 193.009C278.125 192.998 277.628 192.885 277.185 192.671C276.742 192.454 276.394 192.146 276.141 191.746C275.892 191.347 275.773 190.862 275.785 190.29C275.795 189.798 275.898 189.394 276.093 189.08C276.289 188.766 276.55 188.519 276.876 188.34C277.202 188.161 277.564 188.029 277.964 187.942C278.363 187.856 278.77 187.792 279.184 187.751C279.708 187.701 280.133 187.661 280.459 187.629C280.786 187.594 281.024 187.533 281.174 187.445C281.323 187.357 281.4 187.211 281.404 187.007L281.405 186.967C281.415 186.471 281.283 186.084 281.008 185.805C280.737 185.527 280.327 185.382 279.778 185.371C279.206 185.359 278.753 185.477 278.418 185.724C278.088 185.967 277.857 186.241 277.725 186.545L276.137 186.149C276.337 185.622 276.622 185.2 276.992 184.882C277.366 184.56 277.793 184.33 278.274 184.192C278.754 184.05 279.257 183.985 279.784 183.996C280.132 184.003 280.5 184.052 280.889 184.143C281.281 184.231 281.645 184.386 281.982 184.609C282.322 184.832 282.598 185.146 282.809 185.552C283.021 185.954 283.12 186.474 283.107 187.11L282.988 192.904L281.329 192.87L281.354 191.677L281.286 191.676C281.171 191.893 281.002 192.106 280.778 192.313C280.554 192.521 280.268 192.691 279.921 192.824C279.573 192.957 279.159 193.019 278.678 193.009ZM279.075 191.653C279.545 191.663 279.948 191.578 280.285 191.399C280.626 191.221 280.887 190.984 281.067 190.688C281.251 190.389 281.347 190.067 281.354 189.722L281.377 188.597C281.315 188.657 281.197 188.711 281.022 188.761C280.85 188.806 280.654 188.846 280.434 188.879C280.213 188.909 279.999 188.937 279.79 188.963C279.581 188.985 279.406 189.004 279.266 189.02C278.936 189.055 278.633 189.119 278.358 189.212C278.087 189.305 277.869 189.442 277.702 189.625C277.539 189.803 277.455 190.044 277.448 190.347C277.44 190.767 277.589 191.088 277.895 191.311C278.201 191.529 278.595 191.643 279.075 191.653ZM286.873 190.023L286.904 187.949L287.2 187.955L290.752 184.334L292.786 184.376L288.734 188.498L288.468 188.493L286.873 190.023ZM285.25 192.95L285.489 181.316L287.187 181.351L286.949 192.985L285.25 192.95ZM290.761 193.063L287.721 188.852L288.916 187.689L292.845 193.106L290.761 193.063ZM297.553 193.379C296.693 193.361 295.956 193.162 295.343 192.782C294.733 192.398 294.267 191.868 293.943 191.191C293.624 190.51 293.473 189.717 293.492 188.812C293.51 187.918 293.693 187.134 294.04 186.459C294.391 185.784 294.872 185.261 295.482 184.891C296.095 184.521 296.808 184.344 297.618 184.361C298.11 184.371 298.586 184.462 299.045 184.635C299.503 184.807 299.913 185.071 300.273 185.427C300.633 185.783 300.913 186.242 301.114 186.803C301.315 187.36 301.407 188.034 301.391 188.826L301.379 189.428L294.443 189.286L294.469 188.013L299.74 188.121C299.749 187.674 299.667 187.277 299.492 186.928C299.317 186.576 299.067 186.297 298.742 186.089C298.42 185.882 298.04 185.773 297.601 185.764C297.123 185.755 296.704 185.864 296.344 186.091C295.987 186.315 295.708 186.612 295.507 186.983C295.31 187.35 295.207 187.752 295.198 188.187L295.178 189.181C295.166 189.765 295.258 190.263 295.454 190.676C295.654 191.089 295.937 191.408 296.304 191.631C296.671 191.851 297.102 191.966 297.598 191.976C297.92 191.983 298.215 191.943 298.482 191.858C298.749 191.768 298.981 191.633 299.178 191.451C299.375 191.27 299.527 191.044 299.635 190.773L301.236 191.096C301.098 191.567 300.858 191.976 300.518 192.326C300.181 192.671 299.761 192.937 299.257 193.124C298.757 193.307 298.189 193.392 297.553 193.379ZM306.447 193.555C305.743 193.541 305.118 193.348 304.572 192.977C304.03 192.602 303.609 192.076 303.309 191.4C303.012 190.719 302.873 189.907 302.893 188.964C302.912 188.021 303.086 187.218 303.414 186.554C303.746 185.89 304.192 185.386 304.752 185.042C305.312 184.697 305.942 184.532 306.643 184.546C307.185 184.557 307.618 184.657 307.944 184.846C308.274 185.03 308.527 185.244 308.704 185.486C308.884 185.729 309.024 185.942 309.123 186.126L309.225 186.128L309.313 181.805L311.012 181.84L310.774 193.474L309.115 193.44L309.143 192.082L309.001 192.079C308.895 192.262 308.742 192.471 308.544 192.706C308.35 192.941 308.085 193.144 307.748 193.315C307.411 193.486 306.977 193.566 306.447 193.555ZM306.852 192.114C307.34 192.124 307.756 192.004 308.098 191.754C308.444 191.499 308.709 191.143 308.893 190.684C309.08 190.226 309.18 189.69 309.193 189.077C309.205 188.471 309.129 187.939 308.964 187.481C308.799 187.023 308.551 186.663 308.219 186.403C307.887 186.142 307.473 186.007 306.977 185.996C306.466 185.986 306.037 186.11 305.691 186.368C305.345 186.626 305.08 186.982 304.896 187.437C304.716 187.892 304.62 188.407 304.609 188.983C304.597 189.566 304.673 190.092 304.838 190.561C305.002 191.031 305.252 191.405 305.587 191.685C305.927 191.961 306.348 192.104 306.852 192.114Z"
    fill="#E5F3FF" />
  <path
    d="M121.357 193.159C120.554 193.159 119.838 193.011 119.209 192.716C118.584 192.42 118.088 192.013 117.721 191.494C117.353 190.975 117.162 190.381 117.147 189.71H119.533C119.56 190.161 119.749 190.527 120.101 190.807C120.454 191.087 120.872 191.227 121.357 191.227C121.743 191.227 122.084 191.142 122.38 190.972C122.679 190.797 122.912 190.557 123.079 190.25C123.249 189.939 123.334 189.583 123.334 189.182C123.334 188.773 123.247 188.413 123.073 188.102C122.902 187.792 122.666 187.549 122.363 187.375C122.06 187.201 121.713 187.112 121.323 187.108C120.982 187.108 120.65 187.178 120.329 187.318C120.01 187.458 119.762 187.65 119.584 187.892L117.397 187.5L117.948 181.364H125.061V183.375H119.976L119.675 186.29H119.743C119.948 186.002 120.257 185.763 120.669 185.574C121.082 185.384 121.544 185.29 122.056 185.29C122.757 185.29 123.382 185.455 123.931 185.784C124.48 186.114 124.914 186.566 125.232 187.142C125.55 187.714 125.707 188.373 125.704 189.119C125.707 189.903 125.525 190.6 125.158 191.21C124.794 191.816 124.285 192.294 123.63 192.642C122.978 192.987 122.221 193.159 121.357 193.159ZM131.982 193.256C131.005 193.252 130.164 193.011 129.459 192.534C128.758 192.057 128.219 191.366 127.84 190.46C127.465 189.555 127.279 188.466 127.283 187.193C127.283 185.924 127.471 184.843 127.846 183.949C128.224 183.055 128.764 182.375 129.465 181.909C130.169 181.439 131.008 181.205 131.982 181.205C132.955 181.205 133.793 181.439 134.493 181.909C135.198 182.379 135.74 183.061 136.118 183.955C136.497 184.845 136.685 185.924 136.681 187.193C136.681 188.47 136.491 189.561 136.113 190.466C135.738 191.371 135.2 192.062 134.499 192.54C133.798 193.017 132.959 193.256 131.982 193.256ZM131.982 191.216C132.649 191.216 133.181 190.881 133.579 190.21C133.976 189.54 134.173 188.534 134.169 187.193C134.169 186.311 134.079 185.576 133.897 184.989C133.719 184.402 133.465 183.96 133.135 183.665C132.81 183.369 132.425 183.222 131.982 183.222C131.319 183.222 130.789 183.553 130.391 184.216C129.993 184.879 129.793 185.871 129.789 187.193C129.789 188.087 129.878 188.833 130.056 189.432C130.238 190.027 130.493 190.473 130.823 190.773C131.152 191.068 131.539 191.216 131.982 191.216ZM142.998 193.256C142.02 193.252 141.179 193.011 140.475 192.534C139.774 192.057 139.234 191.366 138.856 190.46C138.481 189.555 138.295 188.466 138.299 187.193C138.299 185.924 138.486 184.843 138.861 183.949C139.24 183.055 139.78 182.375 140.481 181.909C141.185 181.439 142.024 181.205 142.998 181.205C143.971 181.205 144.808 181.439 145.509 181.909C146.213 182.379 146.755 183.061 147.134 183.955C147.513 184.845 147.7 185.924 147.696 187.193C147.696 188.47 147.507 189.561 147.128 190.466C146.753 191.371 146.215 192.062 145.515 192.54C144.814 193.017 143.975 193.256 142.998 193.256ZM142.998 191.216C143.664 191.216 144.196 190.881 144.594 190.21C144.992 189.54 145.189 188.534 145.185 187.193C145.185 186.311 145.094 185.576 144.912 184.989C144.734 184.402 144.481 183.96 144.151 183.665C143.825 183.369 143.441 183.222 142.998 183.222C142.335 183.222 141.804 183.553 141.407 184.216C141.009 184.879 140.808 185.871 140.804 187.193C140.804 188.087 140.893 188.833 141.071 189.432C141.253 190.027 141.509 190.473 141.838 190.773C142.168 191.068 142.554 191.216 142.998 191.216ZM154.013 193.256C153.036 193.252 152.195 193.011 151.49 192.534C150.79 192.057 150.25 191.366 149.871 190.46C149.496 189.555 149.311 188.466 149.314 187.193C149.314 185.924 149.502 184.843 149.877 183.949C150.256 183.055 150.795 182.375 151.496 181.909C152.201 181.439 153.04 181.205 154.013 181.205C154.987 181.205 155.824 181.439 156.525 181.909C157.229 182.379 157.771 183.061 158.15 183.955C158.528 184.845 158.716 185.924 158.712 187.193C158.712 188.47 158.523 189.561 158.144 190.466C157.769 191.371 157.231 192.062 156.53 192.54C155.829 193.017 154.99 193.256 154.013 193.256ZM154.013 191.216C154.68 191.216 155.212 190.881 155.61 190.21C156.008 189.54 156.204 188.534 156.201 187.193C156.201 186.311 156.11 185.576 155.928 184.989C155.75 184.402 155.496 183.96 155.167 183.665C154.841 183.369 154.456 183.222 154.013 183.222C153.35 183.222 152.82 183.553 152.422 184.216C152.025 184.879 151.824 185.871 151.82 187.193C151.82 188.087 151.909 188.833 152.087 189.432C152.269 190.027 152.525 190.473 152.854 190.773C153.184 191.068 153.57 191.216 154.013 191.216ZM162.682 190.489L162.688 187.585H163.04L165.836 184.273H168.614L164.858 188.659H164.284L162.682 190.489ZM160.489 193V181.364H162.909V193H160.489ZM165.944 193L163.375 189.199L164.989 187.489L168.779 193H165.944Z"
    fill="#18332E" />
  <defs>
    <linearGradient id="paint0_linear_220_1049" x1="35.8993" y1="36.1821" x2="385.698" y2="36.1821"
      gradientUnits="userSpaceOnUse">
      <stop stop-color="#01A56A" stop-opacity="0.25" />
      <stop offset="0.958333" stop-color="#017A4E" stop-opacity="0" />
    </linearGradient>
    <linearGradient id="paint1_linear_220_1049" x1="35.8993" y1="36.1821" x2="385.698" y2="36.1821"
      gradientUnits="userSpaceOnUse">
      <stop stop-color="white" stop-opacity="0.4" />
      <stop offset="0.958333" stop-color="white" stop-opacity="0" />
    </linearGradient>
    <radialGradient id="paint2_radial_220_1049" cx="0" cy="0" r="1" gradientUnits="userSpaceOnUse"
      gradientTransform="translate(37.81 37.389) rotate(57.3039) scale(35.3754)">
      <stop stop-color="#00AD6F" />
      <stop offset="1" stop-color="#00784D" />
    </radialGradient>
    <linearGradient id="paint3_linear_220_1049" x1="11.8618" y1="10.0327" x2="60.1376" y2="71.1821"
      gradientUnits="userSpaceOnUse">
      <stop stop-color="#5A7A9D" />
      <stop offset="0.492708" stop-color="#122942" />
      <stop offset="1" stop-color="#5F81A7" />
    </linearGradient>
    <linearGradient id="paint4_linear_220_1049" x1="73.1302" y1="114.289" x2="390.343" y2="114.289"
      gradientUnits="userSpaceOnUse">
      <stop stop-color="#B7CFFF" stop-opacity="0.25" />
      <stop offset="0.958333" stop-color="#0B3077" stop-opacity="0" />
    </linearGradient>
    <linearGradient id="paint5_linear_220_1049" x1="73.1302" y1="114.289" x2="390.343" y2="114.289"
      gradientUnits="userSpaceOnUse">
      <stop stop-color="white" stop-opacity="0.4" />
      <stop offset="0.958333" stop-color="white" stop-opacity="0" />
    </linearGradient>
    <radialGradient id="paint6_radial_220_1049" cx="0" cy="0" r="1" gradientUnits="userSpaceOnUse"
      gradientTransform="translate(74.2212 114.495) rotate(57.3039) scale(35.3754)">
      <stop stop-color="#C9E3FF" />
      <stop offset="1" stop-color="#E3F0FF" />
    </radialGradient>
    <linearGradient id="paint7_linear_220_1049" x1="48.2729" y1="87.1391" x2="96.5488" y2="148.289"
      gradientUnits="userSpaceOnUse">
      <stop stop-color="#5A7A9D" />
      <stop offset="0.492708" stop-color="#122942" />
      <stop offset="1" stop-color="#5F81A7" />
    </linearGradient>
    <linearGradient id="paint8_linear_220_1049" x1="142.749" y1="188.03" x2="459.896" y2="194.53"
      gradientUnits="userSpaceOnUse">
      <stop stop-color="#B7CFFF" stop-opacity="0.25" />
      <stop offset="0.958333" stop-color="#0B3077" stop-opacity="0" />
    </linearGradient>
    <linearGradient id="paint9_linear_220_1049" x1="142.749" y1="188.03" x2="459.896" y2="194.53"
      gradientUnits="userSpaceOnUse">
      <stop stop-color="white" stop-opacity="0.4" />
      <stop offset="0.958333" stop-color="white" stop-opacity="0" />
    </linearGradient>
    <radialGradient id="paint10_radial_220_1049" cx="0" cy="0" r="1" gradientUnits="userSpaceOnUse"
      gradientTransform="translate(143.815 189.259) rotate(58.4782) scale(35.3754)">
      <stop stop-color="#C9E3FF" />
      <stop offset="1" stop-color="#E3F0FF" />
    </radialGradient>
    <linearGradient id="paint11_linear_220_1049" x1="118.433" y1="161.377" x2="165.446" y2="223.502"
      gradientUnits="userSpaceOnUse">
      <stop stop-color="#5A7A9D" />
      <stop offset="0.492708" stop-color="#122942" />
      <stop offset="1" stop-color="#5F81A7" />
    </linearGradient>
  </defs>
</svg>