<svg width="14" height="14" viewBox="0 0 14 14" fill="none" xmlns="http://www.w3.org/2000/svg">
  <g opacity="0.4">
    <path
      d="M9.91667 13.2709H4.08333C1.51083 13.2709 0.729167 12.4892 0.729167 9.91671V8.75004C0.729167 6.17754 1.51083 5.39587 4.08333 5.39587H9.91667C12.4892 5.39587 13.2708 6.17754 13.2708 8.75004V9.91671C13.2708 12.4892 12.4892 13.2709 9.91667 13.2709ZM4.08333 6.27087C1.995 6.27087 1.60417 6.66754 1.60417 8.75004V9.91671C1.60417 11.9992 1.995 12.3959 4.08333 12.3959H9.91667C12.005 12.3959 12.3958 11.9992 12.3958 9.91671V8.75004C12.3958 6.66754 12.005 6.27087 9.91667 6.27087H4.08333Z"
      fill="#E5F3FF" />
    <path
      d="M3.5 6.27079C3.26083 6.27079 3.0625 6.07246 3.0625 5.83329V4.66663C3.0625 2.97496 3.47083 0.729126 7 0.729126C9.61333 0.729126 10.9375 1.85496 10.9375 4.08329C10.9375 4.32246 10.7392 4.52079 10.5 4.52079C10.2608 4.52079 10.0625 4.32246 10.0625 4.08329C10.0625 2.92829 9.7125 1.60413 7 1.60413C4.45667 1.60413 3.9375 2.82913 3.9375 4.66663V5.83329C3.9375 6.07246 3.73917 6.27079 3.5 6.27079Z"
      fill="#E5F3FF" />
    <path
      d="M7 11.2292C5.95583 11.2292 5.10417 10.3775 5.10417 9.33333C5.10417 8.28917 5.95583 7.4375 7 7.4375C8.04417 7.4375 8.89583 8.28917 8.89583 9.33333C8.89583 10.3775 8.04417 11.2292 7 11.2292ZM7 8.3125C6.44 8.3125 5.97917 8.77333 5.97917 9.33333C5.97917 9.89333 6.44 10.3542 7 10.3542C7.56 10.3542 8.02083 9.89333 8.02083 9.33333C8.02083 8.77333 7.56 8.3125 7 8.3125Z"
      fill="#E5F3FF" />
  </g>
</svg>