<svg width="25" height="24" viewBox="0 0 25 24" fill="none" xmlns="http://www.w3.org/2000/svg">
  <path opacity="0.4"
    d="M12.1913 19C16.0624 19 19.2004 15.866 19.2004 12C19.2004 8.13401 16.0624 5 12.1913 5C8.32031 5 5.18222 8.13401 5.18222 12C5.18222 15.866 8.32031 19 12.1913 19Z"
    fill="#DDFFEF" />
  <path
    d="M12.1914 22.96C11.6406 22.96 11.1901 22.55 11.1901 22V21.92C11.1901 21.37 11.6406 20.92 12.1914 20.92C12.7421 20.92 13.1927 21.37 13.1927 21.92C13.1927 22.47 12.7421 22.96 12.1914 22.96ZM19.3407 20.14C19.0803 20.14 18.83 20.04 18.6297 19.85L18.4996 19.72C18.109 19.33 18.109 18.7 18.4996 18.31C18.8901 17.92 19.5209 17.92 19.9114 18.31L20.0416 18.44C20.4321 18.83 20.4321 19.46 20.0416 19.85C19.8513 20.04 19.601 20.14 19.3407 20.14ZM5.04206 20.14C4.78172 20.14 4.53139 20.04 4.33113 19.85C3.94063 19.46 3.94063 18.83 4.33113 18.44L4.4613 18.31C4.85181 17.92 5.48263 17.92 5.87314 18.31C6.26365 18.7 6.26365 19.33 5.87314 19.72L5.74297 19.85C5.55272 20.04 5.29238 20.14 5.04206 20.14ZM22.2044 13H22.1243C21.5736 13 21.123 12.55 21.123 12C21.123 11.45 21.5736 11 22.1243 11C22.675 11 23.1656 11.45 23.1656 12C23.1656 12.55 22.7551 13 22.2044 13ZM2.25844 13H2.17833C1.62762 13 1.17703 12.55 1.17703 12C1.17703 11.45 1.62762 11 2.17833 11C2.72905 11 3.21969 11.45 3.21969 12C3.21969 12.55 2.80915 13 2.25844 13ZM19.2105 5.99C18.9501 5.99 18.6998 5.89 18.4996 5.7C18.109 5.31 18.109 4.68 18.4996 4.29L18.6297 4.16C19.0202 3.77 19.6511 3.77 20.0416 4.16C20.4321 4.55 20.4321 5.18 20.0416 5.57L19.9114 5.7C19.7211 5.89 19.4708 5.99 19.2105 5.99ZM5.17223 5.99C4.91189 5.99 4.66156 5.89 4.4613 5.7L4.33113 5.56C3.94063 5.17 3.94063 4.54 4.33113 4.15C4.72164 3.76 5.35246 3.76 5.74297 4.15L5.87314 4.28C6.26365 4.67 6.26365 5.3 5.87314 5.69C5.68289 5.89 5.42255 5.99 5.17223 5.99ZM12.1914 3.04C11.6406 3.04 11.1901 2.63 11.1901 2.08V2C11.1901 1.45 11.6406 1 12.1914 1C12.7421 1 13.1927 1.45 13.1927 2C13.1927 2.55 12.7421 3.04 12.1914 3.04Z"
    fill="#DDFFEF" />
</svg>