<svg width="32" height="32" viewBox="0 0 32 32" fill="none" xmlns="http://www.w3.org/2000/svg">
  <rect width="32" height="32" rx="10" fill="#DAEFFF" fill-opacity="0.12" />
  <path
    d="M19.599 10.3125H11.401C10.8485 10.3125 10.3186 10.532 9.9279 10.9227C9.53719 11.3134 9.3177 11.8433 9.3177 12.3958V18.6458C9.31674 18.9197 9.36997 19.191 9.47432 19.4442C9.57868 19.6974 9.7321 19.9275 9.92575 20.1211C10.1194 20.3148 10.3494 20.4682 10.6026 20.5725C10.8558 20.6769 11.1272 20.7301 11.401 20.7292H19.599C20.1515 20.7292 20.6814 20.5097 21.0721 20.119C21.4628 19.7283 21.6823 19.1984 21.6823 18.6458V12.3958C21.6806 11.8438 21.4606 11.3149 21.0703 10.9245C20.6799 10.5342 20.151 10.3141 19.599 10.3125ZM20.6406 18.6458C20.6406 18.9221 20.5309 19.1871 20.3355 19.3824C20.1402 19.5778 19.8752 19.6875 19.599 19.6875H11.401C11.2639 19.6889 11.1278 19.6629 11.0008 19.611C10.8738 19.5592 10.7584 19.4825 10.6614 19.3855C10.5644 19.2885 10.4877 19.1731 10.4358 19.0461C10.384 18.9191 10.358 18.783 10.3594 18.6458V12.3958C10.3594 12.1196 10.4691 11.8546 10.6645 11.6593C10.8598 11.4639 11.1248 11.3542 11.401 11.3542H19.599C19.8752 11.3542 20.1402 11.4639 20.3355 11.6593C20.5309 11.8546 20.6406 12.1196 20.6406 12.3958V18.6458Z"
    fill="#F8F8F8" />
  <path
    d="M22.2031 7.1875H8.79689C8.10681 7.18942 7.44555 7.46441 6.95759 7.95237C6.46963 8.44033 6.19464 9.10159 6.19272 9.79167V21.25C6.19272 21.9407 6.46709 22.603 6.95546 23.0914C7.44384 23.5798 8.10622 23.8542 8.79689 23.8542V24.25C8.79689 24.6644 8.9615 25.0618 9.25453 25.3549C9.54756 25.6479 9.94498 25.8125 10.3594 25.8125H11.849C12.2634 25.8125 12.6608 25.6479 12.9538 25.3549C13.2468 25.0618 13.4115 24.6644 13.4115 24.25V23.8542H17.5781V24.25C17.5781 24.6644 17.7428 25.0618 18.0358 25.3549C18.3288 25.6479 18.7262 25.8125 19.1406 25.8125H20.6406C21.055 25.8125 21.4525 25.6479 21.7455 25.3549C22.0385 25.0618 22.2031 24.6644 22.2031 24.25V23.8542C22.8938 23.8542 23.5562 23.5798 24.0446 23.0914C24.5329 22.603 24.8073 21.9407 24.8073 21.25V9.79167C24.8054 9.10159 24.5304 8.44033 24.0424 7.95237C23.5545 7.46441 22.8932 7.18942 22.2031 7.1875ZM12.3698 24.25C12.3698 24.3881 12.3149 24.5206 12.2173 24.6183C12.1196 24.716 11.9871 24.7708 11.849 24.7708H10.3594C10.2213 24.7708 10.0888 24.716 9.9911 24.6183C9.89343 24.5206 9.83855 24.3881 9.83855 24.25V23.8542H12.3698V24.25ZM21.1615 24.25C21.1615 24.3881 21.1066 24.5206 21.0089 24.6183C20.9112 24.716 20.7788 24.7708 20.6406 24.7708H19.1458C19.0084 24.7687 18.8771 24.7131 18.7799 24.6159C18.6827 24.5187 18.6272 24.3875 18.625 24.25V23.8542H21.1667L21.1615 24.25ZM23.7656 21.25C23.7656 21.6644 23.601 22.0618 23.308 22.3549C23.015 22.6479 22.6175 22.8125 22.2031 22.8125H8.79689C8.38248 22.8125 7.98506 22.6479 7.69203 22.3549C7.399 22.0618 7.23439 21.6644 7.23439 21.25V9.79167C7.23439 9.37727 7.399 8.97984 7.69203 8.68681C7.98506 8.39379 8.38248 8.22917 8.79689 8.22917H22.2031C22.6175 8.22917 23.015 8.39379 23.308 8.68681C23.601 8.97984 23.7656 9.37727 23.7656 9.79167V21.25Z"
    fill="#F8F8F8" />
  <path
    d="M17.8594 15.0001H17.2239C17.1453 14.7117 16.993 14.4487 16.7821 14.2369C16.5712 14.025 16.3089 13.8717 16.0208 13.7918V13.1563C16.0178 13.021 15.9613 12.8925 15.8637 12.7987C15.7661 12.705 15.6353 12.6538 15.5 12.6563C15.3654 12.6562 15.236 12.7082 15.1389 12.8014C15.0418 12.8947 14.9845 13.0218 14.9792 13.1563V13.7918C14.6901 13.8709 14.4267 14.0239 14.2148 14.2358C14.003 14.4477 13.8499 14.7111 13.7708 15.0001H13.1354C13.0009 15.0055 12.8737 15.0627 12.7805 15.1598C12.6873 15.2569 12.6353 15.3863 12.6354 15.5209C12.6329 15.6562 12.6841 15.787 12.7778 15.8846C12.8715 15.9822 13.0001 16.0387 13.1354 16.0418H13.7708C13.8499 16.3308 14.003 16.5942 14.2148 16.8061C14.4267 17.0179 14.6901 17.171 14.9792 17.2501V17.8959C14.9843 18.0296 15.0418 18.1558 15.1393 18.2474C15.2367 18.339 15.3663 18.3886 15.5 18.3855C15.5664 18.3879 15.6326 18.377 15.6949 18.3537C15.7571 18.3303 15.814 18.2948 15.8625 18.2493C15.9109 18.2038 15.9498 18.1491 15.977 18.0884C16.0042 18.0278 16.0191 17.9624 16.0208 17.8959V17.2501C16.3115 17.1743 16.5766 17.0223 16.789 16.8099C17.0014 16.5976 17.1533 16.3324 17.2292 16.0418H17.8646C17.9318 16.0411 17.9982 16.027 18.06 16.0003C18.1217 15.9737 18.1775 15.935 18.2241 15.8864C18.2706 15.8379 18.307 15.7806 18.3312 15.7179C18.3553 15.6551 18.3667 15.5881 18.3646 15.5209C18.3658 15.4535 18.3537 15.3865 18.3289 15.3238C18.3042 15.261 18.2673 15.2038 18.2203 15.1554C18.1734 15.107 18.1173 15.0684 18.0554 15.0417C17.9934 15.015 17.9268 15.0009 17.8594 15.0001ZM15.5 16.3022C15.3455 16.3022 15.1944 16.2564 15.0659 16.1705C14.9375 16.0847 14.8373 15.9626 14.7782 15.8199C14.7191 15.6771 14.7036 15.5201 14.7337 15.3685C14.7639 15.217 14.8383 15.0778 14.9476 14.9685C15.0568 14.8592 15.196 14.7848 15.3476 14.7547C15.4991 14.7245 15.6562 14.74 15.799 14.7991C15.9417 14.8583 16.0637 14.9584 16.1496 15.0869C16.2354 15.2154 16.2812 15.3664 16.2812 15.5209C16.2814 15.6236 16.2613 15.7252 16.222 15.8201C16.1828 15.9149 16.1253 16.0011 16.0527 16.0737C15.9801 16.1462 15.894 16.2038 15.7991 16.243C15.7043 16.2822 15.6026 16.3023 15.5 16.3022Z"
    fill="#F8F8F8" />
</svg>