<svg width="32" height="32" viewBox="0 0 32 32" fill="none" xmlns="http://www.w3.org/2000/svg">
  <rect width="32" height="32" rx="10" fill="#DAEFFF" fill-opacity="0.12" />
  <path
    d="M16.25 23.6975H8.75C8.08696 23.6975 7.45107 23.4757 6.98223 23.0808C6.51339 22.686 6.25 22.1505 6.25 21.5922V15.2764C6.25 14.7181 6.51339 14.1826 6.98223 13.7878C7.45107 13.3929 8.08696 13.1711 8.75 13.1711H21.25"
    stroke="#F8F8F8" stroke-width="2.66667" stroke-linecap="round" stroke-linejoin="round" />
  <path
    d="M10 13.1711V8.96053C10 7.84383 10.5268 6.77286 11.4645 5.98323C12.4021 5.19361 13.6739 4.75 15 4.75C16.3261 4.75 17.5979 5.19361 18.5355 5.98323C19.4732 6.77286 20 7.84383 20 8.96053V13.1711M26.25 17.3816H23.125C22.6277 17.3816 22.1508 17.5479 21.7992 17.844C21.4475 18.1402 21.25 18.5418 21.25 18.9605C21.25 19.3793 21.4475 19.7809 21.7992 20.077C22.1508 20.3731 22.6277 20.5395 23.125 20.5395H24.375C24.8723 20.5395 25.3492 20.7058 25.7008 21.0019C26.0525 21.298 26.25 21.6997 26.25 22.1184C26.25 22.5372 26.0525 22.9388 25.7008 23.2349C25.3492 23.531 24.8723 23.6974 24.375 23.6974H21.25M23.75 23.6974V24.75M23.75 16.3289V17.3816M13.75 18.4342C13.75 18.7134 13.8817 18.9811 14.1161 19.1785C14.3505 19.3759 14.6685 19.4868 15 19.4868C15.3315 19.4868 15.6495 19.3759 15.8839 19.1785C16.1183 18.9811 16.25 18.7134 16.25 18.4342C16.25 18.155 16.1183 17.8873 15.8839 17.6899C15.6495 17.4925 15.3315 17.3816 15 17.3816C14.6685 17.3816 14.3505 17.4925 14.1161 17.6899C13.8817 17.8873 13.75 18.155 13.75 18.4342Z"
    stroke="#F8F8F8" stroke-width="2.66667" stroke-linecap="round" stroke-linejoin="round" />
</svg>