<svg width="32" height="33" viewBox="0 0 32 33" fill="none" xmlns="http://www.w3.org/2000/svg">
  <rect y="0.5" width="32" height="32" rx="10" fill="#DAEFFF" fill-opacity="0.12" />
  <g clip-path="url(#clip0_3_4984)">
    <path
      d="M16.0156 27.5L13.5156 23.75H14.7656L14.7656 21.25L17.2656 21.25V23.75H18.5156L16.0156 27.5ZM7.26563 18.75V8.75L24.7656 8.75V18.75L7.26563 18.75ZM6.01562 20L26.0156 20L26.0156 7.5L6.01563 7.5L6.01562 20Z"
      fill="#F8F8F8" />
    <path
      d="M16.0156 17.5C15.5232 17.5 15.0355 17.403 14.5806 17.2145C14.1256 17.0261 13.7122 16.7499 13.364 16.4017C13.0158 16.0534 12.7395 15.64 12.5511 15.1851C12.3626 14.7301 12.2656 14.2425 12.2656 13.75C12.2656 13.2575 12.3626 12.7699 12.5511 12.3149C12.7395 11.86 13.0158 11.4466 13.364 11.0983C13.7122 10.7501 14.1256 10.4739 14.5806 10.2855C15.0355 10.097 15.5232 10 16.0156 10L9.76563 10V11.25H8.51563L8.51562 16.25H9.76562V17.5H16.0156ZM19.7656 13.75C19.7656 14.7446 19.3705 15.6984 18.6673 16.4017C17.964 17.1049 17.0102 17.5 16.0156 17.5L22.2656 17.5V16.25H23.5156V11.25H22.2656V10L16.0156 10C17.0102 10 17.964 10.3951 18.6673 11.0983C19.3705 11.8016 19.7656 12.7554 19.7656 13.75Z"
      fill="#F8F8F8" />
  </g>
  <defs>
    <clipPath id="clip0_3_4984">
      <rect width="20" height="20" fill="white" transform="matrix(-1 0 0 -1 26.0156 27.5)" />
    </clipPath>
  </defs>
</svg>