<svg width="32" height="33" viewBox="0 0 32 33" fill="none" xmlns="http://www.w3.org/2000/svg">
  <rect y="0.5" width="32" height="32" rx="10" fill="#DAEFFF" fill-opacity="0.12" />
  <g clip-path="url(#clip0_3_4999)">
    <path
      d="M9.33332 21.3333L22.6667 21.3333L22.6667 16.3333C22.6667 15.8731 23.0398 15.5 23.5 15.5C23.9602 15.5 24.3333 15.8731 24.3333 16.3333L24.3333 22.1667C24.3333 22.3877 24.2455 22.5996 24.0892 22.7559C23.933 22.9122 23.721 23 23.5 23L8.49999 23C8.27897 23 8.06701 22.9122 7.91073 22.7559C7.75445 22.5996 7.66666 22.3877 7.66666 22.1667L7.66666 16.3333C7.66666 15.8731 8.03975 15.5 8.49999 15.5C8.96023 15.5 9.33332 15.8731 9.33332 16.3333L9.33332 21.3333Z"
      fill="#FF3E46" />
    <path
      d="M15.3572 10.5918L12.387 13.7201C12.1271 13.9939 11.6908 13.9939 11.4309 13.7201C11.1894 13.4658 11.1894 13.0668 11.4309 12.8124L15.2083 8.83384C15.6387 8.38044 16.3613 8.38044 16.7917 8.83384L20.5691 12.8124C20.8106 13.0668 20.8106 13.4658 20.5691 13.7201C20.3092 13.9939 19.8729 13.9939 19.613 13.7201L16.6428 10.5918L16.6428 18.1904C16.6428 18.5454 16.355 18.8333 16 18.8333C15.645 18.8333 15.3572 18.5454 15.3572 18.1904L15.3572 10.5918Z"
      fill="#FF3E46" />
  </g>
  <defs>
    <clipPath id="clip0_3_4999">
      <rect width="20" height="20" fill="white" transform="translate(6 5.5)" />
    </clipPath>
  </defs>
</svg>