<svg width="27" height="26" viewBox="0 0 27 26" fill="none" xmlns="http://www.w3.org/2000/svg">
  <g clip-path="url(#clip0_54_993)">
    <path
      d="M13.3471 0.00012207C6.16745 0.00012207 0.347107 5.82047 0.347107 13.0001C0.347107 20.1802 6.16745 26.0001 13.3471 26.0001C20.5272 26.0001 26.3471 20.1802 26.3471 13.0001C26.3471 5.82047 20.5272 0.00012207 13.3471 0.00012207ZM13.3471 24.4007C7.07501 24.4007 1.97211 19.2722 1.97211 13.0001C1.97211 6.72798 7.07501 1.62507 13.3471 1.62507C19.6192 1.62507 24.7221 6.728 24.7221 13.0001C24.7221 19.2721 19.6192 24.4007 13.3471 24.4007ZM18.5353 8.24334L10.908 15.9186L7.47311 12.4838C7.15583 12.1665 6.64152 12.1665 6.32383 12.4838C6.00655 12.8011 6.00655 13.3154 6.32383 13.6327L10.3453 17.6545C10.6626 17.9714 11.1769 17.9714 11.4946 17.6545C11.5311 17.618 11.5625 17.5781 11.5909 17.5367L19.685 9.3926C20.0019 9.07532 20.0019 8.561 19.685 8.24334C19.3673 7.92606 18.853 7.92606 18.5353 8.24334Z"
      fill="#1CED86" fill-opacity="0.2" />
  </g>
  <defs>
    <clipPath id="clip0_54_993">
      <rect width="26" height="26" fill="white" transform="translate(0.347107 0.00012207)" />
    </clipPath>
  </defs>
</svg>