<svg width="18" height="19" viewBox="0 0 18 19" fill="none" xmlns="http://www.w3.org/2000/svg">
  <path
    d="M12.75 17.5625H5.25C1.9425 17.5625 0.9375 16.5575 0.9375 13.25V11.75C0.9375 8.4425 1.9425 7.4375 5.25 7.4375H12.75C16.0575 7.4375 17.0625 8.4425 17.0625 11.75V13.25C17.0625 16.5575 16.0575 17.5625 12.75 17.5625ZM5.25 8.5625C2.565 8.5625 2.0625 9.0725 2.0625 11.75V13.25C2.0625 15.9275 2.565 16.4375 5.25 16.4375H12.75C15.435 16.4375 15.9375 15.9275 15.9375 13.25V11.75C15.9375 9.0725 15.435 8.5625 12.75 8.5625H5.25Z"
    fill="#E5F3FF" fill-opacity="0.4" />
  <path
    d="M4.5 8.5625C4.1925 8.5625 3.9375 8.3075 3.9375 8V6.5C3.9375 4.325 4.4625 1.4375 9 1.4375C12.36 1.4375 14.0625 2.885 14.0625 5.75C14.0625 6.0575 13.8075 6.3125 13.5 6.3125C13.1925 6.3125 12.9375 6.0575 12.9375 5.75C12.9375 4.265 12.4875 2.5625 9 2.5625C5.73 2.5625 5.0625 4.1375 5.0625 6.5V8C5.0625 8.3075 4.8075 8.5625 4.5 8.5625Z"
    fill="#E5F3FF" fill-opacity="0.4" />
  <path
    d="M9 14.9375C7.6575 14.9375 6.5625 13.8425 6.5625 12.5C6.5625 11.1575 7.6575 10.0625 9 10.0625C10.3425 10.0625 11.4375 11.1575 11.4375 12.5C11.4375 13.8425 10.3425 14.9375 9 14.9375ZM9 11.1875C8.28 11.1875 7.6875 11.78 7.6875 12.5C7.6875 13.22 8.28 13.8125 9 13.8125C9.72 13.8125 10.3125 13.22 10.3125 12.5C10.3125 11.78 9.72 11.1875 9 11.1875Z"
    fill="#E5F3FF" fill-opacity="0.4" />
</svg>