<svg width="25" height="24" viewBox="0 0 25 24" fill="none" xmlns="http://www.w3.org/2000/svg">
  <path opacity="0.4"
    d="M12.0976 2C9.47417 2 7.3414 4.13 7.3414 6.75C7.3414 9.32 9.35402 11.4 11.9774 11.49C12.0575 11.48 12.1376 11.48 12.1977 11.49C12.2177 11.49 12.2278 11.49 12.2478 11.49C12.2578 11.49 12.2578 11.49 12.2678 11.49C14.8311 11.4 16.8438 9.32 16.8538 6.75C16.8538 4.13 14.721 2 12.0976 2Z"
    fill="#DDFFEF" />
  <path
    d="M17.1842 14.15C14.3906 12.29 9.83466 12.29 7.021 14.15C5.74934 15 5.04843 16.15 5.04843 17.38C5.04843 18.61 5.74934 19.75 7.01098 20.59C8.41281 21.53 10.2552 22 12.0976 22C13.94 22 15.7824 21.53 17.1842 20.59C18.4459 19.74 19.1468 18.6 19.1468 17.36C19.1368 16.13 18.4459 14.99 17.1842 14.15Z"
    fill="#DDFFEF" fill-opacity="0.9" />
</svg>