<svg xmlns="http://www.w3.org/2000/svg" width="18" height="19" viewBox="0 0 18 19" fill="none">
  <path
    d="M16.3125 10.1089C16.193 11.4982 15.6792 12.8245 14.8315 13.9318C13.9838 15.039 12.8375 15.8812 11.5274 16.3591C10.2174 16.837 8.79812 16.9308 7.43658 16.6294C6.07504 16.3281 4.82788 15.6442 3.84183 14.6581C2.85577 13.6721 2.17185 12.4249 1.87053 11.0634C1.5692 9.70185 1.66301 8.28257 2.14091 6.97253C2.61881 5.66249 3.46092 4.51619 4.56817 3.66849C5.67543 2.82079 7.00175 2.30697 8.39111 2.18746C8.46498 2.18136 8.53932 2.18988 8.6099 2.21252C8.68048 2.23515 8.7459 2.27147 8.80245 2.3194C8.85899 2.36732 8.90554 2.42591 8.93944 2.49182C8.97334 2.55774 8.99392 2.62968 9.00001 2.70355C9.00611 2.77742 8.99759 2.85177 8.97495 2.92234C8.95232 2.99292 8.916 3.05835 8.86808 3.11489C8.82015 3.17143 8.76156 3.21798 8.69565 3.25188C8.62973 3.28578 8.55779 3.30636 8.48392 3.31246C7.308 3.41349 6.18541 3.84829 5.24822 4.56568C4.31102 5.28308 3.59823 6.25323 3.19369 7.36198C2.78916 8.47074 2.70973 9.67197 2.96473 10.8243C3.21973 11.9767 3.79857 13.0323 4.63313 13.8668C5.46769 14.7014 6.52326 15.2802 7.67563 15.5352C8.828 15.7902 10.0292 15.7108 11.138 15.3063C12.2467 14.9017 13.2169 14.1889 13.9343 13.2518C14.6517 12.3146 15.0865 11.192 15.1875 10.0161C15.1998 9.86687 15.2709 9.72868 15.3851 9.6319C15.4993 9.53511 15.6472 9.48765 15.7964 9.49996C15.9456 9.51227 16.0838 9.58333 16.1806 9.69752C16.2774 9.81172 16.3248 9.95968 16.3125 10.1089ZM8.43751 5.56246V9.49996C8.43751 9.64914 8.49678 9.79222 8.60227 9.89771C8.70776 10.0032 8.85083 10.0625 9.00001 10.0625H12.9375C13.0867 10.0625 13.2298 10.0032 13.3353 9.89771C13.4408 9.79222 13.5 9.64914 13.5 9.49996C13.5 9.35077 13.4408 9.2077 13.3353 9.10221C13.2298 8.99672 13.0867 8.93746 12.9375 8.93746H9.56251V5.56246C9.56251 5.41327 9.50325 5.2702 9.39776 5.16471C9.29227 5.05922 9.1492 4.99996 9.00001 4.99996C8.85083 4.99996 8.70776 5.05922 8.60227 5.16471C8.49678 5.2702 8.43751 5.41327 8.43751 5.56246ZM11.25 3.87496C11.4169 3.87496 11.58 3.82547 11.7188 3.73276C11.8575 3.64005 11.9657 3.50827 12.0295 3.3541C12.0934 3.19992 12.1101 3.03027 12.0776 2.8666C12.045 2.70293 11.9646 2.55259 11.8466 2.43459C11.7286 2.31659 11.5783 2.23623 11.4146 2.20367C11.2509 2.17111 11.0813 2.18782 10.9271 2.25168C10.773 2.31555 10.6412 2.42369 10.5485 2.56245C10.4557 2.7012 10.4063 2.86433 10.4063 3.03121C10.4063 3.25498 10.4952 3.4696 10.6534 3.62783C10.8116 3.78606 11.0262 3.87496 11.25 3.87496ZM13.7813 5.56246C13.9481 5.56246 14.1113 5.51297 14.25 5.42026C14.3888 5.32755 14.4969 5.19577 14.5608 5.0416C14.6246 4.88742 14.6414 4.71777 14.6088 4.5541C14.5762 4.39043 14.4959 4.24009 14.3779 4.12209C14.2599 4.00409 14.1095 3.92373 13.9459 3.89117C13.7822 3.85861 13.6125 3.87532 13.4584 3.93918C13.3042 4.00305 13.1724 4.11119 13.0797 4.24995C12.987 4.3887 12.9375 4.55183 12.9375 4.71871C12.9375 4.94248 13.0264 5.1571 13.1846 5.31533C13.3429 5.47356 13.5575 5.56246 13.7813 5.56246ZM15.4688 8.09371C15.6356 8.09371 15.7988 8.04422 15.9375 7.95151C16.0763 7.8588 16.1844 7.72702 16.2483 7.57285C16.3121 7.41867 16.3289 7.24902 16.2963 7.08535C16.2637 6.92168 16.1834 6.77134 16.0654 6.65334C15.9474 6.53534 15.797 6.45498 15.6334 6.42242C15.4697 6.38986 15.3 6.40657 15.1459 6.47043C14.9917 6.5343 14.8599 6.64244 14.7672 6.7812C14.6745 6.91995 14.625 7.08308 14.625 7.24996C14.625 7.47373 14.7139 7.68835 14.8721 7.84658C15.0304 8.00481 15.245 8.09371 15.4688 8.09371Z"
    fill="#E5F3FF" fill-opacity="0.4" />
</svg>