<svg width="17" height="16" viewBox="0 0 17 16" fill="none" xmlns="http://www.w3.org/2000/svg">
  <g opacity="0.8">
    <path
      d="M1.4551 15.1667C1.32177 15.1667 1.19508 15.1133 1.10175 15.02C0.97508 14.8933 0.921779 14.7067 0.968445 14.5333L1.80845 11.3933C1.24845 10.3533 0.955099 9.17999 0.955099 7.99333C0.955099 4.03999 4.16843 0.82666 8.12177 0.82666C12.0751 0.82666 15.2884 4.03999 15.2884 7.99333C15.2884 11.9467 12.0751 15.16 8.12177 15.16C6.9151 15.16 5.73512 14.86 4.68178 14.2867L1.58844 15.1467C1.54177 15.16 1.50177 15.1667 1.4551 15.1667ZM4.74843 13.2533C4.8351 13.2533 4.92177 13.28 5.00177 13.32C5.94177 13.8733 7.02177 14.1667 8.12177 14.1667C11.5218 14.1667 14.2884 11.4 14.2884 8C14.2884 4.6 11.5218 1.83333 8.12177 1.83333C4.72177 1.83333 1.9551 4.6 1.9551 8C1.9551 9.08667 2.24176 10.1467 2.78176 11.08C2.84843 11.1933 2.86844 11.3333 2.8351 11.46L2.16844 13.9533L4.62177 13.2733C4.66177 13.26 4.70843 13.2533 4.74843 13.2533Z"
      fill="#E5F3FF" />
    <path
      d="M9.94844 11.84C9.5351 11.84 9.10844 11.7467 8.66177 11.5534C8.24177 11.3734 7.82178 11.1334 7.41511 10.8334C7.01511 10.54 6.62179 10.2067 6.26179 9.84669C5.90179 9.48002 5.56843 9.09337 5.2751 8.69337C4.9751 8.27337 4.73509 7.86002 4.56176 7.45336C4.37509 7.01336 4.28177 6.58003 4.28177 6.16669C4.28177 5.87336 4.33509 5.59336 4.43509 5.33336C4.54176 5.06003 4.7151 4.81336 4.94176 4.60002C5.36843 4.18002 5.98179 4.0267 6.46846 4.26004C6.63512 4.33337 6.77512 4.45337 6.88179 4.61337L7.6551 5.70002C7.7351 5.80669 7.79512 5.92002 7.84179 6.03335C7.89512 6.16669 7.92846 6.30004 7.92846 6.4267C7.92846 6.60004 7.88178 6.77337 7.78844 6.9267C7.72844 7.0267 7.64177 7.1467 7.52843 7.26004L7.44176 7.35336C7.48176 7.40669 7.52842 7.47335 7.60176 7.55335C7.74176 7.71335 7.89509 7.88669 8.06176 8.05335C8.22842 8.21335 8.39509 8.37335 8.56176 8.51335C8.64176 8.58002 8.70846 8.63336 8.76179 8.66669L8.85509 8.57335C8.97509 8.45335 9.09512 8.36004 9.21512 8.30004C9.43512 8.16004 9.7751 8.1267 10.0751 8.25336C10.1818 8.29336 10.2884 8.35336 10.4018 8.43336L11.5151 9.22002C11.6685 9.32669 11.7884 9.47336 11.8684 9.64002C11.9351 9.80669 11.9618 9.95336 11.9618 10.1067C11.9618 10.3067 11.9151 10.5 11.8284 10.6867C11.7418 10.86 11.6418 11.0134 11.5218 11.1534C11.3084 11.3867 11.0618 11.56 10.7951 11.6734C10.5284 11.7867 10.2418 11.84 9.94844 11.84ZM5.98176 5.16002C5.94176 5.16002 5.80846 5.16002 5.64179 5.32669C5.51513 5.44669 5.42844 5.57337 5.36844 5.71337C5.30844 5.85337 5.28177 6.01337 5.28177 6.17337C5.28177 6.45337 5.34843 6.75335 5.48176 7.07335C5.62176 7.40668 5.82844 7.76004 6.08178 8.11337C6.34178 8.4667 6.63512 8.82003 6.96178 9.1467C7.28845 9.4667 7.63511 9.76669 7.99511 10.0334C8.34177 10.2867 8.69512 10.4867 9.04845 10.64C9.55512 10.86 10.0218 10.9134 10.4018 10.7534C10.5351 10.7 10.6551 10.6067 10.7751 10.4867C10.8351 10.42 10.8818 10.3534 10.9218 10.2667C10.9418 10.22 10.9551 10.1667 10.9551 10.12C10.9551 10.1067 10.9551 10.0867 10.9351 10.0467L9.82177 9.27336C9.7751 9.24003 9.72843 9.21335 9.68843 9.20002C9.66176 9.21335 9.62179 9.23336 9.54845 9.30669L9.29512 9.56003C9.10178 9.75336 8.79512 9.80669 8.54845 9.72002L8.42846 9.66669C8.27512 9.58669 8.10177 9.4667 7.90844 9.30004C7.72177 9.14004 7.54179 8.97336 7.34846 8.78669C7.16179 8.59336 6.99511 8.41336 6.83511 8.22669C6.66178 8.02003 6.54178 7.85337 6.46178 7.71337L6.38846 7.54003C6.36846 7.47336 6.36177 7.40003 6.36177 7.33336C6.36177 7.14669 6.42846 6.98002 6.55512 6.84669L6.80846 6.5867C6.88179 6.51336 6.90845 6.47337 6.92178 6.4467C6.90178 6.40004 6.87512 6.36003 6.84179 6.31336L6.06176 5.21337L5.98176 5.16002Z"
      fill="#E5F3FF" />
  </g>
</svg>