<svg width="17" height="16" viewBox="0 0 17 16" fill="none" xmlns="http://www.w3.org/2000/svg">
  <g opacity="0.8">
    <path
      d="M11.5156 13.8333H4.84896C2.55562 13.8333 1.01562 12.2933 1.01562 9.99996V5.99996C1.01562 3.70663 2.55562 2.16663 4.84896 2.16663H11.5156C13.809 2.16663 15.349 3.70663 15.349 5.99996V9.99996C15.349 12.2933 13.809 13.8333 11.5156 13.8333ZM4.84896 3.16663C3.12896 3.16663 2.01562 4.27996 2.01562 5.99996V9.99996C2.01562 11.72 3.12896 12.8333 4.84896 12.8333H11.5156C13.2356 12.8333 14.349 11.72 14.349 9.99996V5.99996C14.349 4.27996 13.2356 3.16663 11.5156 3.16663H4.84896Z"
      fill="#E5F3FF" />
    <path
      d="M7.24304 10.3534C7.04971 10.3534 6.86304 10.3067 6.69637 10.2134C6.3097 9.9934 6.08301 9.54672 6.08301 8.99339V7.02006C6.08301 6.46673 6.30304 6.02007 6.69637 5.80007C7.08304 5.58007 7.58302 5.62005 8.05636 5.90672L9.70304 6.8934C10.1564 7.16673 10.4163 7.5734 10.4163 8.00674C10.4163 8.44007 10.1564 8.84673 9.70304 9.12006L8.05636 10.1067C7.78302 10.2667 7.50304 10.3534 7.24304 10.3534ZM7.24304 6.64673C7.21638 6.64673 7.19636 6.65339 7.18302 6.66006C7.13636 6.68672 7.08301 6.80672 7.08301 7.01339V8.98674C7.08301 9.18674 7.13636 9.30674 7.18302 9.34007C7.23636 9.36674 7.36304 9.35339 7.53638 9.24673L9.18302 8.26007C9.34969 8.16007 9.40971 8.06006 9.40971 8.00006C9.40971 7.94006 9.34969 7.84672 9.18302 7.74006L7.53638 6.7534C7.41638 6.68007 7.30971 6.64673 7.24304 6.64673Z"
      fill="#E5F3FF" />
  </g>
</svg>